G04*
G04 #@! TF.GenerationSoftware,Altium Limited,Altium Designer,22.2.1 (43)*
G04*
G04 Layer_Physical_Order=1*
G04 Layer_Color=255*
%FSLAX25Y25*%
%MOIN*%
G70*
G04*
G04 #@! TF.SameCoordinates,3363FF5D-1BA6-4910-A2F9-43927B8BDF9C*
G04*
G04*
G04 #@! TF.FilePolarity,Positive*
G04*
G01*
G75*
%ADD12C,0.01000*%
G04:AMPARAMS|DCode=18|XSize=63.2mil|YSize=19.68mil|CornerRadius=9.84mil|HoleSize=0mil|Usage=FLASHONLY|Rotation=90.000|XOffset=0mil|YOffset=0mil|HoleType=Round|Shape=RoundedRectangle|*
%AMROUNDEDRECTD18*
21,1,0.06320,0.00000,0,0,90.0*
21,1,0.04351,0.01968,0,0,90.0*
1,1,0.01968,0.00000,0.02176*
1,1,0.01968,0.00000,-0.02176*
1,1,0.01968,0.00000,-0.02176*
1,1,0.01968,0.00000,0.02176*
%
%ADD18ROUNDEDRECTD18*%
%ADD19R,0.01968X0.06320*%
%ADD20R,0.07087X0.07087*%
%ADD21R,0.02780X0.00758*%
G04:AMPARAMS|DCode=22|XSize=27.8mil|YSize=7.58mil|CornerRadius=3.79mil|HoleSize=0mil|Usage=FLASHONLY|Rotation=0.000|XOffset=0mil|YOffset=0mil|HoleType=Round|Shape=RoundedRectangle|*
%AMROUNDEDRECTD22*
21,1,0.02780,0.00000,0,0,0.0*
21,1,0.02022,0.00758,0,0,0.0*
1,1,0.00758,0.01011,0.00000*
1,1,0.00758,-0.01011,0.00000*
1,1,0.00758,-0.01011,0.00000*
1,1,0.00758,0.01011,0.00000*
%
%ADD22ROUNDEDRECTD22*%
G04:AMPARAMS|DCode=23|XSize=7.58mil|YSize=27.8mil|CornerRadius=3.79mil|HoleSize=0mil|Usage=FLASHONLY|Rotation=0.000|XOffset=0mil|YOffset=0mil|HoleType=Round|Shape=RoundedRectangle|*
%AMROUNDEDRECTD23*
21,1,0.00758,0.02022,0,0,0.0*
21,1,0.00000,0.02780,0,0,0.0*
1,1,0.00758,0.00000,-0.01011*
1,1,0.00758,0.00000,-0.01011*
1,1,0.00758,0.00000,0.01011*
1,1,0.00758,0.00000,0.01011*
%
%ADD23ROUNDEDRECTD23*%
%ADD24R,0.15600X0.15600*%
%ADD25R,0.07000X0.20000*%
%ADD31R,0.01968X0.03937*%
%ADD44R,0.03150X0.05906*%
%ADD45R,0.05512X0.07480*%
%ADD46R,0.05118X0.05512*%
%ADD47R,0.03937X0.03740*%
%ADD48R,0.05315X0.03937*%
%ADD49R,0.04724X0.05709*%
%ADD50R,0.03150X0.03543*%
%ADD51R,0.03937X0.05315*%
%ADD52R,0.04134X0.02362*%
%ADD53R,0.04134X0.05906*%
%ADD54R,0.05118X0.05709*%
%ADD55R,0.05315X0.05709*%
%ADD56R,0.05709X0.05118*%
%ADD57R,0.03740X0.05315*%
%ADD58R,0.05709X0.04921*%
%ADD59C,0.05937*%
%ADD60C,0.09843*%
%ADD61C,0.05906*%
%ADD62R,0.05906X0.05906*%
%ADD63R,0.05906X0.05906*%
%ADD64C,0.01575*%
G36*
X437165Y392411D02*
X436703Y392220D01*
X434756Y394167D01*
X434260Y394499D01*
X433675Y394615D01*
X398597D01*
X398011Y394499D01*
X397515Y394167D01*
X389878Y386529D01*
X368133D01*
X365081Y389581D01*
X364585Y389913D01*
X364000Y390029D01*
X356039D01*
Y390921D01*
X350529D01*
Y395471D01*
X368260D01*
Y394198D01*
X367760Y393876D01*
X367529Y393981D01*
X367515Y394012D01*
X367013Y394515D01*
X366355Y394787D01*
X365645D01*
X364987Y394515D01*
X364485Y394012D01*
X364213Y393355D01*
Y392645D01*
X364485Y391987D01*
X364987Y391485D01*
X365645Y391213D01*
X365780D01*
X366212Y390781D01*
X366708Y390449D01*
X367293Y390333D01*
X368260D01*
Y387122D01*
X375772D01*
Y395471D01*
X437165D01*
Y392411D01*
D02*
G37*
G36*
X420031Y386372D02*
X419531Y385984D01*
X419302Y386029D01*
X397000D01*
X396415Y385913D01*
X395919Y385581D01*
X393612Y383274D01*
X393418Y382985D01*
X392937Y382862D01*
Y382862D01*
X392937Y382862D01*
X387787D01*
Y374957D01*
X392118D01*
Y373382D01*
X393461D01*
X393495Y373331D01*
X393624Y372882D01*
X389772Y369029D01*
X381978D01*
X381356Y369287D01*
X380644D01*
X379988Y369015D01*
X379485Y368513D01*
X379213Y367856D01*
Y367144D01*
X379485Y366488D01*
X379988Y365985D01*
X380644Y365713D01*
X381356D01*
X381978Y365971D01*
X390406D01*
X390991Y366087D01*
X391487Y366419D01*
X395890Y370821D01*
X396513Y371079D01*
X396814Y371380D01*
X397314Y371173D01*
Y370477D01*
X384110Y357273D01*
X383488Y357015D01*
X382985Y356512D01*
X382713Y355855D01*
Y355145D01*
X382985Y354487D01*
X383488Y353985D01*
X384144Y353713D01*
X384856D01*
X385512Y353985D01*
X386015Y354487D01*
X386273Y355110D01*
X399924Y368762D01*
X400256Y369258D01*
X400372Y369843D01*
Y374957D01*
X401598D01*
Y375744D01*
X402854D01*
Y379697D01*
X403854D01*
Y375744D01*
X405110D01*
Y374957D01*
X406156D01*
Y368818D01*
X395143Y357806D01*
X394520Y357548D01*
X394018Y357045D01*
X393745Y356388D01*
Y355677D01*
X394018Y355020D01*
X394520Y354518D01*
X395177Y354245D01*
X395888D01*
X396545Y354518D01*
X397048Y355020D01*
X397306Y355643D01*
X408767Y367104D01*
X409098Y367600D01*
X409214Y368185D01*
Y374957D01*
X410260D01*
X410471Y374544D01*
Y370478D01*
X410213Y369855D01*
Y369145D01*
X410485Y368488D01*
X410988Y367985D01*
X411645Y367713D01*
X412343D01*
X412378Y367675D01*
X412617Y367280D01*
X394866Y349529D01*
X390434D01*
X389849Y349413D01*
X389353Y349081D01*
X387578Y347306D01*
X386955Y347048D01*
X386452Y346545D01*
X386180Y345888D01*
Y345177D01*
X386452Y344520D01*
X386955Y344018D01*
X387612Y343745D01*
X388323D01*
X388980Y344018D01*
X389482Y344520D01*
X389740Y345143D01*
X391068Y346471D01*
X395500D01*
X396085Y346587D01*
X396581Y346919D01*
X417428Y367765D01*
X417759Y368261D01*
X417876Y368847D01*
Y374957D01*
X423252D01*
Y379932D01*
X423714Y380123D01*
X428498Y375339D01*
Y345472D01*
X428615Y344887D01*
X428946Y344391D01*
X434303Y339034D01*
X434302Y339032D01*
X434031Y338022D01*
Y336978D01*
X434302Y335968D01*
X434824Y335063D01*
X435563Y334324D01*
X436468Y333802D01*
X437477Y333531D01*
X438522D01*
X439532Y333802D01*
X440437Y334324D01*
X440971Y334858D01*
X441471Y334651D01*
Y330349D01*
X440971Y330142D01*
X440437Y330676D01*
X439532Y331198D01*
X438522Y331469D01*
X437477D01*
X436468Y331198D01*
X435563Y330676D01*
X434824Y329937D01*
X434302Y329032D01*
X434031Y328023D01*
Y326977D01*
X434302Y325968D01*
X434824Y325063D01*
X435563Y324324D01*
X436468Y323802D01*
X437477Y323532D01*
X438522D01*
X439532Y323802D01*
X440437Y324324D01*
X440971Y324858D01*
X441471Y324651D01*
Y320349D01*
X440971Y320142D01*
X440437Y320676D01*
X439532Y321198D01*
X438522Y321468D01*
X437477D01*
X436468Y321198D01*
X435563Y320676D01*
X434824Y319937D01*
X434302Y319032D01*
X434031Y318022D01*
Y316978D01*
X434302Y315968D01*
X434824Y315063D01*
X435563Y314324D01*
X436468Y313802D01*
X437477Y313531D01*
X438522D01*
X439532Y313802D01*
X440437Y314324D01*
X440971Y314858D01*
X441471Y314651D01*
Y310349D01*
X440971Y310142D01*
X440437Y310676D01*
X439532Y311198D01*
X438522Y311469D01*
X437477D01*
X436468Y311198D01*
X435563Y310676D01*
X434824Y309937D01*
X434302Y309032D01*
X434031Y308022D01*
Y306978D01*
X434302Y305968D01*
X434824Y305063D01*
X435563Y304324D01*
X436468Y303802D01*
X437477Y303532D01*
X438522D01*
X439532Y303802D01*
X440437Y304324D01*
X440971Y304858D01*
X441471Y304651D01*
Y300349D01*
X440971Y300142D01*
X440437Y300676D01*
X439532Y301198D01*
X438522Y301468D01*
X437477D01*
X436468Y301198D01*
X435563Y300676D01*
X434824Y299937D01*
X434302Y299032D01*
X434031Y298023D01*
Y296977D01*
X434302Y295968D01*
X434824Y295063D01*
X435563Y294324D01*
X436468Y293802D01*
X437477Y293531D01*
X438522D01*
X439532Y293802D01*
X440437Y294324D01*
X440971Y294858D01*
X441471Y294651D01*
Y290349D01*
X440971Y290142D01*
X440437Y290676D01*
X439532Y291198D01*
X438522Y291469D01*
X437477D01*
X436468Y291198D01*
X436466Y291197D01*
X435448Y292215D01*
X434951Y292547D01*
X434366Y292663D01*
X422479D01*
X422288Y293125D01*
X424634Y295471D01*
X427000D01*
X427585Y295587D01*
X428081Y295919D01*
X431081Y298919D01*
X431413Y299415D01*
X431529Y300000D01*
Y301790D01*
X432029Y301967D01*
X432500Y301772D01*
Y303500D01*
Y305228D01*
X432029Y305033D01*
X431529Y305210D01*
Y320414D01*
X431413Y321000D01*
X431081Y321496D01*
X430496Y322081D01*
X429999Y322413D01*
X429414Y322529D01*
X426566D01*
X425981Y322413D01*
X425484Y322081D01*
X423344Y319941D01*
X423012Y319445D01*
X422984Y319302D01*
X422345Y318663D01*
X422022Y318529D01*
X420709D01*
Y320854D01*
X418679D01*
Y332398D01*
X421047D01*
Y339471D01*
X424711D01*
X424837Y339345D01*
X424985Y338987D01*
X425488Y338485D01*
X426145Y338213D01*
X426856D01*
X427513Y338485D01*
X428015Y338987D01*
X428287Y339645D01*
Y340355D01*
X428015Y341013D01*
X427513Y341515D01*
X426856Y341787D01*
X426720D01*
X426426Y342081D01*
X425930Y342413D01*
X425345Y342529D01*
X389723D01*
X389281Y342713D01*
X388570D01*
X388127Y342529D01*
X384134D01*
X370288Y356374D01*
X369792Y356706D01*
X369207Y356822D01*
X355651D01*
X354413Y358060D01*
X354732Y358449D01*
X354841Y358375D01*
X355919Y357929D01*
X357063Y357701D01*
X358229D01*
X359373Y357929D01*
X360451Y358375D01*
X361421Y359023D01*
X362245Y359848D01*
X362894Y360818D01*
X363340Y361896D01*
X363567Y363040D01*
Y364206D01*
X363340Y365350D01*
X362894Y366428D01*
X362245Y367398D01*
X361421Y368222D01*
X360451Y368871D01*
X359787Y369146D01*
X359886Y369646D01*
X365209D01*
Y377354D01*
X363529D01*
Y379522D01*
X363787Y380145D01*
Y380855D01*
X363529Y381478D01*
Y382819D01*
X365094D01*
Y384589D01*
X365556Y384781D01*
X366419Y383919D01*
X366915Y383587D01*
X367500Y383471D01*
X390511D01*
X391096Y383587D01*
X391592Y383919D01*
X399230Y391556D01*
X420031D01*
Y386372D01*
D02*
G37*
G36*
X435364Y389234D02*
X435173Y388772D01*
X433425D01*
Y383658D01*
X432445D01*
Y376354D01*
X432291D01*
Y368646D01*
X434395D01*
X434503Y368146D01*
X433755Y367398D01*
X433107Y366428D01*
X432661Y365350D01*
X432434Y364206D01*
Y363040D01*
X432661Y361896D01*
X433107Y360818D01*
X433755Y359848D01*
X434580Y359023D01*
X435550Y358375D01*
X436628Y357929D01*
X437772Y357701D01*
X438938D01*
X440082Y357929D01*
X441160Y358375D01*
X442130Y359023D01*
X442954Y359848D01*
X443471Y360621D01*
X443971Y360469D01*
Y344346D01*
X443509Y344154D01*
X441697Y345966D01*
X441698Y345968D01*
X441968Y346977D01*
Y348023D01*
X441698Y349032D01*
X441176Y349937D01*
X440437Y350676D01*
X439532Y351198D01*
X438522Y351468D01*
X437477D01*
X436468Y351198D01*
X435563Y350676D01*
X434824Y349937D01*
X434302Y349032D01*
X434031Y348023D01*
Y346977D01*
X434302Y345968D01*
X434824Y345063D01*
X435563Y344324D01*
X436468Y343802D01*
X437477Y343531D01*
X438522D01*
X439532Y343802D01*
X439534Y343803D01*
X441471Y341866D01*
Y340349D01*
X440971Y340142D01*
X440437Y340676D01*
X439532Y341198D01*
X438522Y341469D01*
X437477D01*
X436468Y341198D01*
X436466Y341197D01*
X431557Y346106D01*
Y375972D01*
X431441Y376558D01*
X431109Y377054D01*
X425440Y382723D01*
X425631Y383185D01*
X427543D01*
Y385722D01*
X427788Y385867D01*
X428043Y385962D01*
X428645Y385713D01*
X429355D01*
X430013Y385985D01*
X430515Y386488D01*
X430787Y387144D01*
Y387856D01*
X430515Y388512D01*
X430013Y389015D01*
X429355Y389287D01*
X429080D01*
X429004Y389338D01*
X428419Y389455D01*
X427543D01*
Y391556D01*
X433041D01*
X435364Y389234D01*
D02*
G37*
G36*
X358961Y382819D02*
X360471D01*
Y381478D01*
X360213Y380855D01*
Y380145D01*
X360471Y379522D01*
Y377354D01*
X356683D01*
Y378145D01*
X357121Y378583D01*
X357452Y379079D01*
X357569Y379664D01*
Y382855D01*
X357452Y383440D01*
X357121Y383937D01*
X354998Y386059D01*
X355205Y386559D01*
X356039D01*
Y386971D01*
X358961D01*
Y382819D01*
D02*
G37*
G36*
X413929Y338138D02*
X409047D01*
Y334352D01*
X408547Y334143D01*
X408202Y334374D01*
X407617Y334490D01*
X404173D01*
X402004Y336658D01*
Y337073D01*
X401732Y337730D01*
X401230Y338232D01*
X400573Y338505D01*
X399862D01*
X399205Y338232D01*
X399106Y338134D01*
X398606Y338282D01*
Y339471D01*
X413929D01*
Y338138D01*
D02*
G37*
G36*
X388291Y323521D02*
X388211Y323440D01*
X387791Y323266D01*
X387445Y323498D01*
X386859Y323614D01*
X372688D01*
X372496Y324076D01*
X376852Y328432D01*
X388291D01*
Y323521D01*
D02*
G37*
G36*
X410078Y328971D02*
X415000D01*
X415120Y328994D01*
X415620Y328584D01*
Y320854D01*
X409269D01*
X409029Y321147D01*
Y328866D01*
X409415Y329072D01*
X409529Y329080D01*
X410078Y328971D01*
D02*
G37*
G36*
X353936Y354211D02*
X354432Y353880D01*
X355017Y353764D01*
X361586D01*
X361713Y353574D01*
Y352863D01*
X361985Y352206D01*
X362488Y351703D01*
X362507Y351695D01*
X362528Y351663D01*
X363342Y350849D01*
Y347075D01*
X368991D01*
X369182Y346613D01*
X368495Y345925D01*
X363342D01*
Y339988D01*
X370657D01*
Y343762D01*
X373740Y346844D01*
X374078Y346985D01*
X374581Y347487D01*
X374805Y347532D01*
X382419Y339919D01*
X382915Y339587D01*
X383500Y339471D01*
X387852D01*
X387913Y339410D01*
X388570Y339138D01*
X389281D01*
X389938Y339410D01*
X389998Y339471D01*
X391488D01*
Y332990D01*
X375597D01*
X375012Y332874D01*
X374516Y332542D01*
X361735Y319762D01*
X361239Y319827D01*
X361176Y319937D01*
X360437Y320676D01*
X359532Y321198D01*
X358523Y321468D01*
X357477D01*
X356468Y321198D01*
X355563Y320676D01*
X354824Y319937D01*
X354302Y319032D01*
X354031Y318022D01*
Y316978D01*
X354302Y315968D01*
X354824Y315063D01*
X355563Y314324D01*
X356468Y313802D01*
X357477Y313531D01*
X358523D01*
X359532Y313802D01*
X360437Y314324D01*
X360509Y314396D01*
X360971Y314205D01*
Y310795D01*
X360509Y310604D01*
X360437Y310676D01*
X359532Y311198D01*
X358523Y311469D01*
X357477D01*
X356468Y311198D01*
X355563Y310676D01*
X354824Y309937D01*
X354302Y309032D01*
X354031Y308022D01*
Y306978D01*
X354302Y305968D01*
X354824Y305063D01*
X355563Y304324D01*
X356468Y303802D01*
X357477Y303532D01*
X358523D01*
X359532Y303802D01*
X360437Y304324D01*
X360509Y304396D01*
X360971Y304205D01*
Y300795D01*
X360509Y300604D01*
X360437Y300676D01*
X359532Y301198D01*
X358523Y301468D01*
X357477D01*
X356468Y301198D01*
X355563Y300676D01*
X354824Y299937D01*
X354302Y299032D01*
X354031Y298023D01*
Y296977D01*
X354302Y295968D01*
X354824Y295063D01*
X355563Y294324D01*
X356468Y293802D01*
X357477Y293531D01*
X358523D01*
X359532Y293802D01*
X360437Y294324D01*
X360509Y294396D01*
X360971Y294205D01*
Y290795D01*
X360509Y290604D01*
X360437Y290676D01*
X359532Y291198D01*
X358523Y291469D01*
X357477D01*
X356468Y291198D01*
X355563Y290676D01*
X354824Y289937D01*
X354302Y289032D01*
X354031Y288022D01*
Y286978D01*
X354302Y285968D01*
X354824Y285063D01*
X355563Y284324D01*
X356468Y283802D01*
X357477Y283531D01*
X358523D01*
X359532Y283802D01*
X360437Y284324D01*
X360509Y284396D01*
X360971Y284205D01*
Y280795D01*
X360509Y280604D01*
X360437Y280676D01*
X359532Y281198D01*
X358523Y281469D01*
X357477D01*
X356468Y281198D01*
X355563Y280676D01*
X354824Y279937D01*
X354302Y279032D01*
X354031Y278023D01*
Y276977D01*
X354302Y275968D01*
X354824Y275063D01*
X355563Y274324D01*
X356468Y273802D01*
X357477Y273532D01*
X358523D01*
X359532Y273802D01*
X360437Y274324D01*
X360509Y274396D01*
X360971Y274205D01*
Y270795D01*
X360509Y270604D01*
X360437Y270676D01*
X359532Y271198D01*
X358523Y271468D01*
X357477D01*
X356468Y271198D01*
X355563Y270676D01*
X354824Y269937D01*
X354302Y269032D01*
X354031Y268022D01*
Y266978D01*
X354302Y265968D01*
X354824Y265063D01*
X355563Y264324D01*
X356468Y263802D01*
X357477Y263531D01*
X358523D01*
X359532Y263802D01*
X360437Y264324D01*
X360509Y264396D01*
X360971Y264205D01*
Y260795D01*
X360509Y260604D01*
X360437Y260676D01*
X359532Y261198D01*
X358523Y261469D01*
X357477D01*
X356468Y261198D01*
X355563Y260676D01*
X354824Y259937D01*
X354302Y259032D01*
X354031Y258022D01*
Y256978D01*
X354302Y255968D01*
X354824Y255063D01*
X355563Y254324D01*
X356468Y253802D01*
X357477Y253532D01*
X358523D01*
X359532Y253802D01*
X360437Y254324D01*
X360509Y254396D01*
X360971Y254205D01*
Y250795D01*
X360509Y250604D01*
X360437Y250676D01*
X359532Y251198D01*
X358523Y251468D01*
X357477D01*
X356468Y251198D01*
X355563Y250676D01*
X354824Y249937D01*
X354302Y249032D01*
X354031Y248023D01*
Y246977D01*
X354302Y245968D01*
X354824Y245063D01*
X355563Y244324D01*
X356468Y243802D01*
X357477Y243531D01*
X358523D01*
X359532Y243802D01*
X360437Y244324D01*
X360509Y244396D01*
X360971Y244205D01*
Y240795D01*
X360509Y240604D01*
X360437Y240676D01*
X359532Y241198D01*
X358523Y241469D01*
X358500D01*
Y237500D01*
Y233531D01*
X358523D01*
X359532Y233802D01*
X360437Y234324D01*
X360509Y234396D01*
X360971Y234205D01*
Y230795D01*
X360509Y230604D01*
X360437Y230676D01*
X359532Y231198D01*
X358523Y231469D01*
X357477D01*
X356468Y231198D01*
X355563Y230676D01*
X354824Y229937D01*
X354302Y229032D01*
X354031Y228023D01*
Y226977D01*
X354302Y225968D01*
X354824Y225063D01*
X355563Y224324D01*
X356468Y223802D01*
X357477Y223532D01*
X358523D01*
X359532Y223802D01*
X360437Y224324D01*
X360509Y224396D01*
X360971Y224205D01*
Y220795D01*
X360509Y220604D01*
X360437Y220676D01*
X359532Y221198D01*
X358523Y221468D01*
X357477D01*
X356468Y221198D01*
X355563Y220676D01*
X354824Y219937D01*
X354302Y219032D01*
X354031Y218022D01*
Y216978D01*
X354302Y215968D01*
X354824Y215063D01*
X355563Y214324D01*
X356468Y213802D01*
X357477Y213531D01*
X357709D01*
X358040Y213032D01*
X357971Y212681D01*
Y181500D01*
X358087Y180915D01*
X358419Y180419D01*
X361816Y177022D01*
X361547Y176020D01*
Y174980D01*
X361817Y173974D01*
X362337Y173073D01*
X363073Y172337D01*
X363974Y171817D01*
X364980Y171547D01*
X366020D01*
X367026Y171817D01*
X367927Y172337D01*
X368663Y173073D01*
X369183Y173974D01*
X369453Y174980D01*
Y176020D01*
X369183Y177026D01*
X368663Y177927D01*
X367927Y178663D01*
X367026Y179183D01*
X366020Y179453D01*
X364980D01*
X363978Y179184D01*
X361029Y182133D01*
Y187154D01*
X361478Y187340D01*
X361814Y187015D01*
X361547Y186020D01*
Y184980D01*
X361817Y183974D01*
X362337Y183073D01*
X363073Y182337D01*
X363974Y181817D01*
X364980Y181547D01*
X366020D01*
X367026Y181817D01*
X367927Y182337D01*
X368663Y183073D01*
X369183Y183974D01*
X369453Y184980D01*
Y186020D01*
X369183Y187026D01*
X368663Y187927D01*
X367927Y188663D01*
X367026Y189183D01*
X366020Y189453D01*
X364980D01*
X363978Y189184D01*
X362529Y190633D01*
Y192227D01*
X362991Y192419D01*
X363073Y192337D01*
X363974Y191817D01*
X364980Y191547D01*
X366020D01*
X367026Y191817D01*
X367927Y192337D01*
X368663Y193073D01*
X369183Y193974D01*
X369453Y194980D01*
Y196020D01*
X369183Y197026D01*
X368663Y197927D01*
X368704Y198514D01*
X371034Y200845D01*
X371366Y201341D01*
X371482Y201926D01*
Y209074D01*
X371366Y209659D01*
X371034Y210156D01*
X368529Y212660D01*
Y225366D01*
X371500D01*
Y229319D01*
Y233272D01*
X368529D01*
Y252154D01*
X368991Y252346D01*
X373433Y247904D01*
X373930Y247572D01*
X374429Y247473D01*
Y244547D01*
X375967D01*
Y235449D01*
X373790Y233272D01*
X372500D01*
Y229819D01*
X375953D01*
Y231109D01*
X378577Y233734D01*
X378909Y234230D01*
X379026Y234815D01*
Y244547D01*
X380471D01*
Y233000D01*
X379573Y232482D01*
X378837Y231746D01*
X378317Y230845D01*
X378047Y229839D01*
Y228799D01*
X378317Y227793D01*
X378837Y226892D01*
X379573Y226156D01*
X380474Y225636D01*
X381480Y225366D01*
X382520D01*
X383526Y225636D01*
X384427Y226156D01*
X385163Y226892D01*
X385683Y227793D01*
X385953Y228799D01*
Y229839D01*
X385683Y230845D01*
X385163Y231746D01*
X384427Y232482D01*
X383529Y233000D01*
Y254261D01*
X383545Y254272D01*
X384045Y254005D01*
Y235744D01*
X384162Y235159D01*
X384493Y234663D01*
X388316Y230840D01*
X388047Y229839D01*
Y228799D01*
X388317Y227793D01*
X388837Y226892D01*
X389573Y226156D01*
X390474Y225636D01*
X391480Y225366D01*
X392520D01*
X393526Y225636D01*
X394427Y226156D01*
X395163Y226892D01*
X395683Y227793D01*
X395953Y228799D01*
Y229839D01*
X395683Y230845D01*
X395163Y231746D01*
X394427Y232482D01*
X393526Y233002D01*
X392520Y233272D01*
X391480D01*
X390478Y233003D01*
X387104Y236378D01*
Y244547D01*
X390923D01*
X391071Y244518D01*
X391323D01*
X396287Y239554D01*
X396783Y239223D01*
X397368Y239106D01*
X404550D01*
X411547Y232109D01*
Y226366D01*
X419453D01*
Y233550D01*
X419915Y233741D01*
X421815Y231840D01*
X421547Y230839D01*
Y229799D01*
X421817Y228793D01*
X422337Y227892D01*
X423073Y227156D01*
X423974Y226636D01*
X424980Y226366D01*
X426020D01*
X427026Y226636D01*
X427927Y227156D01*
X428663Y227892D01*
X429183Y228793D01*
X429453Y229799D01*
Y230839D01*
X429183Y231845D01*
X428663Y232746D01*
X427927Y233482D01*
X427026Y234002D01*
X426020Y234272D01*
X424980D01*
X423978Y234003D01*
X408825Y249157D01*
X408329Y249488D01*
X407744Y249605D01*
X405994D01*
X392075Y263524D01*
Y265971D01*
X395342D01*
Y265913D01*
X398500D01*
Y268382D01*
X397505D01*
X397306Y268581D01*
X396810Y268913D01*
X396224Y269029D01*
X388299D01*
X387916Y269529D01*
X387951Y269665D01*
X388335D01*
Y275209D01*
X383185D01*
X383157Y275512D01*
X380000D01*
Y272543D01*
X379000D01*
Y275512D01*
X373000D01*
Y272543D01*
X372000D01*
Y275512D01*
X368843D01*
X368529Y275882D01*
Y313806D01*
X369029Y314032D01*
X369146Y313929D01*
Y311591D01*
Y305291D01*
X372610D01*
X372893Y304791D01*
X372713Y304356D01*
Y303644D01*
X372985Y302988D01*
X373487Y302485D01*
X374145Y302213D01*
X374855D01*
X375478Y302471D01*
X378079D01*
Y296843D01*
Y289843D01*
X383819D01*
Y289843D01*
X384181D01*
Y289843D01*
X385464D01*
X385742Y289427D01*
X385713Y289355D01*
Y288645D01*
X385586Y288455D01*
X378740D01*
X378155Y288338D01*
X377659Y288007D01*
X374006Y284354D01*
X369445D01*
Y276646D01*
X382862D01*
Y276646D01*
X382988Y276842D01*
X387451D01*
X390665Y273628D01*
Y269665D01*
X395342D01*
Y269531D01*
X402658D01*
Y269575D01*
X409158D01*
Y275512D01*
X406567D01*
X406233Y276012D01*
X406287Y276145D01*
Y276855D01*
X406015Y277513D01*
X405513Y278015D01*
X404855Y278287D01*
X404144D01*
X403487Y278015D01*
X402985Y277513D01*
X402713Y276855D01*
Y276145D01*
X402768Y276012D01*
X402433Y275512D01*
X401842D01*
Y275468D01*
X400529D01*
Y283522D01*
X400787Y284144D01*
Y284856D01*
X400736Y284980D01*
X401014Y285396D01*
X403042D01*
X403627Y285512D01*
X404124Y285844D01*
X407250Y288971D01*
X413158D01*
X413292Y288471D01*
X413073Y288344D01*
X412337Y287608D01*
X411817Y286707D01*
X411547Y285701D01*
Y284661D01*
X411817Y283655D01*
X412337Y282754D01*
X413073Y282018D01*
X413974Y281498D01*
X414980Y281228D01*
X416020D01*
X417026Y281498D01*
X417927Y282018D01*
X418663Y282754D01*
X419183Y283655D01*
X419453Y284661D01*
Y285701D01*
X419183Y286707D01*
X419036Y286963D01*
X419286Y287396D01*
X421217D01*
X421547Y287125D01*
Y281228D01*
X429453D01*
Y287632D01*
X429953Y287839D01*
X431502Y286290D01*
Y286149D01*
X431619Y285564D01*
X431950Y285068D01*
X435099Y281919D01*
X435595Y281587D01*
X436002Y281506D01*
X436095Y280983D01*
X435563Y280676D01*
X434824Y279937D01*
X434302Y279032D01*
X434031Y278023D01*
Y276977D01*
X434302Y275968D01*
X434824Y275063D01*
X435563Y274324D01*
X436468Y273802D01*
X437477Y273532D01*
X438522D01*
X439532Y273802D01*
X440437Y274324D01*
X441176Y275063D01*
X441698Y275968D01*
X441968Y276977D01*
Y278023D01*
X441698Y279032D01*
X441697Y279034D01*
X445009Y282346D01*
X445471Y282154D01*
Y168354D01*
X432543D01*
X432482Y168829D01*
Y176844D01*
X432366Y177430D01*
X432034Y177926D01*
X428779Y181181D01*
Y181752D01*
X428927Y181837D01*
X429663Y182573D01*
X430183Y183474D01*
X430453Y184480D01*
Y185520D01*
X430183Y186526D01*
X429663Y187427D01*
X428927Y188163D01*
X428026Y188683D01*
X427020Y188953D01*
X425980D01*
X424974Y188683D01*
X424073Y188163D01*
X423337Y187427D01*
X422817Y186526D01*
X422547Y185520D01*
Y184480D01*
X422817Y183474D01*
X423337Y182573D01*
X424073Y181837D01*
X424974Y181317D01*
X425721Y181117D01*
Y180547D01*
X425837Y179962D01*
X426168Y179466D01*
X426220Y179415D01*
X426028Y178953D01*
X425980D01*
X424974Y178683D01*
X424073Y178163D01*
X423337Y177427D01*
X422817Y176526D01*
X422547Y175520D01*
Y174480D01*
X422817Y173474D01*
X423017Y173126D01*
X422617Y172819D01*
X421529Y173907D01*
Y187866D01*
X424978Y191315D01*
X425980Y191047D01*
X427020D01*
X428026Y191317D01*
X428927Y191837D01*
X429663Y192573D01*
X430183Y193474D01*
X430453Y194480D01*
Y195520D01*
X430183Y196526D01*
X429663Y197427D01*
X428927Y198163D01*
X428026Y198683D01*
X427020Y198953D01*
X425980D01*
X424974Y198683D01*
X424073Y198163D01*
X423337Y197427D01*
X422817Y196526D01*
X422547Y195520D01*
Y194480D01*
X422816Y193478D01*
X418919Y189581D01*
X418587Y189085D01*
X418471Y188500D01*
Y173274D01*
X418473Y173262D01*
X418013Y173015D01*
X417355Y173287D01*
X416644D01*
X415987Y173015D01*
X415485Y172512D01*
X415213Y171855D01*
Y171144D01*
X415485Y170487D01*
X415987Y169985D01*
X416610Y169727D01*
X417021Y169316D01*
X416829Y168854D01*
X413850D01*
Y165000D01*
Y161146D01*
X414513D01*
X415595Y160064D01*
X415810Y159921D01*
X416683Y159048D01*
Y158303D01*
X416292Y157720D01*
X416138Y156945D01*
Y155270D01*
X418161D01*
Y154270D01*
X416138D01*
Y152594D01*
X416292Y151820D01*
X416731Y151163D01*
X417387Y150725D01*
X418161Y150571D01*
X418224Y150583D01*
X418470Y150122D01*
X417131Y148783D01*
X416799Y148287D01*
X416683Y147702D01*
Y142390D01*
X416177D01*
Y134071D01*
X420146D01*
Y134071D01*
X420220Y134131D01*
X420720Y134032D01*
X421495Y134186D01*
X422000Y134523D01*
X422505Y134186D01*
X423279Y134032D01*
X424054Y134186D01*
X424559Y134523D01*
X425064Y134186D01*
X425839Y134032D01*
X426613Y134186D01*
X427269Y134624D01*
X427708Y135281D01*
X427862Y136055D01*
Y140266D01*
X428971Y141376D01*
X429303Y141872D01*
X429419Y142457D01*
Y142892D01*
X429515Y142988D01*
X429787Y143644D01*
Y144355D01*
X429515Y145012D01*
X429012Y145515D01*
X428356Y145787D01*
X427644D01*
X426988Y145515D01*
X426485Y145012D01*
X426213Y144355D01*
Y143644D01*
X426361Y143287D01*
Y143091D01*
X425664Y142394D01*
X425470Y142356D01*
X425083Y142673D01*
Y142946D01*
X424967Y143532D01*
X424911Y143615D01*
X425117Y144113D01*
Y144824D01*
X424845Y145481D01*
X424342Y145984D01*
X423686Y146256D01*
X423392D01*
X423139Y146756D01*
X423296Y146971D01*
X433193D01*
Y146646D01*
X445471D01*
Y132029D01*
X350529D01*
Y356965D01*
X350991Y357156D01*
X353936Y354211D01*
D02*
G37*
G36*
X391447Y308006D02*
X391903Y307701D01*
X392442Y307594D01*
X394041D01*
X394342Y307534D01*
X394404D01*
Y307516D01*
X394421Y307429D01*
Y306614D01*
X393210Y305403D01*
X392878Y304907D01*
X392762Y304322D01*
Y303568D01*
X392647Y303290D01*
Y302579D01*
X392919Y301922D01*
X393422Y301419D01*
X394079Y301147D01*
X394790D01*
X395372Y301388D01*
X395872Y301191D01*
Y300594D01*
X395988Y300009D01*
X396320Y299513D01*
X404893Y290939D01*
X402409Y288455D01*
X389414D01*
X389287Y288645D01*
Y289355D01*
X389258Y289427D01*
X389536Y289843D01*
X389921D01*
Y296843D01*
Y298471D01*
X390421Y298805D01*
X390645Y298713D01*
X391355D01*
X392013Y298985D01*
X392515Y299487D01*
X392787Y300145D01*
Y300855D01*
X392515Y301513D01*
X392013Y302015D01*
X391355Y302287D01*
X390645D01*
X390421Y302195D01*
X389921Y302529D01*
Y304157D01*
X384181D01*
Y304157D01*
X383819D01*
Y304157D01*
X382529D01*
Y305193D01*
X384854D01*
X384854Y305193D01*
Y305193D01*
X385354Y305193D01*
X385562Y304985D01*
X386219Y304713D01*
X386930D01*
X387587Y304985D01*
X388090Y305487D01*
X388362Y306144D01*
Y306199D01*
X390405Y308243D01*
X391263D01*
X391286Y308247D01*
X391447Y308006D01*
D02*
G37*
G36*
X428471Y308655D02*
Y300816D01*
X428287Y300687D01*
X427787Y300945D01*
Y301356D01*
X427515Y302012D01*
X427012Y302515D01*
X426500Y302728D01*
Y301000D01*
X426000D01*
Y300500D01*
X424272D01*
X424485Y299988D01*
X424988Y299485D01*
X425644Y299213D01*
X426055D01*
X426314Y298713D01*
X426184Y298529D01*
X424000D01*
X423415Y298413D01*
X422919Y298081D01*
X419127Y294290D01*
X418504Y294032D01*
X418002Y293529D01*
X417992Y293506D01*
X417685Y293413D01*
X417100Y293529D01*
X406629D01*
X402935Y297224D01*
X403126Y297686D01*
X405715D01*
X406300Y297802D01*
X406797Y298134D01*
X410231Y301569D01*
X410382Y301419D01*
X410878Y301087D01*
X411463Y300971D01*
X420000D01*
X420585Y301087D01*
X421081Y301419D01*
X427581Y307919D01*
X427913Y308415D01*
X427971Y308704D01*
X428471Y308655D01*
D02*
G37*
G36*
X397264Y284980D02*
X397213Y284856D01*
Y284144D01*
X397471Y283522D01*
Y281979D01*
X396971Y281836D01*
X396855Y281913D01*
X396270Y282029D01*
X396012D01*
Y284157D01*
X390075D01*
Y279198D01*
X389613Y279007D01*
X388925Y279694D01*
Y284157D01*
X382988D01*
X382862Y284354D01*
Y284354D01*
X378986D01*
X378794Y284816D01*
X379374Y285396D01*
X396986D01*
X397264Y284980D01*
D02*
G37*
G36*
X380471Y254780D02*
Y252453D01*
X377996D01*
Y248500D01*
X376996D01*
Y252453D01*
X374429D01*
Y251887D01*
X373967Y251696D01*
X370029Y255633D01*
Y262488D01*
X372762D01*
X380471Y254780D01*
D02*
G37*
G36*
X404279Y246994D02*
X404775Y246662D01*
X405361Y246546D01*
X407110D01*
X418922Y234734D01*
X418731Y234272D01*
X413710D01*
X406264Y241717D01*
X405768Y242049D01*
X405183Y242165D01*
X398002D01*
X393038Y247129D01*
X392571Y247441D01*
Y252453D01*
X387104D01*
Y258882D01*
X386988Y259467D01*
X386656Y259963D01*
X386574Y260046D01*
X387015Y260488D01*
X387287Y261144D01*
Y261791D01*
X389482D01*
X404279Y246994D01*
D02*
G37*
G36*
X429423Y171680D02*
Y165641D01*
X425271Y161488D01*
X424809Y161679D01*
Y169994D01*
X424692Y170580D01*
X424361Y171076D01*
X424320Y171117D01*
X424626Y171517D01*
X424974Y171317D01*
X425980Y171047D01*
X427020D01*
X428026Y171317D01*
X428927Y171837D01*
X428961Y171871D01*
X429423Y171680D01*
D02*
G37*
G36*
X432543Y163788D02*
Y160646D01*
X432350Y160468D01*
X432350D01*
Y156518D01*
X428348Y152516D01*
X428221Y152536D01*
X427862Y152736D01*
Y156945D01*
X427708Y157720D01*
X427419Y158152D01*
Y159310D01*
X432034Y163926D01*
X432043Y163939D01*
X432543Y163788D01*
D02*
G37*
%LPC*%
G36*
X412323Y359255D02*
X411612D01*
X410955Y358982D01*
X410452Y358480D01*
X410194Y357857D01*
X404110Y351773D01*
X403487Y351515D01*
X402985Y351012D01*
X402713Y350356D01*
Y349644D01*
X402985Y348988D01*
X403487Y348485D01*
X404144Y348213D01*
X404855D01*
X405513Y348485D01*
X406015Y348988D01*
X406273Y349610D01*
X412357Y355694D01*
X412980Y355952D01*
X413482Y356455D01*
X413755Y357112D01*
Y357823D01*
X413482Y358480D01*
X412980Y358982D01*
X412323Y359255D01*
D02*
G37*
G36*
X433500Y305228D02*
Y304000D01*
X434728D01*
X434515Y304513D01*
X434013Y305015D01*
X433500Y305228D01*
D02*
G37*
G36*
X434728Y303000D02*
X433500D01*
Y301772D01*
X434013Y301985D01*
X434515Y302487D01*
X434728Y303000D01*
D02*
G37*
G36*
X358523Y351468D02*
X357477D01*
X356468Y351198D01*
X355563Y350676D01*
X354824Y349937D01*
X354302Y349032D01*
X354031Y348023D01*
Y346977D01*
X354302Y345968D01*
X354824Y345063D01*
X355563Y344324D01*
X356468Y343802D01*
X357477Y343531D01*
X358523D01*
X359532Y343802D01*
X360437Y344324D01*
X361176Y345063D01*
X361698Y345968D01*
X361968Y346977D01*
Y348023D01*
X361698Y349032D01*
X361176Y349937D01*
X360437Y350676D01*
X359532Y351198D01*
X358523Y351468D01*
D02*
G37*
G36*
Y341469D02*
X357477D01*
X356468Y341198D01*
X355563Y340676D01*
X354824Y339937D01*
X354302Y339032D01*
X354031Y338022D01*
Y336978D01*
X354302Y335968D01*
X354824Y335063D01*
X355563Y334324D01*
X356468Y333802D01*
X357477Y333531D01*
X358523D01*
X359532Y333802D01*
X360437Y334324D01*
X361176Y335063D01*
X361698Y335968D01*
X361968Y336978D01*
Y338022D01*
X361698Y339032D01*
X361176Y339937D01*
X360437Y340676D01*
X359532Y341198D01*
X358523Y341469D01*
D02*
G37*
G36*
Y331469D02*
X357477D01*
X356468Y331198D01*
X355563Y330676D01*
X354824Y329937D01*
X354302Y329032D01*
X354031Y328023D01*
Y326977D01*
X354302Y325968D01*
X354824Y325063D01*
X355563Y324324D01*
X356468Y323802D01*
X357477Y323532D01*
X358523D01*
X359532Y323802D01*
X360437Y324324D01*
X361176Y325063D01*
X361698Y325968D01*
X361968Y326977D01*
Y328023D01*
X361698Y329032D01*
X361176Y329937D01*
X360437Y330676D01*
X359532Y331198D01*
X358523Y331469D01*
D02*
G37*
G36*
X413500Y279228D02*
Y278000D01*
X414728D01*
X414515Y278513D01*
X414012Y279015D01*
X413500Y279228D01*
D02*
G37*
G36*
X412500D02*
X411987Y279015D01*
X411485Y278513D01*
X411272Y278000D01*
X412500D01*
Y279228D01*
D02*
G37*
G36*
X414728Y277000D02*
X413500D01*
Y275772D01*
X414012Y275985D01*
X414515Y276487D01*
X414728Y277000D01*
D02*
G37*
G36*
X412500D02*
X411272D01*
X411485Y276487D01*
X411987Y275985D01*
X412500Y275772D01*
Y277000D01*
D02*
G37*
G36*
X409158Y268425D02*
X406000D01*
Y265957D01*
X409158D01*
Y268425D01*
D02*
G37*
G36*
X438522Y271468D02*
X437477D01*
X436468Y271198D01*
X435563Y270676D01*
X434824Y269937D01*
X434302Y269032D01*
X434031Y268022D01*
Y266978D01*
X434302Y265968D01*
X434824Y265063D01*
X435563Y264324D01*
X436468Y263802D01*
X437477Y263531D01*
X438522D01*
X439532Y263802D01*
X440437Y264324D01*
X441176Y265063D01*
X441698Y265968D01*
X441968Y266978D01*
Y268022D01*
X441698Y269032D01*
X441176Y269937D01*
X440437Y270676D01*
X439532Y271198D01*
X438522Y271468D01*
D02*
G37*
G36*
X409158Y264957D02*
X406000D01*
Y262488D01*
X409158D01*
Y264957D01*
D02*
G37*
G36*
X405000Y268425D02*
X401842D01*
Y268382D01*
X399500D01*
Y265413D01*
Y262445D01*
X402658D01*
Y262488D01*
X405000D01*
Y265457D01*
Y268425D01*
D02*
G37*
G36*
X398500Y264913D02*
X395342D01*
Y262445D01*
X398500D01*
Y264913D01*
D02*
G37*
G36*
X429453Y263953D02*
X421547D01*
Y256047D01*
X429453D01*
Y263953D01*
D02*
G37*
G36*
X416020D02*
X414980D01*
X413974Y263683D01*
X413073Y263163D01*
X412337Y262427D01*
X411817Y261526D01*
X411547Y260520D01*
Y259480D01*
X411817Y258474D01*
X412337Y257573D01*
X413073Y256837D01*
X413974Y256317D01*
X414980Y256047D01*
X416020D01*
X417026Y256317D01*
X417927Y256837D01*
X418663Y257573D01*
X419183Y258474D01*
X419453Y259480D01*
Y260520D01*
X419183Y261526D01*
X418663Y262427D01*
X417927Y263163D01*
X417026Y263683D01*
X416020Y263953D01*
D02*
G37*
G36*
X438522Y261469D02*
X437477D01*
X436468Y261198D01*
X435563Y260676D01*
X434824Y259937D01*
X434302Y259032D01*
X434031Y258022D01*
Y256978D01*
X434302Y255968D01*
X434824Y255063D01*
X435563Y254324D01*
X436468Y253802D01*
X437477Y253532D01*
X438522D01*
X439532Y253802D01*
X440437Y254324D01*
X441176Y255063D01*
X441698Y255968D01*
X441968Y256978D01*
Y258022D01*
X441698Y259032D01*
X441176Y259937D01*
X440437Y260676D01*
X439532Y261198D01*
X438522Y261469D01*
D02*
G37*
G36*
Y251468D02*
X437477D01*
X436468Y251198D01*
X435563Y250676D01*
X434824Y249937D01*
X434302Y249032D01*
X434031Y248023D01*
Y246977D01*
X434302Y245968D01*
X434824Y245063D01*
X435563Y244324D01*
X436468Y243802D01*
X437477Y243531D01*
X438522D01*
X439532Y243802D01*
X440437Y244324D01*
X441176Y245063D01*
X441698Y245968D01*
X441968Y246977D01*
Y248023D01*
X441698Y249032D01*
X441176Y249937D01*
X440437Y250676D01*
X439532Y251198D01*
X438522Y251468D01*
D02*
G37*
G36*
X357500Y241469D02*
X357477D01*
X356468Y241198D01*
X355563Y240676D01*
X354824Y239937D01*
X354302Y239032D01*
X354031Y238022D01*
Y238000D01*
X357500D01*
Y241469D01*
D02*
G37*
G36*
X438522D02*
X437477D01*
X436468Y241198D01*
X435563Y240676D01*
X434824Y239937D01*
X434302Y239032D01*
X434031Y238022D01*
Y236978D01*
X434302Y235968D01*
X434824Y235063D01*
X435563Y234324D01*
X436468Y233802D01*
X437477Y233531D01*
X438522D01*
X439532Y233802D01*
X440437Y234324D01*
X441176Y235063D01*
X441698Y235968D01*
X441968Y236978D01*
Y238022D01*
X441698Y239032D01*
X441176Y239937D01*
X440437Y240676D01*
X439532Y241198D01*
X438522Y241469D01*
D02*
G37*
G36*
X357500Y237000D02*
X354031D01*
Y236978D01*
X354302Y235968D01*
X354824Y235063D01*
X355563Y234324D01*
X356468Y233802D01*
X357477Y233531D01*
X357500D01*
Y237000D01*
D02*
G37*
G36*
X402520Y233272D02*
X401480D01*
X400474Y233002D01*
X399573Y232482D01*
X398837Y231746D01*
X398317Y230845D01*
X398047Y229839D01*
Y228799D01*
X398317Y227793D01*
X398837Y226892D01*
X399573Y226156D01*
X400474Y225636D01*
X401480Y225366D01*
X402520D01*
X403526Y225636D01*
X404427Y226156D01*
X405163Y226892D01*
X405683Y227793D01*
X405953Y228799D01*
Y229839D01*
X405683Y230845D01*
X405163Y231746D01*
X404427Y232482D01*
X403526Y233002D01*
X402520Y233272D01*
D02*
G37*
G36*
X375953Y228819D02*
X372500D01*
Y225366D01*
X375953D01*
Y228819D01*
D02*
G37*
G36*
X438522Y231469D02*
X437477D01*
X436468Y231198D01*
X435563Y230676D01*
X434824Y229937D01*
X434302Y229032D01*
X434031Y228023D01*
Y226977D01*
X434302Y225968D01*
X434824Y225063D01*
X435563Y224324D01*
X436468Y223802D01*
X437477Y223532D01*
X438522D01*
X439532Y223802D01*
X440437Y224324D01*
X441176Y225063D01*
X441698Y225968D01*
X441968Y226977D01*
Y228023D01*
X441698Y229032D01*
X441176Y229937D01*
X440437Y230676D01*
X439532Y231198D01*
X438522Y231469D01*
D02*
G37*
G36*
Y221468D02*
X437477D01*
X436468Y221198D01*
X435563Y220676D01*
X434824Y219937D01*
X434302Y219032D01*
X434031Y218022D01*
Y216978D01*
X434302Y215968D01*
X434824Y215063D01*
X435563Y214324D01*
X436468Y213802D01*
X437477Y213531D01*
X438522D01*
X439532Y213802D01*
X440437Y214324D01*
X441176Y215063D01*
X441698Y215968D01*
X441968Y216978D01*
Y218022D01*
X441698Y219032D01*
X441176Y219937D01*
X440437Y220676D01*
X439532Y221198D01*
X438522Y221468D01*
D02*
G37*
G36*
X399453Y209453D02*
X396000D01*
Y206000D01*
X399453D01*
Y209453D01*
D02*
G37*
G36*
X395000D02*
X391547D01*
Y206000D01*
X395000D01*
Y209453D01*
D02*
G37*
G36*
X430453Y208953D02*
X427000D01*
Y205500D01*
X430453D01*
Y208953D01*
D02*
G37*
G36*
X426000D02*
X422547D01*
Y205500D01*
X426000D01*
Y208953D01*
D02*
G37*
G36*
X399453Y205000D02*
X396000D01*
Y201547D01*
X399453D01*
Y205000D01*
D02*
G37*
G36*
X395000D02*
X391547D01*
Y201547D01*
X395000D01*
Y205000D01*
D02*
G37*
G36*
X430453Y204500D02*
X427000D01*
Y201047D01*
X430453D01*
Y204500D01*
D02*
G37*
G36*
X426000D02*
X422547D01*
Y201047D01*
X426000D01*
Y204500D01*
D02*
G37*
G36*
X396020Y199453D02*
X394980D01*
X393974Y199183D01*
X393073Y198663D01*
X392337Y197927D01*
X391817Y197026D01*
X391547Y196020D01*
Y194980D01*
X391817Y193974D01*
X392337Y193073D01*
X393073Y192337D01*
X393974Y191817D01*
X394980Y191547D01*
X396020D01*
X397026Y191817D01*
X397927Y192337D01*
X398663Y193073D01*
X399183Y193974D01*
X399453Y194980D01*
Y196020D01*
X399183Y197026D01*
X398663Y197927D01*
X397927Y198663D01*
X397026Y199183D01*
X396020Y199453D01*
D02*
G37*
G36*
Y189453D02*
X394980D01*
X393974Y189183D01*
X393073Y188663D01*
X392337Y187927D01*
X391817Y187026D01*
X391547Y186020D01*
Y184980D01*
X391817Y183974D01*
X392337Y183073D01*
X393073Y182337D01*
X393974Y181817D01*
X394980Y181547D01*
X396020D01*
X397026Y181817D01*
X397927Y182337D01*
X398663Y183073D01*
X399183Y183974D01*
X399453Y184980D01*
Y186020D01*
X399183Y187026D01*
X398663Y187927D01*
X397927Y188663D01*
X397026Y189183D01*
X396020Y189453D01*
D02*
G37*
G36*
Y179453D02*
X394980D01*
X393974Y179183D01*
X393073Y178663D01*
X392337Y177927D01*
X391817Y177026D01*
X391547Y176020D01*
Y174980D01*
X391817Y173974D01*
X392337Y173073D01*
X393073Y172337D01*
X393974Y171817D01*
X394980Y171547D01*
X396020D01*
X397026Y171817D01*
X397927Y172337D01*
X398663Y173073D01*
X399183Y173974D01*
X399453Y174980D01*
Y176020D01*
X399183Y177026D01*
X398663Y177927D01*
X397927Y178663D01*
X397026Y179183D01*
X396020Y179453D01*
D02*
G37*
G36*
X412850Y168854D02*
X409791D01*
Y165500D01*
X412850D01*
Y168854D01*
D02*
G37*
G36*
Y164500D02*
X409791D01*
Y161146D01*
X412850D01*
Y164500D01*
D02*
G37*
G36*
X403914Y168529D02*
X368500D01*
X367915Y168413D01*
X367419Y168081D01*
X366419Y167081D01*
X366087Y166585D01*
X365971Y166000D01*
Y160000D01*
X364663D01*
X362432Y162231D01*
X361936Y162563D01*
X361350Y162679D01*
X359854D01*
Y164709D01*
X354978D01*
X354850Y164734D01*
X354722Y164709D01*
X352146D01*
Y157591D01*
Y151291D01*
X359854D01*
Y151291D01*
X360354Y151333D01*
X360645Y151213D01*
X361355D01*
X362013Y151485D01*
X362515Y151988D01*
X362787Y152645D01*
Y153356D01*
X362515Y154013D01*
X362013Y154515D01*
X361355Y154787D01*
X360645D01*
X360354Y154667D01*
X359854Y155001D01*
Y159620D01*
X360717D01*
X364000Y156337D01*
Y140185D01*
X363500Y140136D01*
X363340Y140940D01*
X362894Y142018D01*
X362245Y142988D01*
X361421Y143813D01*
X360451Y144461D01*
X359373Y144907D01*
X358229Y145134D01*
X357063D01*
X355919Y144907D01*
X354841Y144461D01*
X353871Y143813D01*
X353046Y142988D01*
X352398Y142018D01*
X351952Y140940D01*
X351725Y139796D01*
Y138630D01*
X351952Y137486D01*
X352398Y136408D01*
X353046Y135438D01*
X353871Y134614D01*
X354841Y133965D01*
X355919Y133519D01*
X357063Y133291D01*
X358229D01*
X359373Y133519D01*
X360451Y133965D01*
X361421Y134614D01*
X362245Y135438D01*
X362894Y136408D01*
X363340Y137486D01*
X363500Y138290D01*
X364000Y138241D01*
Y138000D01*
X373000D01*
Y160000D01*
X369029D01*
Y165366D01*
X369133Y165471D01*
X402971D01*
Y160000D01*
X401000D01*
Y148529D01*
X399978D01*
X399356Y148787D01*
X398644D01*
X397988Y148515D01*
X397485Y148012D01*
X397213Y147355D01*
Y146644D01*
X397485Y145987D01*
X397988Y145485D01*
X398644Y145213D01*
X399356D01*
X399978Y145471D01*
X401000D01*
Y138000D01*
X410000D01*
Y160000D01*
X406029D01*
Y166414D01*
X405913Y166999D01*
X405581Y167496D01*
X404996Y168081D01*
X404499Y168413D01*
X403914Y168529D01*
D02*
G37*
G36*
X385856Y159787D02*
X385144D01*
X384488Y159515D01*
X383985Y159012D01*
X383713Y158355D01*
Y157800D01*
X378200D01*
Y140200D01*
X395800D01*
Y157800D01*
X387287D01*
Y158355D01*
X387015Y159012D01*
X386512Y159515D01*
X385856Y159787D01*
D02*
G37*
G36*
X438938Y145134D02*
X437772D01*
X436628Y144907D01*
X435550Y144461D01*
X434580Y143813D01*
X433755Y142988D01*
X433107Y142018D01*
X432661Y140940D01*
X432434Y139796D01*
Y138630D01*
X432661Y137486D01*
X433107Y136408D01*
X433755Y135438D01*
X434580Y134614D01*
X435550Y133965D01*
X436628Y133519D01*
X437772Y133291D01*
X438938D01*
X440082Y133519D01*
X441160Y133965D01*
X442130Y134614D01*
X442954Y135438D01*
X443603Y136408D01*
X444049Y137486D01*
X444277Y138630D01*
Y139796D01*
X444049Y140940D01*
X443603Y142018D01*
X442954Y142988D01*
X442130Y143813D01*
X441160Y144461D01*
X440082Y144907D01*
X438938Y145134D01*
D02*
G37*
G36*
X425500Y302728D02*
X424988Y302515D01*
X424485Y302012D01*
X424272Y301500D01*
X425500D01*
Y302728D01*
D02*
G37*
%LPD*%
D12*
X430953Y165007D02*
Y176844D01*
X425889Y159943D02*
X430953Y165007D01*
X427890Y142457D02*
Y143890D01*
X428000Y144000D01*
X425839Y138230D02*
Y140406D01*
X427890Y142457D01*
X420000Y173274D02*
X423279Y169994D01*
Y154770D02*
Y169994D01*
X434850Y148500D02*
X436850Y150500D01*
X422500Y148500D02*
X434850D01*
X420771Y146771D02*
X422500Y148500D01*
X418212Y147702D02*
X421010Y150500D01*
X428495D02*
X433527Y155532D01*
X421010Y150500D02*
X428495D01*
X425889Y157768D02*
Y159943D01*
X413350Y165000D02*
X415410Y162941D01*
X416748Y161146D02*
X418212Y159681D01*
X416676Y161146D02*
X416748D01*
X415410Y162413D02*
X416676Y161146D01*
X418212Y157768D02*
Y159681D01*
X415410Y162413D02*
Y162941D01*
X418212Y141229D02*
Y147702D01*
X420771Y141229D02*
Y146771D01*
X436850Y149000D02*
X438665Y150815D01*
X423330Y143170D02*
Y144469D01*
Y143170D02*
X423554Y142946D01*
Y138577D02*
Y141154D01*
Y142946D01*
X423500Y138523D02*
Y141154D01*
Y138523D02*
X423554Y138577D01*
X356000Y161150D02*
X356906D01*
X417150Y317000D02*
Y335483D01*
X415000Y330500D02*
X416983Y332483D01*
X407617Y332961D02*
X410078Y330500D01*
X415000D01*
X403539Y332961D02*
X407617D01*
X400000Y336500D02*
X403539Y332961D01*
X399845Y336500D02*
X400062Y336717D01*
X395394Y336500D02*
X399845D01*
X400062Y336717D02*
X400217D01*
X383500Y341000D02*
X388850D01*
X388925Y340925D01*
X387967Y345533D02*
X390434Y348000D01*
X395500D01*
X395533Y356033D02*
X407685Y368185D01*
X404500Y350000D02*
X411967Y357467D01*
X381000Y367500D02*
X390406D01*
X395500Y372594D01*
X398843Y369843D02*
Y378729D01*
X384500Y355500D02*
X398843Y369843D01*
Y378729D02*
X399024Y378909D01*
X412000Y369500D02*
Y379681D01*
X366000Y393000D02*
X366156D01*
X367293Y391862D02*
X372016D01*
X366156Y393000D02*
X367293Y391862D01*
X364000Y388500D02*
X367500Y385000D01*
X390511D01*
X398597Y393086D01*
X428419Y387925D02*
X428844Y387500D01*
X423787Y387925D02*
X428419D01*
X428844Y387500D02*
X429000D01*
X430028Y345472D02*
Y375972D01*
X420617Y383185D02*
X422815D01*
X430028Y375972D01*
X397000Y384500D02*
X419302D01*
X420617Y383185D01*
X394693Y382193D02*
X397000Y384500D01*
X372956Y348223D02*
Y348390D01*
X367000Y342957D02*
X367689D01*
X372956Y348223D01*
Y348390D02*
X373066Y348500D01*
X353213Y388500D02*
X364000D01*
X353299Y369000D02*
Y371646D01*
X355153Y373500D01*
X366311Y350043D02*
X367000D01*
X363610Y352744D02*
X366311Y350043D01*
X363610Y352744D02*
Y353108D01*
X363500Y353218D02*
X363610Y353108D01*
X407685Y368185D02*
Y378909D01*
X395500Y348000D02*
X416347Y368847D01*
X433675Y393086D02*
X439197Y387563D01*
X398597Y393086D02*
X433675D01*
X361437Y385000D02*
X362000Y384437D01*
Y373654D02*
Y380500D01*
X361846Y373500D02*
X362000Y373654D01*
X355405Y161150D02*
X361350D01*
X354850Y163205D02*
X356906Y161150D01*
X361350D02*
X367500Y155000D01*
X357850Y153000D02*
X361000D01*
X356000Y154850D02*
X357850Y153000D01*
X367500Y155000D02*
Y166000D01*
Y148500D02*
Y155000D01*
X417000Y171500D02*
X419650Y168850D01*
Y165000D02*
Y168850D01*
X434335Y156016D02*
Y157984D01*
X433527Y155532D02*
X433850D01*
X403000Y147000D02*
X404500Y148500D01*
X399000Y147000D02*
X403000D01*
X404500Y148500D02*
Y166414D01*
X433850Y155532D02*
X434335Y156016D01*
X444000Y151350D02*
Y164000D01*
X442500Y164500D02*
X444000Y163000D01*
X420000Y173274D02*
Y188500D01*
X397811Y265457D02*
X405000D01*
X379500Y272543D02*
X379689D01*
X372500D02*
X379500D01*
X371811D02*
X372500D01*
X412000Y379681D02*
X412016Y379697D01*
X395047Y336154D02*
X395394Y336500D01*
X375597Y331461D02*
X406461D01*
X407500Y321147D02*
Y330422D01*
X406461Y331461D02*
X407500Y330422D01*
X362500Y318364D02*
X375597Y331461D01*
X402473Y329961D02*
X404575Y327859D01*
Y325098D02*
Y327859D01*
X399650Y327000D02*
X402500D01*
X376218Y329961D02*
X402473D01*
X398150Y325500D02*
X399650Y327000D01*
X393043Y280500D02*
X396270D01*
X396770Y280000D01*
X396925D01*
X384732Y267500D02*
X396224D01*
X397811Y265913D01*
X379689Y272543D02*
X384732Y267500D01*
X386000Y269575D02*
Y272197D01*
X397811Y265457D02*
Y265913D01*
X385760Y272437D02*
X386000Y272197D01*
X385957Y280500D02*
X392937Y273520D01*
X417100Y292000D02*
X418674Y290425D01*
X397401Y300594D02*
X405996Y292000D01*
X417100D01*
X406617Y290500D02*
X416478D01*
X403042Y286925D02*
X406617Y290500D01*
X416478D02*
X418053Y288925D01*
X397401Y300594D02*
Y306626D01*
X418053Y288925D02*
X421217D01*
X418674Y290425D02*
X420596D01*
X419517Y292517D02*
X424000Y297000D01*
X378740Y286925D02*
X403042D01*
X430321Y289634D02*
X433032Y286923D01*
X424000Y297000D02*
X427000D01*
X421926Y289634D02*
X430321D01*
X421217Y288925D02*
X421926Y289634D01*
X434366Y291134D02*
X438000Y287500D01*
X420596Y290425D02*
X421305Y291134D01*
X434366D01*
X429414Y321000D02*
X430000Y320414D01*
X427000Y297000D02*
X430000Y300000D01*
X426566Y321000D02*
X429414D01*
X430000Y300000D02*
Y320414D01*
X423000Y317156D02*
X424425Y318581D01*
X423000Y317000D02*
Y317156D01*
X424425Y318581D02*
Y318859D01*
X426566Y321000D01*
X426500Y309000D02*
Y318000D01*
X381000Y293500D02*
Y308653D01*
X374500Y304000D02*
X380949D01*
Y300500D02*
Y304000D01*
X373000Y308653D02*
X381000D01*
X380949Y293500D02*
X381000D01*
X373000Y308653D02*
Y308850D01*
X423000Y317000D02*
X424500Y315500D01*
Y309121D02*
Y315500D01*
X417150Y307500D02*
X422879D01*
X424500Y309121D01*
X399000Y314500D02*
X400000Y313500D01*
X399000Y314496D02*
X399002Y314498D01*
X396630Y312130D02*
X399000Y314500D01*
X400000Y313000D02*
Y313500D01*
X400500Y313000D02*
X401323Y312177D01*
X400000Y313000D02*
X400500D01*
X398976Y312150D02*
X400551Y313724D01*
X395933Y307516D02*
Y309433D01*
X398813Y312313D01*
X394342Y309064D02*
X395890D01*
X420000Y188500D02*
X426500Y195000D01*
X427250Y180547D02*
X430953Y176844D01*
X427250Y180547D02*
Y184250D01*
X426500Y185000D02*
X427250Y184250D01*
X399000Y272500D02*
Y284500D01*
X404500Y273543D02*
Y276500D01*
Y273543D02*
X405500Y272543D01*
X365500Y205500D02*
Y317121D01*
X370463Y322085D01*
X362500Y215681D02*
Y318364D01*
X367000Y212027D02*
X369953Y209074D01*
X370463Y322085D02*
X386859D01*
X364000Y317743D02*
X376218Y329961D01*
X364000Y215059D02*
Y317743D01*
X367000Y212027D02*
Y316500D01*
X370500Y320000D02*
X383076D01*
X367000Y316500D02*
X370500Y320000D01*
X369953Y201926D02*
Y209074D01*
X359500Y212681D02*
X362500Y215681D01*
X382000Y255413D02*
X383500Y256913D01*
Y257000D01*
X379000Y265457D02*
X382978Y261478D01*
X383000Y261500D01*
X385500D01*
X382978Y261478D02*
X385575Y258882D01*
Y235744D02*
Y258882D01*
X372000Y265413D02*
X382000Y255413D01*
X385575Y235744D02*
X392000Y229319D01*
X401500Y302000D02*
X405449D01*
X406035Y302586D01*
Y303414D01*
X405715Y299215D02*
X410231Y303731D01*
X402163Y299215D02*
X405715D01*
X372000Y229319D02*
X377496Y234815D01*
Y248500D01*
X374515Y248985D02*
X377011D01*
X368500Y255000D02*
X374515Y248985D01*
X377011D02*
X377496Y248500D01*
X368500Y255000D02*
Y269232D01*
X371811Y272543D01*
X361000Y212059D02*
X364000Y215059D01*
X382000Y229319D02*
Y255413D01*
X389504Y247614D02*
X391071Y246047D01*
X391957D02*
X397368Y240636D01*
X391071Y246047D02*
X391957D01*
X397368Y240636D02*
X405183D01*
X389504Y247614D02*
Y248500D01*
X405361Y248075D02*
X407744D01*
X388543Y264893D02*
X405361Y248075D01*
X388543Y264893D02*
Y265717D01*
X407744Y248075D02*
X425500Y230319D01*
X405183Y240636D02*
X415500Y230319D01*
X379500Y280500D02*
X385957D01*
X438000Y347500D02*
X443000Y342500D01*
Y286086D02*
Y342500D01*
X439914Y283000D02*
X443000Y286086D01*
X436181Y283000D02*
X439914D01*
X433032Y286149D02*
Y286923D01*
Y286149D02*
X436181Y283000D01*
X372807Y280992D02*
X378740Y286925D01*
X372807Y280500D02*
Y280992D01*
X388925Y341000D02*
X425345D01*
X426344Y340000D02*
X426500D01*
X425345Y341000D02*
X426344Y340000D01*
X416347Y368847D02*
Y378909D01*
X430028Y345472D02*
X438000Y337500D01*
X394693Y377335D02*
Y382193D01*
X403354Y379697D02*
Y381075D01*
X369207Y355293D02*
X383500Y341000D01*
X440406Y386000D02*
X443480D01*
X439197Y387208D02*
X440406Y386000D01*
X439197Y387208D02*
Y387563D01*
X439500Y383500D02*
X439610Y383390D01*
X442500Y380000D02*
Y380689D01*
X439799Y383390D02*
X442500Y380689D01*
X439610Y383390D02*
X439799D01*
X439740Y390915D02*
Y393874D01*
Y390915D02*
X440000Y390655D01*
Y390500D02*
Y390655D01*
X441032Y381469D02*
X442500Y380000D01*
X439740Y393874D02*
X440815Y392799D01*
X442346Y368713D02*
Y372500D01*
Y368713D02*
X445500Y365559D01*
X436000Y372847D02*
Y386000D01*
X435653Y372500D02*
X436000Y372847D01*
X352972Y388740D02*
X353213Y388500D01*
X356039Y379664D02*
Y382855D01*
X352972Y385922D02*
X356039Y382855D01*
X352972Y385922D02*
Y388740D01*
X355153Y373500D02*
Y378779D01*
X356039Y379664D01*
X391850Y325500D02*
Y327737D01*
X392000Y327886D01*
X352166Y381260D02*
X353563D01*
X351224Y379118D02*
X351485Y379378D01*
X351224Y359086D02*
Y379118D01*
X351485Y379378D02*
Y380579D01*
X352166Y381260D01*
X362000Y380500D02*
Y384437D01*
X351224Y359086D02*
X355017Y355293D01*
X369207D01*
X438000Y277500D02*
X445500Y285000D01*
Y365559D01*
X385500Y149000D02*
X386000Y148500D01*
X385500Y149000D02*
Y158000D01*
X368500Y167000D02*
X403914D01*
X404500Y166414D01*
X367500Y166000D02*
X368500Y167000D01*
X411581Y166770D02*
X413350Y165000D01*
X443150Y150500D02*
X444000Y151350D01*
X438665Y150815D02*
Y157000D01*
X436201Y159850D02*
Y164500D01*
X434335Y157984D02*
X436201Y159850D01*
X383076Y320000D02*
X385260Y317815D01*
X400551Y321074D02*
X404575Y325098D01*
X370575Y315347D02*
X381000D01*
X404500Y318147D02*
X407500Y321147D01*
X400551Y317673D02*
Y321074D01*
X404500Y315299D02*
Y318147D01*
X381000Y315347D02*
X381153Y315500D01*
X385500D01*
X411463Y302500D02*
X420000D01*
X410231Y303731D02*
X411463Y302500D01*
X420000D02*
X426500Y309000D01*
X387051Y300500D02*
X391000D01*
X394291Y304322D02*
X395706Y305736D01*
X394291Y303233D02*
Y304322D01*
X394434Y302934D02*
Y303090D01*
X394291Y303233D02*
X394434Y303090D01*
X386156Y320010D02*
X386850Y319315D01*
X387444Y321500D02*
X394961D01*
X386859Y322085D02*
X387444Y321500D01*
X385260Y317815D02*
X390168D01*
X386850Y319315D02*
X394185D01*
X392563Y313833D02*
X392671Y313724D01*
X390168Y317815D02*
X392563Y315420D01*
X395706Y317794D02*
Y318563D01*
X390407Y313833D02*
X392563D01*
X386000Y320010D02*
X386156D01*
X388500Y315740D02*
X390407Y313833D01*
X395706Y317794D02*
X395827Y317673D01*
X392671Y313724D02*
X393453D01*
X394185Y319315D02*
X394937Y318563D01*
X395706D01*
X394961Y321500D02*
X397280Y319181D01*
Y318563D02*
Y319181D01*
X398855Y318563D02*
X398976Y318442D01*
X398855Y318563D02*
Y320440D01*
X398976Y317673D02*
Y318442D01*
X398150Y321146D02*
X398855Y320440D01*
X361000Y190000D02*
X365500Y185500D01*
X361000Y190000D02*
Y212059D01*
X402247Y317794D02*
Y319680D01*
X402668Y320101D01*
Y320257D01*
X367000Y198973D02*
X369953Y201926D01*
X367000Y198327D02*
Y198973D01*
X365500Y196827D02*
X367000Y198327D01*
X365500Y195500D02*
Y196827D01*
X359500Y181500D02*
Y212681D01*
Y181500D02*
X365500Y175500D01*
X387051Y293500D02*
X387500Y293051D01*
Y289000D02*
Y293051D01*
X386575Y306575D02*
X389772Y309772D01*
X386575Y306500D02*
Y306575D01*
X402126Y317673D02*
X402247Y317794D01*
X389027Y312150D02*
X393453D01*
X385876Y308998D02*
X389027Y312150D01*
X389772Y309772D02*
X391263D01*
X391870Y310379D01*
X417150Y317000D02*
X423000D01*
X400551Y313724D02*
X404500D01*
Y312150D02*
X405269D01*
X405390Y312271D02*
X406121D01*
X405269Y312150D02*
X405390Y312271D01*
X408791Y314646D02*
X410850Y316705D01*
Y317000D01*
X406121Y312271D02*
X408496Y314646D01*
X408791D01*
X407098Y310575D02*
X408523Y312000D01*
X421500D01*
X404500Y310575D02*
X407098D01*
X405269Y309000D02*
X406769Y307500D01*
X404500Y309000D02*
X405269D01*
X406769Y307500D02*
X410850D01*
X410231Y306881D02*
X410850Y307500D01*
X410231Y303731D02*
Y306881D01*
X402833Y304000D02*
X405449D01*
X406035Y303414D01*
X402247Y304586D02*
Y306505D01*
Y304586D02*
X402833Y304000D01*
X402126Y306626D02*
X402247Y306505D01*
X400551Y302949D02*
X401500Y302000D01*
X400551Y302949D02*
Y306626D01*
X398976Y302402D02*
X402163Y299215D01*
X398976Y302402D02*
Y306626D01*
X391873Y310379D02*
X391948Y310454D01*
X392563D01*
X391870Y310379D02*
X391873D01*
X398150Y321146D02*
Y325500D01*
D18*
X418161Y154770D02*
D03*
X420720D02*
D03*
X423279D02*
D03*
X425839D02*
D03*
Y138230D02*
D03*
X423279D02*
D03*
X420720D02*
D03*
D19*
X418161D02*
D03*
D20*
X398976Y312150D02*
D03*
D21*
X393453Y315299D02*
D03*
D22*
Y313724D02*
D03*
Y312150D02*
D03*
Y310575D02*
D03*
Y309000D02*
D03*
X404500D02*
D03*
Y310575D02*
D03*
Y312150D02*
D03*
Y313724D02*
D03*
Y315299D02*
D03*
D23*
X395827Y306626D02*
D03*
X397401D02*
D03*
X398976D02*
D03*
X400551D02*
D03*
X402126D02*
D03*
Y317673D02*
D03*
X400551D02*
D03*
X398976D02*
D03*
X397401D02*
D03*
X395827D02*
D03*
D24*
X387000Y149000D02*
D03*
D25*
X405500D02*
D03*
X368500D02*
D03*
D31*
X434335Y157500D02*
D03*
X438665D02*
D03*
D44*
X390362Y378909D02*
D03*
X394693Y377335D02*
D03*
X399024Y378909D02*
D03*
X403354Y379697D02*
D03*
X407685Y378909D02*
D03*
X412016Y379697D02*
D03*
X416347Y378909D02*
D03*
X420677D02*
D03*
D45*
X372016Y391862D02*
D03*
X423787Y387925D02*
D03*
D46*
X395047Y336154D02*
D03*
X417488D02*
D03*
D47*
X412016Y335268D02*
D03*
D48*
X367000Y350043D02*
D03*
Y342957D02*
D03*
X399000Y272500D02*
D03*
Y265413D02*
D03*
X405500Y272543D02*
D03*
Y265457D02*
D03*
X379500Y265457D02*
D03*
Y272543D02*
D03*
X372500Y265457D02*
D03*
Y272543D02*
D03*
D49*
X355153Y373500D02*
D03*
X361846D02*
D03*
X442346Y372500D02*
D03*
X435653D02*
D03*
X379500Y280500D02*
D03*
X372807D02*
D03*
D50*
X436000Y386000D02*
D03*
X443480D02*
D03*
X439740Y393874D02*
D03*
X393240Y272437D02*
D03*
X385760D02*
D03*
X389500Y264563D02*
D03*
D51*
X435413Y380000D02*
D03*
X442500D02*
D03*
X385957Y280500D02*
D03*
X393043D02*
D03*
D52*
X362028Y385000D02*
D03*
X352972Y381260D02*
D03*
Y388740D02*
D03*
D53*
X377496Y248500D02*
D03*
X389504D02*
D03*
D54*
X413350Y165000D02*
D03*
X419650D02*
D03*
X410850Y307500D02*
D03*
X417150D02*
D03*
X410850Y317000D02*
D03*
X417150D02*
D03*
X391850Y325500D02*
D03*
X398150D02*
D03*
D55*
X436201Y164500D02*
D03*
X442500D02*
D03*
X436850Y150500D02*
D03*
X443150D02*
D03*
D56*
X356000Y161150D02*
D03*
Y154850D02*
D03*
X373000Y308850D02*
D03*
Y315150D02*
D03*
D57*
X387051Y293500D02*
D03*
X380949D02*
D03*
X387051Y300500D02*
D03*
X380949D02*
D03*
D58*
X381000Y315347D02*
D03*
Y308653D02*
D03*
D59*
X438000Y277500D02*
D03*
Y347500D02*
D03*
Y337500D02*
D03*
Y327500D02*
D03*
Y317500D02*
D03*
Y307500D02*
D03*
Y297500D02*
D03*
Y287500D02*
D03*
Y267500D02*
D03*
Y257500D02*
D03*
Y247500D02*
D03*
Y237500D02*
D03*
Y227500D02*
D03*
Y217500D02*
D03*
X358000D02*
D03*
Y227500D02*
D03*
Y237500D02*
D03*
Y247500D02*
D03*
Y257500D02*
D03*
Y267500D02*
D03*
Y277500D02*
D03*
Y287500D02*
D03*
Y297500D02*
D03*
Y307500D02*
D03*
Y317500D02*
D03*
Y327500D02*
D03*
Y337500D02*
D03*
Y347500D02*
D03*
D60*
X438355Y363623D02*
D03*
X357646D02*
D03*
Y139213D02*
D03*
X438355D02*
D03*
D61*
X365500Y175500D02*
D03*
Y185500D02*
D03*
Y195500D02*
D03*
X415500Y285181D02*
D03*
X402000Y229319D02*
D03*
X392000D02*
D03*
X382000D02*
D03*
X415500Y260000D02*
D03*
X425500Y230319D02*
D03*
X426500Y195000D02*
D03*
Y185000D02*
D03*
Y175000D02*
D03*
X395500Y195500D02*
D03*
Y185500D02*
D03*
Y175500D02*
D03*
D62*
X365500Y205500D02*
D03*
X426500Y205000D02*
D03*
X395500Y205500D02*
D03*
D63*
X425500Y285181D02*
D03*
X372000Y229319D02*
D03*
X425500Y260000D02*
D03*
X415500Y230319D02*
D03*
D64*
X428000Y144000D02*
D03*
X423330Y144469D02*
D03*
X400217Y336717D02*
D03*
X388925Y340925D02*
D03*
X387967Y345533D02*
D03*
X395533Y356033D02*
D03*
X404500Y350000D02*
D03*
X395500Y372594D02*
D03*
X411967Y357467D02*
D03*
X381000Y367500D02*
D03*
X412000Y369500D02*
D03*
X366000Y393000D02*
D03*
X429000Y387500D02*
D03*
X373066Y348500D02*
D03*
X353299Y369000D02*
D03*
X363500Y353218D02*
D03*
X362000Y380500D02*
D03*
X361000Y153000D02*
D03*
X417000Y171500D02*
D03*
X399000Y147000D02*
D03*
X433000Y303500D02*
D03*
X402500Y327000D02*
D03*
X396925Y280000D02*
D03*
X386000Y269575D02*
D03*
X419517Y292517D02*
D03*
X426000Y301000D02*
D03*
X426500Y318000D02*
D03*
X374500Y304000D02*
D03*
X399004Y309803D02*
D03*
X399000Y314496D02*
D03*
X401323Y312177D02*
D03*
X398976Y312150D02*
D03*
X396630Y312130D02*
D03*
X413000Y277500D02*
D03*
X399000Y284500D02*
D03*
X404500Y276500D02*
D03*
X383500Y257000D02*
D03*
X405965Y303000D02*
D03*
X385500Y261500D02*
D03*
X384500Y355500D02*
D03*
X439500Y383500D02*
D03*
X440000Y390500D02*
D03*
X392000Y327886D02*
D03*
X426500Y340000D02*
D03*
X385500Y158000D02*
D03*
X444000Y155500D02*
D03*
X370575Y315347D02*
D03*
X385500Y315500D02*
D03*
X391000Y300500D02*
D03*
X394434Y302934D02*
D03*
X388500Y315740D02*
D03*
X386000Y320010D02*
D03*
X402668Y320257D02*
D03*
X387500Y289000D02*
D03*
X386575Y306500D02*
D03*
X385876Y308998D02*
D03*
X423000Y317000D02*
D03*
X421500Y312000D02*
D03*
M02*
