G04*
G04 #@! TF.GenerationSoftware,Altium Limited,Altium Designer,21.3.2 (30)*
G04*
G04 Layer_Color=65535*
%FSLAX25Y25*%
%MOIN*%
G70*
G04*
G04 #@! TF.SameCoordinates,7BD383CF-8327-4B0E-94BA-ADA198AFF3E9*
G04*
G04*
G04 #@! TF.FilePolarity,Positive*
G04*
G01*
G75*
%ADD10C,0.01181*%
%ADD11C,0.00500*%
%ADD12C,0.01000*%
D10*
X576567Y164220D02*
X575976Y164811D01*
X575386Y164220D01*
X575976Y163630D01*
X576567Y164220D01*
X576555Y235221D02*
X575965Y235811D01*
X575374Y235221D01*
X575965Y234630D01*
X576555Y235221D01*
X576067Y201720D02*
X575476Y202311D01*
X574886Y201720D01*
X575476Y201130D01*
X576067Y201720D01*
D11*
X586650Y149807D02*
X605862D01*
X586650Y168193D02*
X605862D01*
X586638Y220807D02*
X605850D01*
X586638Y239193D02*
X605850D01*
X586150Y187307D02*
X605362D01*
X586150Y205693D02*
X605362D01*
D12*
X575300Y209800D02*
Y215798D01*
X578299D01*
X579299Y214798D01*
Y212799D01*
X578299Y211799D01*
X575300D01*
X581298Y214798D02*
X582298Y215798D01*
X584297D01*
X585297Y214798D01*
Y213799D01*
X584297Y212799D01*
X583297D01*
X584297D01*
X585297Y211799D01*
Y210800D01*
X584297Y209800D01*
X582298D01*
X581298Y210800D01*
X575800Y243300D02*
Y249298D01*
X578799D01*
X579799Y248298D01*
Y246299D01*
X578799Y245299D01*
X575800D01*
X585797Y243300D02*
X581798D01*
X585797Y247299D01*
Y248298D01*
X584797Y249298D01*
X582798D01*
X581798Y248298D01*
X575800Y172300D02*
Y178298D01*
X578799D01*
X579799Y177298D01*
Y175299D01*
X578799Y174299D01*
X575800D01*
X581798Y172300D02*
X583797D01*
X582798D01*
Y178298D01*
X581798Y177298D01*
M02*
