G04*
G04 #@! TF.GenerationSoftware,Altium Limited,Altium Designer,21.3.2 (30)*
G04*
G04 Layer_Color=65535*
%FSLAX25Y25*%
%MOIN*%
G70*
G04*
G04 #@! TF.SameCoordinates,E8A29BF3-3805-44CD-BFD4-AABEC62B8219*
G04*
G04*
G04 #@! TF.FilePolarity,Positive*
G04*
G01*
G75*
%ADD10C,0.00984*%
%ADD11C,0.00787*%
%ADD12C,0.01000*%
%ADD13C,0.00799*%
D10*
X418653Y133102D02*
X417915Y133528D01*
Y132676D01*
X418653Y133102D01*
X390980Y315299D02*
X390242Y315725D01*
Y314873D01*
X390980Y315299D01*
X368374Y378909D02*
X367636Y379336D01*
Y378483D01*
X368374Y378909D01*
X432752Y386000D02*
X432014Y386426D01*
Y385574D01*
X432752Y386000D01*
X353465Y392087D02*
X352726Y392513D01*
Y391660D01*
X353465Y392087D01*
X380559Y205500D02*
X379821Y205926D01*
Y205074D01*
X380559Y205500D01*
X425992Y270614D02*
X425254Y271040D01*
Y270188D01*
X425992Y270614D01*
X372492Y243886D02*
X371754Y244312D01*
Y243460D01*
X372492Y243886D01*
X425992Y245433D02*
X425254Y245859D01*
Y245007D01*
X425992Y245433D01*
X373756Y248500D02*
X373018Y248926D01*
Y248074D01*
X373756Y248500D01*
X415992Y244886D02*
X415254Y245312D01*
Y244460D01*
X415992Y244886D01*
X441559Y205000D02*
X440821Y205426D01*
Y204574D01*
X441559Y205000D01*
X397472Y272437D02*
X396734Y272863D01*
Y272011D01*
X397472Y272437D01*
X410559Y205500D02*
X409821Y205926D01*
Y205074D01*
X410559Y205500D01*
D11*
X416094Y143359D02*
X427906D01*
Y149641D01*
X416094D02*
X427906D01*
X416094Y143359D02*
Y149641D01*
X403701Y306244D02*
X404882D01*
Y307425D01*
X403701Y318055D02*
X404882D01*
Y316874D02*
Y318055D01*
X393071Y306244D02*
X394252D01*
X393071D02*
Y307425D01*
Y318055D02*
X394252D01*
X393071Y316874D02*
Y318055D01*
X391669Y319457D02*
X406284D01*
Y304842D02*
Y319457D01*
X391669Y304842D02*
X406284D01*
X391669D02*
Y319457D01*
X370441Y334579D02*
Y386547D01*
Y334579D02*
X390913D01*
X425559D02*
Y382610D01*
X376346Y394421D02*
X425559D01*
X421622Y334579D02*
X425559D01*
Y393240D02*
Y394421D01*
X399181Y334579D02*
X408472D01*
X370995Y132995D02*
X403005D01*
X370995Y160476D02*
Y165005D01*
Y132995D02*
Y137524D01*
Y165005D02*
X403005D01*
Y160476D02*
Y165005D01*
Y132995D02*
Y137524D01*
X411803Y147819D02*
Y150181D01*
X410622Y149000D02*
X412984D01*
X364606Y132606D02*
X409394D01*
X364606D02*
Y165394D01*
X409394D01*
Y132606D02*
Y165394D01*
X369264Y346106D02*
Y346894D01*
X364736Y346106D02*
Y346894D01*
X433992Y389287D02*
Y392496D01*
X436590D01*
X445488Y389287D02*
Y392496D01*
X442890D02*
X445488D01*
X438563Y382264D02*
X439350D01*
X438563Y377736D02*
X439350D01*
X360256Y379095D02*
Y382244D01*
X356713Y379095D02*
X360256D01*
Y387756D02*
Y390905D01*
X356713D02*
X360256D01*
X354969Y169831D02*
X378394D01*
X354969D02*
Y211169D01*
X378394D01*
Y169831D02*
Y211169D01*
X432760Y154941D02*
Y160059D01*
Y154941D02*
X440240D01*
Y160059D01*
X432760D02*
X440240D01*
X389106Y282764D02*
X389894D01*
X389106Y278236D02*
X389894D01*
X409831Y272287D02*
Y295713D01*
X431169D01*
Y272287D02*
Y295713D01*
X409831Y272287D02*
X431169D01*
X407669Y218787D02*
Y242213D01*
X366331Y218787D02*
X407669D01*
X366331D02*
Y242213D01*
X407669D01*
X409831Y247106D02*
Y270532D01*
X431169D01*
Y247106D02*
Y270532D01*
X409831Y247106D02*
X431169D01*
X433153Y160945D02*
X439847D01*
X433153Y154055D02*
X439847D01*
X381138Y244996D02*
X385862D01*
X381138Y252004D02*
X385862D01*
X431169Y219787D02*
Y243213D01*
X409831Y219787D02*
X431169D01*
X409831D02*
Y243213D01*
X431169D01*
X401264Y268563D02*
Y269350D01*
X396736Y268563D02*
Y269350D01*
X439394Y169331D02*
Y210669D01*
X415969D02*
X439394D01*
X415969Y169331D02*
Y210669D01*
Y169331D02*
X439394D01*
X407764Y268606D02*
Y269394D01*
X403236Y268606D02*
Y269394D01*
X377236Y268606D02*
Y269394D01*
X381764Y268606D02*
Y269394D01*
X370236Y268606D02*
Y269394D01*
X374764Y268606D02*
Y269394D01*
X395248Y265941D02*
Y269150D01*
X392650Y265941D02*
X395248D01*
X383752D02*
Y269150D01*
Y265941D02*
X386350D01*
X408394Y169831D02*
Y211169D01*
X384968D02*
X408394D01*
X384968Y169831D02*
Y211169D01*
Y169831D02*
X408394D01*
D12*
X410355Y125713D02*
Y130213D01*
X385855Y125713D02*
X410355D01*
X385855D02*
Y130213D01*
X348788Y396496D02*
X447213D01*
X348788Y130355D02*
Y396496D01*
X447213Y130355D02*
Y396496D01*
X348788Y130355D02*
X447213D01*
X431000Y372000D02*
X431500D01*
X429000Y370000D02*
X431000Y372000D01*
X429000Y368500D02*
Y370000D01*
X444500Y144000D02*
X445500Y143000D01*
Y138500D02*
Y143000D01*
X431468Y375080D02*
X427532D01*
Y377048D01*
X428188Y377704D01*
X429500D01*
X430156Y377048D01*
Y375080D01*
Y376392D02*
X431468Y377704D01*
Y379016D02*
Y380328D01*
Y379672D01*
X427532D01*
X428188Y379016D01*
Y382296D02*
X427532Y382952D01*
Y384264D01*
X428188Y384920D01*
X428844D01*
X429500Y384264D01*
Y383608D01*
Y384264D01*
X430156Y384920D01*
X430812D01*
X431468Y384264D01*
Y382952D01*
X430812Y382296D01*
X431468Y358580D02*
X427532D01*
Y360548D01*
X428188Y361204D01*
X429500D01*
X430156Y360548D01*
Y358580D01*
Y359892D02*
X431468Y361204D01*
Y362516D02*
Y363828D01*
Y363172D01*
X427532D01*
X428188Y362516D01*
X431468Y368420D02*
Y365796D01*
X428844Y368420D01*
X428188D01*
X427532Y367764D01*
Y366452D01*
X428188Y365796D01*
X365032Y338764D02*
X368968D01*
Y336796D01*
X368312Y336140D01*
X367000D01*
X366344Y336796D01*
Y338764D01*
Y337452D02*
X365032Y336140D01*
Y334828D02*
Y333516D01*
Y334172D01*
X368968D01*
X368312Y334828D01*
X365032Y331548D02*
Y330236D01*
Y330892D01*
X368968D01*
X368312Y331548D01*
X365032Y378420D02*
X368968D01*
Y376452D01*
X368312Y375796D01*
X367000D01*
X366344Y376452D01*
Y378420D01*
Y377108D02*
X365032Y375796D01*
Y374484D02*
Y373172D01*
Y373828D01*
X368968D01*
X368312Y374484D01*
Y371204D02*
X368968Y370548D01*
Y369236D01*
X368312Y368580D01*
X365688D01*
X365032Y369236D01*
Y370548D01*
X365688Y371204D01*
X368312D01*
X431312Y390844D02*
X428688D01*
X428032Y390188D01*
Y388876D01*
X428688Y388220D01*
X431312D01*
X431968Y388876D01*
Y390188D01*
X430656Y389532D02*
X431968Y390844D01*
Y390188D02*
X431312Y390844D01*
X428688Y392156D02*
X428032Y392812D01*
Y394124D01*
X428688Y394780D01*
X429344D01*
X430000Y394124D01*
Y393468D01*
Y394124D01*
X430656Y394780D01*
X431312D01*
X431968Y394124D01*
Y392812D01*
X431312Y392156D01*
X398666Y246501D02*
Y249833D01*
X397999Y250499D01*
X396666D01*
X396000Y249833D01*
Y246501D01*
X394667Y250499D02*
X393334D01*
X394001D01*
Y246501D01*
X394667Y247167D01*
X400999Y276668D02*
X397001D01*
Y278667D01*
X397667Y279334D01*
X399000D01*
X399666Y278667D01*
Y276668D01*
Y278001D02*
X400999Y279334D01*
X397001Y283332D02*
X397667Y281999D01*
X399000Y280666D01*
X400333D01*
X400999Y281333D01*
Y282666D01*
X400333Y283332D01*
X399666D01*
X399000Y282666D01*
Y280666D01*
X368999Y277168D02*
X365001D01*
Y279167D01*
X365667Y279834D01*
X367000D01*
X367666Y279167D01*
Y277168D01*
Y278501D02*
X368999Y279834D01*
X365667Y281167D02*
X365001Y281833D01*
Y283166D01*
X365667Y283832D01*
X366334D01*
X367000Y283166D01*
Y282499D01*
Y283166D01*
X367666Y283832D01*
X368333D01*
X368999Y283166D01*
Y281833D01*
X368333Y281167D01*
X408499Y243668D02*
X404501D01*
Y245667D01*
X405167Y246334D01*
X406500D01*
X407166Y245667D01*
Y243668D01*
X405167Y247667D02*
X404501Y248333D01*
Y249666D01*
X405167Y250332D01*
X405834D01*
X406500Y249666D01*
Y248999D01*
Y249666D01*
X407166Y250332D01*
X407833D01*
X408499Y249666D01*
Y248333D01*
X407833Y247667D01*
X410289Y297094D02*
Y301093D01*
X412289D01*
X412955Y300426D01*
Y299093D01*
X412289Y298427D01*
X410289D01*
X414288Y297094D02*
X415621D01*
X414955D01*
Y301093D01*
X414288Y300426D01*
X441334Y159499D02*
Y158833D01*
X442667Y157500D01*
X444000Y158833D01*
Y159499D01*
X442667Y157500D02*
Y155501D01*
X445333D02*
X446666D01*
X445999D01*
Y159499D01*
X445333Y158833D01*
X423668Y163499D02*
Y160167D01*
X424334Y159501D01*
X425667D01*
X426334Y160167D01*
Y163499D01*
X427667Y162833D02*
X428333Y163499D01*
X429666D01*
X430332Y162833D01*
Y162167D01*
X429666Y161500D01*
X428999D01*
X429666D01*
X430332Y160834D01*
Y160167D01*
X429666Y159501D01*
X428333D01*
X427667Y160167D01*
X444000Y135000D02*
X443501Y134500D01*
Y133501D01*
X444000Y133001D01*
X446000D01*
X446499Y133501D01*
Y134500D01*
X446000Y135000D01*
X446499Y137499D02*
X443501D01*
X445000Y136000D01*
Y137999D01*
X442167Y172834D02*
X441501Y172167D01*
Y170834D01*
X442167Y170168D01*
X444833D01*
X445499Y170834D01*
Y172167D01*
X444833Y172834D01*
X442167Y174167D02*
X441501Y174833D01*
Y176166D01*
X442167Y176832D01*
X442834D01*
X443500Y176166D01*
Y175499D01*
Y176166D01*
X444166Y176832D01*
X444833D01*
X445499Y176166D01*
Y174833D01*
X444833Y174167D01*
X355334Y168333D02*
X354667Y168999D01*
X353334D01*
X352668Y168333D01*
Y165667D01*
X353334Y165001D01*
X354667D01*
X355334Y165667D01*
X359332Y165001D02*
X356666D01*
X359332Y167666D01*
Y168333D01*
X358666Y168999D01*
X357333D01*
X356666Y168333D01*
X410167Y173000D02*
X409501Y172334D01*
Y171001D01*
X410167Y170334D01*
X412833D01*
X413499Y171001D01*
Y172334D01*
X412833Y173000D01*
X413499Y174333D02*
Y175666D01*
Y174999D01*
X409501D01*
X410167Y174333D01*
X353835Y150499D02*
Y146501D01*
X355834D01*
X356501Y147167D01*
Y147834D01*
X355834Y148500D01*
X353835D01*
X355834D01*
X356501Y149167D01*
Y149833D01*
X355834Y150499D01*
X353835D01*
X357834D02*
X360499D01*
X359166D01*
Y146501D01*
X361832D02*
X363165D01*
X362499D01*
Y150499D01*
X361832Y149833D01*
X419001Y331333D02*
X418334Y331999D01*
X417001D01*
X416335Y331333D01*
Y330666D01*
X417001Y330000D01*
X418334D01*
X419001Y329334D01*
Y328667D01*
X418334Y328001D01*
X417001D01*
X416335Y328667D01*
X420334Y331999D02*
Y328001D01*
X422333D01*
X422999Y328667D01*
Y331333D01*
X422333Y331999D01*
X420334D01*
X424332Y328001D02*
X425665D01*
X424999D01*
Y331999D01*
X424332Y331333D01*
X391668Y303499D02*
Y300167D01*
X392334Y299501D01*
X393667D01*
X394334Y300167D01*
Y303499D01*
X397666Y299501D02*
Y303499D01*
X395667Y301500D01*
X398332D01*
X370168Y291501D02*
Y295499D01*
X372167D01*
X372834Y294833D01*
Y293500D01*
X372167Y292834D01*
X370168D01*
X371501D02*
X372834Y291501D01*
X374166Y292167D02*
X374833Y291501D01*
X376166D01*
X376832Y292167D01*
Y294833D01*
X376166Y295499D01*
X374833D01*
X374166Y294833D01*
Y294166D01*
X374833Y293500D01*
X376832D01*
X370168Y299001D02*
Y302999D01*
X372167D01*
X372834Y302333D01*
Y301000D01*
X372167Y300334D01*
X370168D01*
X371501D02*
X372834Y299001D01*
X374166Y302333D02*
X374833Y302999D01*
X376166D01*
X376832Y302333D01*
Y301666D01*
X376166Y301000D01*
X376832Y300334D01*
Y299667D01*
X376166Y299001D01*
X374833D01*
X374166Y299667D01*
Y300334D01*
X374833Y301000D01*
X374166Y301666D01*
Y302333D01*
X374833Y301000D02*
X376166D01*
X400999Y254168D02*
X397001D01*
Y256167D01*
X397667Y256834D01*
X399000D01*
X399666Y256167D01*
Y254168D01*
Y255501D02*
X400999Y256834D01*
X397001Y260832D02*
Y258167D01*
X399000D01*
X398334Y259499D01*
Y260166D01*
X399000Y260832D01*
X400333D01*
X400999Y260166D01*
Y258833D01*
X400333Y258167D01*
X407499Y254168D02*
X403501D01*
Y256167D01*
X404167Y256834D01*
X405500D01*
X406166Y256167D01*
Y254168D01*
Y255501D02*
X407499Y256834D01*
Y260166D02*
X403501D01*
X405500Y258167D01*
Y260832D01*
X381499Y253668D02*
X377501D01*
Y255667D01*
X378167Y256334D01*
X379500D01*
X380166Y255667D01*
Y253668D01*
Y255001D02*
X381499Y256334D01*
Y260332D02*
Y257666D01*
X378834Y260332D01*
X378167D01*
X377501Y259666D01*
Y258333D01*
X378167Y257666D01*
X373999Y254877D02*
X370001D01*
Y256877D01*
X370667Y257543D01*
X372000D01*
X372666Y256877D01*
Y254877D01*
Y256210D02*
X373999Y257543D01*
Y258876D02*
Y260209D01*
Y259543D01*
X370001D01*
X370667Y258876D01*
X364834Y388167D02*
Y390833D01*
X364167Y391499D01*
X362834D01*
X362168Y390833D01*
Y388167D01*
X362834Y387501D01*
X364167D01*
X363501Y388834D02*
X364834Y387501D01*
X364167D02*
X364834Y388167D01*
X368832Y387501D02*
X366166D01*
X368832Y390166D01*
Y390833D01*
X368166Y391499D01*
X366833D01*
X366166Y390833D01*
X390333Y257500D02*
X387667D01*
X387001Y256834D01*
Y255501D01*
X387667Y254834D01*
X390333D01*
X390999Y255501D01*
Y256834D01*
X389666Y256167D02*
X390999Y257500D01*
Y256834D02*
X390333Y257500D01*
X390999Y258833D02*
Y260166D01*
Y259499D01*
X387001D01*
X387667Y258833D01*
X383499Y171168D02*
X379501D01*
Y173167D01*
X380167Y173834D01*
X381500D01*
X382166Y173167D01*
Y171168D01*
X379501Y175166D02*
Y177832D01*
X380167D01*
X382833Y175166D01*
X383499D01*
X367168Y213501D02*
Y217499D01*
X369167D01*
X369834Y216833D01*
Y215500D01*
X369167Y214834D01*
X367168D01*
X373832Y217499D02*
X372499Y216833D01*
X371166Y215500D01*
Y214167D01*
X371833Y213501D01*
X373166D01*
X373832Y214167D01*
Y214834D01*
X373166Y215500D01*
X371166D01*
X445499Y183168D02*
X441501D01*
Y185167D01*
X442167Y185834D01*
X443500D01*
X444166Y185167D01*
Y183168D01*
X441501Y189832D02*
Y187167D01*
X443500D01*
X442834Y188499D01*
Y189166D01*
X443500Y189832D01*
X444833D01*
X445499Y189166D01*
Y187833D01*
X444833Y187167D01*
X413499Y179668D02*
X409501D01*
Y181667D01*
X410167Y182334D01*
X411500D01*
X412166Y181667D01*
Y179668D01*
X413499Y185666D02*
X409501D01*
X411500Y183667D01*
Y186332D01*
X410168Y214501D02*
Y218499D01*
X412167D01*
X412834Y217833D01*
Y216500D01*
X412167Y215834D01*
X410168D01*
X416832Y214501D02*
X414166D01*
X416832Y217166D01*
Y217833D01*
X416166Y218499D01*
X414833D01*
X414166Y217833D01*
X404167Y324334D02*
X403501Y323667D01*
Y322334D01*
X404167Y321668D01*
X406833D01*
X407499Y322334D01*
Y323667D01*
X406833Y324334D01*
Y325666D02*
X407499Y326333D01*
Y327666D01*
X406833Y328332D01*
X404167D01*
X403501Y327666D01*
Y326333D01*
X404167Y325666D01*
X404834D01*
X405500Y326333D01*
Y328332D01*
X379667Y322334D02*
X379001Y321667D01*
Y320334D01*
X379667Y319668D01*
X382333D01*
X382999Y320334D01*
Y321667D01*
X382333Y322334D01*
X379667Y323667D02*
X379001Y324333D01*
Y325666D01*
X379667Y326332D01*
X380334D01*
X381000Y325666D01*
X381666Y326332D01*
X382333D01*
X382999Y325666D01*
Y324333D01*
X382333Y323667D01*
X381666D01*
X381000Y324333D01*
X380334Y323667D01*
X379667D01*
X381000Y324333D02*
Y325666D01*
X371667Y322334D02*
X371001Y321667D01*
Y320334D01*
X371667Y319668D01*
X374333D01*
X374999Y320334D01*
Y321667D01*
X374333Y322334D01*
X371001Y323667D02*
Y326332D01*
X371667D01*
X374333Y323667D01*
X374999D01*
X424834Y308833D02*
X424167Y309499D01*
X422834D01*
X422168Y308833D01*
Y306167D01*
X422834Y305501D01*
X424167D01*
X424834Y306167D01*
X428832Y309499D02*
X427499Y308833D01*
X426166Y307500D01*
Y306167D01*
X426833Y305501D01*
X428166D01*
X428832Y306167D01*
Y306834D01*
X428166Y307500D01*
X426166D01*
X424334Y318333D02*
X423667Y318999D01*
X422334D01*
X421668Y318333D01*
Y315667D01*
X422334Y315001D01*
X423667D01*
X424334Y315667D01*
X428332Y318999D02*
X425667D01*
Y317000D01*
X426999Y317666D01*
X427666D01*
X428332Y317000D01*
Y315667D01*
X427666Y315001D01*
X426333D01*
X425667Y315667D01*
D13*
X438000Y212500D02*
X443000Y217500D01*
Y352500D01*
Y212500D02*
Y217500D01*
X438000Y212500D02*
X443000D01*
X433000D02*
X438000D01*
X433000D02*
Y352500D01*
X443000D01*
X353000Y347500D02*
X358000Y352500D01*
X353000Y212500D02*
Y347500D01*
Y352500D01*
X358000D01*
X363000D01*
Y212500D02*
Y352500D01*
X353000Y212500D02*
X363000D01*
M02*
