G04*
G04 #@! TF.GenerationSoftware,Altium Limited,Altium Designer,21.3.2 (30)*
G04*
G04 Layer_Color=8388736*
%FSLAX25Y25*%
%MOIN*%
G70*
G04*
G04 #@! TF.SameCoordinates,E8A29BF3-3805-44CD-BFD4-AABEC62B8219*
G04*
G04*
G04 #@! TF.FilePolarity,Negative*
G04*
G01*
G75*
G04:AMPARAMS|DCode=14|XSize=63.2mil|YSize=19.68mil|CornerRadius=9.84mil|HoleSize=0mil|Usage=FLASHONLY|Rotation=90.000|XOffset=0mil|YOffset=0mil|HoleType=Round|Shape=RoundedRectangle|*
%AMROUNDEDRECTD14*
21,1,0.06320,0.00000,0,0,90.0*
21,1,0.04351,0.01968,0,0,90.0*
1,1,0.01968,0.00000,0.02176*
1,1,0.01968,0.00000,-0.02176*
1,1,0.01968,0.00000,-0.02176*
1,1,0.01968,0.00000,0.02176*
%
%ADD14ROUNDEDRECTD14*%
%ADD15R,0.01968X0.06320*%
%ADD16R,0.07087X0.07087*%
%ADD17R,0.02780X0.00758*%
G04:AMPARAMS|DCode=18|XSize=27.8mil|YSize=7.58mil|CornerRadius=3.79mil|HoleSize=0mil|Usage=FLASHONLY|Rotation=0.000|XOffset=0mil|YOffset=0mil|HoleType=Round|Shape=RoundedRectangle|*
%AMROUNDEDRECTD18*
21,1,0.02780,0.00000,0,0,0.0*
21,1,0.02022,0.00758,0,0,0.0*
1,1,0.00758,0.01011,0.00000*
1,1,0.00758,-0.01011,0.00000*
1,1,0.00758,-0.01011,0.00000*
1,1,0.00758,0.01011,0.00000*
%
%ADD18ROUNDEDRECTD18*%
G04:AMPARAMS|DCode=19|XSize=7.58mil|YSize=27.8mil|CornerRadius=3.79mil|HoleSize=0mil|Usage=FLASHONLY|Rotation=0.000|XOffset=0mil|YOffset=0mil|HoleType=Round|Shape=RoundedRectangle|*
%AMROUNDEDRECTD19*
21,1,0.00758,0.02022,0,0,0.0*
21,1,0.00000,0.02780,0,0,0.0*
1,1,0.00758,0.00000,-0.01011*
1,1,0.00758,0.00000,-0.01011*
1,1,0.00758,0.00000,0.01011*
1,1,0.00758,0.00000,0.01011*
%
%ADD19ROUNDEDRECTD19*%
%ADD20R,0.03950X0.06706*%
%ADD21R,0.05918X0.06312*%
%ADD22R,0.04737X0.04540*%
%ADD23R,0.06312X0.08280*%
%ADD24R,0.15600X0.15600*%
%ADD25R,0.07000X0.20000*%
%ADD26R,0.06115X0.04737*%
%ADD27R,0.05524X0.06509*%
%ADD28R,0.03950X0.04343*%
%ADD29R,0.04737X0.06115*%
%ADD30R,0.04934X0.03162*%
%ADD31R,0.01968X0.03937*%
%ADD32R,0.04934X0.06706*%
%ADD33R,0.05918X0.06509*%
%ADD34R,0.06115X0.06509*%
%ADD35R,0.06509X0.05918*%
%ADD36R,0.04540X0.06115*%
%ADD37R,0.06509X0.05721*%
%ADD38C,0.06737*%
%ADD39C,0.10643*%
%ADD40C,0.06706*%
%ADD41R,0.06706X0.06706*%
%ADD42R,0.06706X0.06706*%
%ADD43C,0.02375*%
D14*
X418161Y154770D02*
D03*
X420720D02*
D03*
X423279D02*
D03*
X425839D02*
D03*
Y138230D02*
D03*
X423279D02*
D03*
X420720D02*
D03*
D15*
X418161D02*
D03*
D16*
X398976Y312150D02*
D03*
D17*
X393453Y315299D02*
D03*
D18*
Y313724D02*
D03*
Y312150D02*
D03*
Y310575D02*
D03*
Y309000D02*
D03*
X404500D02*
D03*
Y310575D02*
D03*
Y312150D02*
D03*
Y313724D02*
D03*
Y315299D02*
D03*
D19*
X395827Y306626D02*
D03*
X397401D02*
D03*
X398976D02*
D03*
X400551D02*
D03*
X402126D02*
D03*
Y317673D02*
D03*
X400551D02*
D03*
X398976D02*
D03*
X397401D02*
D03*
X395827D02*
D03*
D20*
X420677Y378909D02*
D03*
X416347D02*
D03*
X412016Y379697D02*
D03*
X407685Y378909D02*
D03*
X403354Y379697D02*
D03*
X399024Y378909D02*
D03*
X394693Y377335D02*
D03*
X390362Y378909D02*
D03*
D21*
X417488Y336154D02*
D03*
X395047D02*
D03*
D22*
X412016Y335268D02*
D03*
D23*
X423787Y387925D02*
D03*
X372016Y391862D02*
D03*
D24*
X387000Y149000D02*
D03*
D25*
X405500D02*
D03*
X368500D02*
D03*
D26*
X367000Y350043D02*
D03*
Y342957D02*
D03*
X399000Y272500D02*
D03*
Y265413D02*
D03*
X405500Y272543D02*
D03*
Y265457D02*
D03*
X379500Y265457D02*
D03*
Y272543D02*
D03*
X372500Y265457D02*
D03*
Y272543D02*
D03*
D27*
X355153Y373500D02*
D03*
X361846D02*
D03*
X442346Y372500D02*
D03*
X435653D02*
D03*
X379500Y280500D02*
D03*
X372807D02*
D03*
D28*
X436000Y386000D02*
D03*
X443480D02*
D03*
X439740Y393874D02*
D03*
X393240Y272437D02*
D03*
X385760D02*
D03*
X389500Y264563D02*
D03*
D29*
X435413Y380000D02*
D03*
X442500D02*
D03*
X385957Y280500D02*
D03*
X393043D02*
D03*
D30*
X362028Y385000D02*
D03*
X352972Y381260D02*
D03*
Y388740D02*
D03*
D31*
X434335Y157500D02*
D03*
X438665D02*
D03*
D32*
X377496Y248500D02*
D03*
X389504D02*
D03*
D33*
X413350Y165000D02*
D03*
X419650D02*
D03*
X410850Y307500D02*
D03*
X417150D02*
D03*
X410850Y317000D02*
D03*
X417150D02*
D03*
X391850Y325500D02*
D03*
X398150D02*
D03*
D34*
X436201Y164500D02*
D03*
X442500D02*
D03*
X436850Y150500D02*
D03*
X443150D02*
D03*
D35*
X356000Y161150D02*
D03*
Y154850D02*
D03*
X373000Y308850D02*
D03*
Y315150D02*
D03*
D36*
X387051Y293500D02*
D03*
X380949D02*
D03*
X387051Y300500D02*
D03*
X380949D02*
D03*
D37*
X381000Y315347D02*
D03*
Y308653D02*
D03*
D38*
X438000Y277500D02*
D03*
Y347500D02*
D03*
Y337500D02*
D03*
Y327500D02*
D03*
Y317500D02*
D03*
Y307500D02*
D03*
Y297500D02*
D03*
Y287500D02*
D03*
Y267500D02*
D03*
Y257500D02*
D03*
Y247500D02*
D03*
Y237500D02*
D03*
Y227500D02*
D03*
Y217500D02*
D03*
X358000D02*
D03*
Y227500D02*
D03*
Y237500D02*
D03*
Y247500D02*
D03*
Y257500D02*
D03*
Y267500D02*
D03*
Y277500D02*
D03*
Y287500D02*
D03*
Y297500D02*
D03*
Y307500D02*
D03*
Y317500D02*
D03*
Y327500D02*
D03*
Y337500D02*
D03*
Y347500D02*
D03*
D39*
X438355Y363623D02*
D03*
X357646D02*
D03*
Y139213D02*
D03*
X438355D02*
D03*
D40*
X365500Y175500D02*
D03*
Y185500D02*
D03*
Y195500D02*
D03*
X415500Y285181D02*
D03*
X402000Y229319D02*
D03*
X392000D02*
D03*
X382000D02*
D03*
X415500Y260000D02*
D03*
X425500Y230319D02*
D03*
X426500Y195000D02*
D03*
Y185000D02*
D03*
Y175000D02*
D03*
X395500Y195500D02*
D03*
Y185500D02*
D03*
Y175500D02*
D03*
D41*
X365500Y205500D02*
D03*
X426500Y205000D02*
D03*
X395500Y205500D02*
D03*
D42*
X425500Y285181D02*
D03*
X372000Y229319D02*
D03*
X425500Y260000D02*
D03*
X415500Y230319D02*
D03*
D43*
X428000Y144000D02*
D03*
X423330Y144469D02*
D03*
X400217Y336717D02*
D03*
X388925Y340925D02*
D03*
X387967Y345533D02*
D03*
X395533Y356033D02*
D03*
X404500Y350000D02*
D03*
X395500Y372594D02*
D03*
X411967Y357467D02*
D03*
X381000Y367500D02*
D03*
X412000Y369500D02*
D03*
X366000Y393000D02*
D03*
X429000Y387500D02*
D03*
X373066Y348500D02*
D03*
X353299Y369000D02*
D03*
X363500Y353218D02*
D03*
X362000Y380500D02*
D03*
X361000Y153000D02*
D03*
X417000Y171500D02*
D03*
X399000Y147000D02*
D03*
X433000Y303500D02*
D03*
X402500Y327000D02*
D03*
X396925Y280000D02*
D03*
X386000Y269575D02*
D03*
X419517Y292517D02*
D03*
X426000Y301000D02*
D03*
X426500Y318000D02*
D03*
X374500Y304000D02*
D03*
X399004Y309803D02*
D03*
X399000Y314496D02*
D03*
X401323Y312177D02*
D03*
X398976Y312150D02*
D03*
X396630Y312130D02*
D03*
X413000Y277500D02*
D03*
X399000Y284500D02*
D03*
X404500Y276500D02*
D03*
X383500Y257000D02*
D03*
X405965Y303000D02*
D03*
X385500Y261500D02*
D03*
X384500Y355500D02*
D03*
X439500Y383500D02*
D03*
X440000Y390500D02*
D03*
X392000Y327886D02*
D03*
X426500Y340000D02*
D03*
X385500Y158000D02*
D03*
X444000Y155500D02*
D03*
X370575Y315347D02*
D03*
X385500Y315500D02*
D03*
X391000Y300500D02*
D03*
X394434Y302934D02*
D03*
X388500Y315740D02*
D03*
X386000Y320010D02*
D03*
X402668Y320257D02*
D03*
X387500Y289000D02*
D03*
X386575Y306500D02*
D03*
X385876Y308998D02*
D03*
X423000Y317000D02*
D03*
X421500Y312000D02*
D03*
M02*
