G04*
G04 #@! TF.GenerationSoftware,Altium Limited,Altium Designer,21.3.2 (30)*
G04*
G04 Layer_Physical_Order=2*
G04 Layer_Color=16711680*
%FSLAX25Y25*%
%MOIN*%
G70*
G04*
G04 #@! TF.SameCoordinates,E8A29BF3-3805-44CD-BFD4-AABEC62B8219*
G04*
G04*
G04 #@! TF.FilePolarity,Positive*
G04*
G01*
G75*
%ADD12C,0.01000*%
%ADD59C,0.05937*%
%ADD60C,0.09843*%
%ADD61C,0.05906*%
%ADD62R,0.05906X0.05906*%
%ADD63R,0.05906X0.05906*%
%ADD64C,0.01575*%
%ADD65R,0.07874X0.05512*%
%ADD66R,0.03150X0.03150*%
%ADD67R,0.04921X0.03150*%
%ADD68R,0.06000X0.06000*%
%ADD69C,0.06000*%
G36*
X445471Y351377D02*
X445408Y351329D01*
X444971Y351192D01*
X442581Y353581D01*
X442085Y353913D01*
X441500Y354029D01*
X432000D01*
X431415Y353913D01*
X430919Y353581D01*
X423000Y345663D01*
X412935Y355728D01*
X412980Y355952D01*
X413482Y356455D01*
X413695Y356967D01*
X410083D01*
X410053Y356922D01*
X399741D01*
X394029Y362633D01*
Y370884D01*
X394529Y371062D01*
X395145Y370807D01*
X395855D01*
X396513Y371079D01*
X397015Y371582D01*
X397273Y372205D01*
X399165Y374097D01*
X403842D01*
Y371870D01*
X413717D01*
Y379382D01*
X403842D01*
Y377155D01*
X398532D01*
X397946Y377039D01*
X397450Y376707D01*
X395110Y374368D01*
X394529Y374127D01*
X394029Y374305D01*
Y375000D01*
X393913Y375585D01*
X393581Y376081D01*
X388081Y381581D01*
X387585Y381913D01*
X387296Y381971D01*
X387345Y382471D01*
X410547D01*
X411132Y382587D01*
X411629Y382919D01*
X416635Y387925D01*
X417562D01*
X417754Y387463D01*
X417419Y387128D01*
X417087Y386632D01*
X416971Y386047D01*
Y381724D01*
X415039D01*
Y376575D01*
X421961D01*
Y381724D01*
X420029D01*
Y385413D01*
X422541Y387925D01*
X425528D01*
Y393074D01*
X420378D01*
Y390153D01*
X420099Y389930D01*
X419622Y390140D01*
Y393074D01*
X414473D01*
Y390153D01*
X414193Y389929D01*
X413717Y390139D01*
Y390874D01*
X409280D01*
Y387618D01*
X411349D01*
X411541Y387156D01*
X409914Y385529D01*
X361000D01*
X360415Y385413D01*
X359919Y385081D01*
X350991Y376154D01*
X350529Y376346D01*
Y395471D01*
X375925D01*
X376283Y395130D01*
X376283Y394971D01*
Y391874D01*
X381220D01*
X386157D01*
Y394971D01*
X386157Y395130D01*
X386516Y395471D01*
X403484D01*
X403842Y395130D01*
Y391874D01*
X408780D01*
X413717D01*
Y395130D01*
X414075Y395471D01*
X445471D01*
Y351377D01*
D02*
G37*
G36*
X360213Y380343D02*
Y380145D01*
X360485Y379487D01*
X360987Y378985D01*
X361645Y378713D01*
X362355D01*
X362978Y378971D01*
X376283D01*
Y371870D01*
X379691D01*
Y368719D01*
X379485Y368513D01*
X379227Y367890D01*
X366316Y354979D01*
X365985Y354483D01*
X365868Y353898D01*
Y347531D01*
X359534Y341197D01*
X359532Y341198D01*
X358523Y341469D01*
X357477D01*
X356468Y341198D01*
X355563Y340676D01*
X354824Y339937D01*
X354302Y339032D01*
X354031Y338022D01*
Y336978D01*
X354302Y335968D01*
X354824Y335063D01*
X355563Y334324D01*
X356468Y333802D01*
X357477Y333531D01*
X358523D01*
X359532Y333802D01*
X360437Y334324D01*
X361176Y335063D01*
X361698Y335968D01*
X361968Y336978D01*
Y338022D01*
X361698Y339032D01*
X361697Y339034D01*
X368479Y345816D01*
X368811Y346312D01*
X368927Y346898D01*
Y353264D01*
X381390Y365727D01*
X382013Y365985D01*
X382515Y366488D01*
X382787Y367144D01*
Y367856D01*
X382750Y367946D01*
Y371870D01*
X386157D01*
Y378473D01*
X386658Y378680D01*
X390971Y374366D01*
Y362000D01*
X391087Y361415D01*
X391419Y360919D01*
X394565Y357772D01*
X394520Y357548D01*
X394018Y357045D01*
X393760Y356422D01*
X385452Y348115D01*
X380396D01*
X380204Y348577D01*
X385472Y353844D01*
X385672Y354144D01*
X386015Y354487D01*
X386287Y355145D01*
Y355855D01*
X386015Y356512D01*
X385512Y357015D01*
X384856Y357287D01*
X384144D01*
X383488Y357015D01*
X382985Y356512D01*
X382713Y355855D01*
Y355411D01*
X375315Y348013D01*
X375185Y348050D01*
X374853Y348259D01*
Y348855D01*
X374581Y349513D01*
X374078Y350015D01*
X373566Y350228D01*
Y348500D01*
X373066D01*
Y348000D01*
X371338D01*
X371550Y347487D01*
X372053Y346985D01*
X372710Y346713D01*
X373307D01*
X373515Y346381D01*
X373552Y346251D01*
X358718Y331416D01*
X358523Y331469D01*
X357477D01*
X356468Y331198D01*
X355563Y330676D01*
X354824Y329937D01*
X354302Y329032D01*
X354031Y328023D01*
Y326977D01*
X354302Y325968D01*
X354824Y325063D01*
X355563Y324324D01*
X356468Y323802D01*
X357477Y323532D01*
X358523D01*
X359532Y323802D01*
X360437Y324324D01*
X361176Y325063D01*
X361698Y325968D01*
X361968Y326977D01*
Y328023D01*
X361698Y329032D01*
X361318Y329690D01*
X362231Y330604D01*
X362693Y330412D01*
Y324356D01*
X359534Y321197D01*
X359532Y321198D01*
X358523Y321468D01*
X357477D01*
X356468Y321198D01*
X355563Y320676D01*
X354824Y319937D01*
X354302Y319032D01*
X354031Y318022D01*
Y316978D01*
X354302Y315968D01*
X354824Y315063D01*
X355563Y314324D01*
X356468Y313802D01*
X357477Y313531D01*
X358523D01*
X359532Y313802D01*
X360437Y314324D01*
X361176Y315063D01*
X361698Y315968D01*
X361968Y316978D01*
Y318022D01*
X361698Y319032D01*
X361697Y319034D01*
X364509Y321846D01*
X364971Y321654D01*
Y316634D01*
X359534Y311197D01*
X359532Y311198D01*
X358523Y311469D01*
X357477D01*
X356468Y311198D01*
X355563Y310676D01*
X354824Y309937D01*
X354302Y309032D01*
X354031Y308022D01*
Y306978D01*
X354302Y305968D01*
X354824Y305063D01*
X355563Y304324D01*
X356468Y303802D01*
X357477Y303532D01*
X358523D01*
X359532Y303802D01*
X360437Y304324D01*
X361176Y305063D01*
X361698Y305968D01*
X361968Y306978D01*
Y308022D01*
X361698Y309032D01*
X361697Y309034D01*
X367581Y314919D01*
X367913Y315415D01*
X368029Y316000D01*
Y321929D01*
X368500Y322000D01*
Y322000D01*
X373684D01*
X373875Y321538D01*
X371100Y318763D01*
X370769Y318267D01*
X370652Y317682D01*
Y317608D01*
X370149Y317105D01*
X369562Y316862D01*
X369059Y316359D01*
X368787Y315702D01*
Y314991D01*
X369059Y314334D01*
X369562Y313831D01*
X370219Y313559D01*
X370930D01*
X371587Y313831D01*
X372090Y314334D01*
X372362Y314991D01*
Y314992D01*
X373263Y315893D01*
X373595Y316389D01*
X373711Y316974D01*
Y317048D01*
X377581Y320919D01*
X377913Y321415D01*
X378029Y322000D01*
X384827D01*
X384953Y321626D01*
X384962Y321500D01*
X384485Y321022D01*
X384227Y320399D01*
X381219Y317392D01*
X380888Y316896D01*
X380771Y316311D01*
Y305719D01*
X380888Y305133D01*
X381219Y304637D01*
X386438Y299419D01*
X386934Y299087D01*
X387519Y298971D01*
X390022D01*
X390645Y298713D01*
X391355D01*
X391545Y298586D01*
Y295208D01*
X387110Y290773D01*
X386488Y290515D01*
X385985Y290013D01*
X385713Y289355D01*
Y288645D01*
X385985Y287987D01*
X386488Y287485D01*
X387144Y287213D01*
X387856D01*
X388512Y287485D01*
X389015Y287987D01*
X389273Y288610D01*
X394156Y293493D01*
X394488Y293989D01*
X394604Y294575D01*
Y301147D01*
X394790D01*
X395447Y301419D01*
X395950Y301922D01*
X396162Y302434D01*
X394434D01*
Y303434D01*
X396162D01*
X396147Y303471D01*
X396481Y303971D01*
X403982D01*
X404260Y303555D01*
X404238Y303500D01*
X405965D01*
Y302500D01*
X404238D01*
X404450Y301988D01*
X404953Y301485D01*
X405049Y301166D01*
X405012Y301111D01*
X404896Y300526D01*
Y284375D01*
X405012Y283790D01*
X405045Y283740D01*
Y278414D01*
X404855Y278287D01*
X404144D01*
X403522Y278029D01*
X398136D01*
X398009Y278322D01*
X397982Y278529D01*
X398441Y278988D01*
X398653Y279500D01*
X395198D01*
X395410Y278988D01*
X395868Y278529D01*
X395842Y278322D01*
X395715Y278029D01*
X369634D01*
X361697Y285966D01*
X361698Y285968D01*
X361968Y286978D01*
Y288022D01*
X361698Y289032D01*
X361176Y289937D01*
X360437Y290676D01*
X359532Y291198D01*
X358523Y291469D01*
X357477D01*
X356468Y291198D01*
X355563Y290676D01*
X354824Y289937D01*
X354302Y289032D01*
X354031Y288022D01*
Y286978D01*
X354302Y285968D01*
X354303Y285966D01*
X352491Y284154D01*
X352029Y284346D01*
Y289367D01*
X356466Y293803D01*
X356468Y293802D01*
X357477Y293531D01*
X358523D01*
X359532Y293802D01*
X359534Y293803D01*
X369919Y283419D01*
X370415Y283087D01*
X371000Y282971D01*
X398022D01*
X398644Y282713D01*
X399356D01*
X400012Y282985D01*
X400515Y283488D01*
X400787Y284144D01*
Y284856D01*
X400515Y285512D01*
X400012Y286015D01*
X399356Y286287D01*
X398644D01*
X398022Y286029D01*
X371634D01*
X361697Y295966D01*
X361698Y295968D01*
X361968Y296977D01*
Y298023D01*
X361698Y299032D01*
X361176Y299937D01*
X360437Y300676D01*
X359532Y301198D01*
X358523Y301468D01*
X357477D01*
X356468Y301198D01*
X355563Y300676D01*
X354824Y299937D01*
X354302Y299032D01*
X354031Y298023D01*
Y296977D01*
X354302Y295968D01*
X354303Y295966D01*
X350991Y292654D01*
X350529Y292846D01*
Y352154D01*
X350991Y352346D01*
X354303Y349034D01*
X354302Y349032D01*
X354031Y348023D01*
Y346977D01*
X354302Y345968D01*
X354824Y345063D01*
X355563Y344324D01*
X356468Y343802D01*
X357477Y343531D01*
X358523D01*
X359532Y343802D01*
X360437Y344324D01*
X361176Y345063D01*
X361698Y345968D01*
X361968Y346977D01*
Y348023D01*
X361698Y349032D01*
X361176Y349937D01*
X360437Y350676D01*
X359532Y351198D01*
X358523Y351468D01*
X357477D01*
X356468Y351198D01*
X356466Y351197D01*
X352029Y355633D01*
Y360471D01*
X352529Y360622D01*
X353046Y359848D01*
X353871Y359023D01*
X354841Y358375D01*
X355919Y357929D01*
X357063Y357701D01*
X358229D01*
X359373Y357929D01*
X360451Y358375D01*
X361421Y359023D01*
X362245Y359848D01*
X362894Y360818D01*
X363340Y361896D01*
X363567Y363040D01*
Y364206D01*
X363340Y365350D01*
X362894Y366428D01*
X362245Y367398D01*
X361421Y368222D01*
X360451Y368871D01*
X359373Y369317D01*
X358601Y369471D01*
X358650Y369971D01*
X363866D01*
X365971Y367866D01*
Y361633D01*
X362419Y358081D01*
X362087Y357585D01*
X361971Y357000D01*
Y354197D01*
X361713Y353574D01*
Y352863D01*
X361985Y352206D01*
X362488Y351703D01*
X363144Y351431D01*
X363856D01*
X364512Y351703D01*
X365015Y352206D01*
X365287Y352863D01*
Y353574D01*
X365029Y354197D01*
Y356366D01*
X368581Y359919D01*
X368913Y360415D01*
X369029Y361000D01*
Y368500D01*
X368913Y369085D01*
X368581Y369581D01*
X365581Y372581D01*
X365085Y372913D01*
X364500Y373029D01*
X354500D01*
X353915Y372913D01*
X353419Y372581D01*
X352491Y371654D01*
X352029Y371846D01*
Y372867D01*
X359713Y380550D01*
X360213Y380343D01*
D02*
G37*
G36*
X398026Y354311D02*
X398522Y353979D01*
X399012Y353882D01*
X399259Y353422D01*
X390400Y344563D01*
X389956Y344590D01*
X389686Y345011D01*
X389755Y345177D01*
Y345888D01*
X389482Y346545D01*
X388980Y347048D01*
X388935Y347272D01*
X395922Y354260D01*
X396545Y354518D01*
X397048Y355020D01*
X397272Y355065D01*
X398026Y354311D01*
D02*
G37*
G36*
X398872Y332965D02*
X398626Y332504D01*
X398500Y332529D01*
X390086D01*
X389500Y332413D01*
X389004Y332081D01*
X388419Y331496D01*
X388087Y330999D01*
X387971Y330414D01*
Y330000D01*
X387029D01*
Y336866D01*
X389315Y339152D01*
X389938Y339410D01*
X390441Y339913D01*
X390668Y340462D01*
X391175Y340663D01*
X398872Y332965D01*
D02*
G37*
G36*
X385902Y340065D02*
X384419Y338581D01*
X384087Y338085D01*
X383971Y337500D01*
Y330000D01*
X374816D01*
X374625Y330462D01*
X384690Y340527D01*
X385711D01*
X385902Y340065D01*
D02*
G37*
G36*
X380820Y344874D02*
X380893Y344556D01*
X366214Y329876D01*
X365752Y330068D01*
Y331589D01*
X379219Y345056D01*
X380701D01*
X380820Y344874D01*
D02*
G37*
G36*
X421919Y342419D02*
X422415Y342087D01*
X423000Y341971D01*
X423585Y342087D01*
X424081Y342419D01*
X432633Y350971D01*
X435151D01*
X435358Y350471D01*
X434824Y349937D01*
X434302Y349032D01*
X434031Y348023D01*
Y346977D01*
X434302Y345968D01*
X434824Y345063D01*
X435563Y344324D01*
X436468Y343802D01*
X437477Y343531D01*
X438522D01*
X439532Y343802D01*
X440437Y344324D01*
X441176Y345063D01*
X441698Y345968D01*
X441968Y346977D01*
Y348023D01*
X441698Y349032D01*
X441176Y349937D01*
X441057Y350055D01*
X441222Y350598D01*
X441237Y350600D01*
X442471Y349366D01*
Y306230D01*
X442238Y306052D01*
X441799Y306346D01*
X441968Y306978D01*
Y308022D01*
X441698Y309032D01*
X441176Y309937D01*
X440437Y310676D01*
X439532Y311198D01*
X438522Y311469D01*
X437477D01*
X436468Y311198D01*
X435563Y310676D01*
X434824Y309937D01*
X434302Y309032D01*
X434301Y309029D01*
X432346D01*
X432154Y309491D01*
X436466Y313803D01*
X436468Y313802D01*
X437477Y313531D01*
X438522D01*
X439532Y313802D01*
X440437Y314324D01*
X441176Y315063D01*
X441698Y315968D01*
X441968Y316978D01*
Y318022D01*
X441698Y319032D01*
X441176Y319937D01*
X440437Y320676D01*
X439532Y321198D01*
X438522Y321468D01*
X437477D01*
X436468Y321198D01*
X435563Y320676D01*
X434824Y319937D01*
X434302Y319032D01*
X434031Y318022D01*
Y316978D01*
X434302Y315968D01*
X434303Y315966D01*
X431673Y313335D01*
X431212Y313582D01*
X431237Y313707D01*
Y318574D01*
X436466Y323803D01*
X436468Y323802D01*
X437477Y323532D01*
X438522D01*
X439532Y323802D01*
X440437Y324324D01*
X441176Y325063D01*
X441698Y325968D01*
X441968Y326977D01*
Y328023D01*
X441698Y329032D01*
X441176Y329937D01*
X440437Y330676D01*
X439532Y331198D01*
X438522Y331469D01*
X437477D01*
X436468Y331198D01*
X435563Y330676D01*
X434824Y329937D01*
X434302Y329032D01*
X434031Y328023D01*
Y326977D01*
X434302Y325968D01*
X434303Y325966D01*
X430962Y322625D01*
X430500Y322816D01*
Y329000D01*
X428029D01*
Y339022D01*
X428287Y339645D01*
Y340355D01*
X428015Y341013D01*
X427513Y341515D01*
X426856Y341787D01*
X426145D01*
X425488Y341515D01*
X424985Y341013D01*
X424713Y340355D01*
Y339645D01*
X424971Y339022D01*
Y329000D01*
X409500D01*
Y327316D01*
X409038Y327125D01*
X401393Y334770D01*
X401412Y335384D01*
X401732Y335705D01*
X401945Y336217D01*
X400217D01*
Y336717D01*
X399717D01*
Y338445D01*
X399205Y338232D01*
X398702Y337730D01*
X398478Y337685D01*
X393163Y343000D01*
X404026Y353863D01*
X410474D01*
X421919Y342419D01*
D02*
G37*
G36*
X400727Y326610D02*
X400985Y325988D01*
X401487Y325485D01*
X402144Y325213D01*
X402855D01*
X403512Y325485D01*
X404015Y325988D01*
X404287Y326644D01*
Y326843D01*
X404787Y327050D01*
X407919Y323919D01*
X408415Y323587D01*
X409000Y323471D01*
X409500D01*
Y321000D01*
X420402D01*
X420501Y320500D01*
X420833Y320004D01*
X421870Y318967D01*
X421801Y318329D01*
X421485Y318012D01*
X421272Y317500D01*
X423000D01*
Y317000D01*
X423500D01*
Y315272D01*
X424013Y315485D01*
X424515Y315987D01*
X424737Y316523D01*
X425000Y316471D01*
X425522D01*
X426145Y316213D01*
X426856D01*
X427513Y316485D01*
X427678Y316650D01*
X428178Y316443D01*
Y314341D01*
X422367Y308529D01*
X414393D01*
X414186Y309029D01*
X414701Y309544D01*
X415227Y310456D01*
X415231Y310471D01*
X420522D01*
X421144Y310213D01*
X421855D01*
X422512Y310485D01*
X423015Y310987D01*
X423287Y311645D01*
Y312355D01*
X423015Y313013D01*
X422512Y313515D01*
X421855Y313787D01*
X421144D01*
X420522Y313529D01*
X415231D01*
X415227Y313544D01*
X414701Y314456D01*
X413956Y315201D01*
X413044Y315727D01*
X412027Y316000D01*
X410973D01*
X409956Y315727D01*
X409044Y315201D01*
X408299Y314456D01*
X407773Y313544D01*
X407500Y312527D01*
Y311473D01*
X407773Y310456D01*
X408299Y309544D01*
X408814Y309029D01*
X408607Y308529D01*
X400911D01*
X400618Y309029D01*
X400731Y309303D01*
X397276D01*
X397390Y309029D01*
X397096Y308529D01*
X396144D01*
X392517Y312156D01*
X392021Y312488D01*
X391594Y312573D01*
X391377Y313064D01*
X397284Y318971D01*
X399349D01*
X399539Y318844D01*
X400124Y318727D01*
X401690D01*
X402313Y318470D01*
X403024D01*
X403681Y318742D01*
X404184Y319244D01*
X404456Y319901D01*
Y320612D01*
X404184Y321269D01*
X403681Y321772D01*
X403024Y322044D01*
X402313D01*
X401690Y321786D01*
X400656D01*
X400466Y321913D01*
X399881Y322029D01*
X396651D01*
X396065Y321913D01*
X395569Y321581D01*
X393991Y320004D01*
X393529Y320195D01*
Y326908D01*
X393787Y327531D01*
Y328242D01*
X393515Y328899D01*
X393443Y328971D01*
X393650Y329471D01*
X397867D01*
X400727Y326610D01*
D02*
G37*
G36*
X445408Y304171D02*
X445471Y304123D01*
Y157210D01*
X444971Y157033D01*
X444500Y157228D01*
Y155500D01*
Y153772D01*
X444971Y153967D01*
X445471Y153790D01*
Y132029D01*
X350529D01*
Y200033D01*
X350991Y200224D01*
X355358Y195858D01*
X355854Y195526D01*
X356424Y195413D01*
X361919Y189919D01*
X362415Y189587D01*
X363000Y189471D01*
X363472D01*
X363606Y188971D01*
X363073Y188663D01*
X362337Y187927D01*
X361817Y187026D01*
X361547Y186020D01*
Y184980D01*
X361817Y183974D01*
X362337Y183073D01*
X363073Y182337D01*
X363974Y181817D01*
X364980Y181547D01*
X366020D01*
X367026Y181817D01*
X367927Y182337D01*
X368663Y183073D01*
X369183Y183974D01*
X369453Y184980D01*
Y186020D01*
X369183Y187026D01*
X368663Y187927D01*
X367927Y188663D01*
X367394Y188971D01*
X367528Y189471D01*
X375203D01*
X380255Y184419D01*
X380751Y184087D01*
X381336Y183971D01*
X391819D01*
X392337Y183073D01*
X393073Y182337D01*
X393974Y181817D01*
X394980Y181547D01*
X396020D01*
X397026Y181817D01*
X397927Y182337D01*
X398663Y183073D01*
X399037Y183721D01*
X422751D01*
X422817Y183474D01*
X423337Y182573D01*
X424073Y181837D01*
X424974Y181317D01*
X425980Y181047D01*
X427020D01*
X428026Y181317D01*
X428927Y181837D01*
X429663Y182573D01*
X430183Y183474D01*
X430453Y184480D01*
Y185520D01*
X430183Y186526D01*
X429663Y187427D01*
X428927Y188163D01*
X428026Y188683D01*
X427020Y188953D01*
X425980D01*
X424974Y188683D01*
X424073Y188163D01*
X423337Y187427D01*
X422963Y186779D01*
X399249D01*
X399183Y187026D01*
X398663Y187927D01*
X397927Y188663D01*
X397026Y189183D01*
X396020Y189453D01*
X394980D01*
X393974Y189183D01*
X393073Y188663D01*
X392337Y187927D01*
X391819Y187029D01*
X381970D01*
X376918Y192081D01*
X376421Y192413D01*
X375836Y192529D01*
X368773D01*
X368581Y192991D01*
X368663Y193073D01*
X369183Y193974D01*
X369453Y194980D01*
Y196020D01*
X369183Y197026D01*
X368663Y197927D01*
X368400Y198190D01*
X368607Y198690D01*
X390147D01*
X391815Y197022D01*
X391547Y196020D01*
Y194980D01*
X391817Y193974D01*
X392337Y193073D01*
X393073Y192337D01*
X393974Y191817D01*
X394980Y191547D01*
X396020D01*
X397026Y191817D01*
X397927Y192337D01*
X398663Y193073D01*
X399037Y193721D01*
X422751D01*
X422817Y193474D01*
X423337Y192573D01*
X424073Y191837D01*
X424974Y191317D01*
X425980Y191047D01*
X427020D01*
X428026Y191317D01*
X428927Y191837D01*
X429663Y192573D01*
X430183Y193474D01*
X430453Y194480D01*
Y195520D01*
X430183Y196526D01*
X429663Y197427D01*
X428927Y198163D01*
X428026Y198683D01*
X427020Y198953D01*
X425980D01*
X424974Y198683D01*
X424073Y198163D01*
X423337Y197427D01*
X422963Y196779D01*
X399249D01*
X399183Y197026D01*
X398663Y197927D01*
X397927Y198663D01*
X397026Y199183D01*
X396020Y199453D01*
X394980D01*
X393978Y199185D01*
X392116Y201047D01*
X392323Y201547D01*
X399453D01*
Y209453D01*
X391547D01*
Y202067D01*
X391547Y202066D01*
X391047Y201696D01*
X390781Y201749D01*
X369453D01*
Y209453D01*
X361547D01*
Y201749D01*
X355914D01*
X353529Y204134D01*
Y280867D01*
X356466Y283803D01*
X356468Y283802D01*
X357477Y283531D01*
X358523D01*
X359532Y283802D01*
X359534Y283803D01*
X367919Y275419D01*
X368415Y275087D01*
X369000Y274971D01*
X403522D01*
X404144Y274713D01*
X404855D01*
X405045Y274586D01*
Y268708D01*
X399366Y263029D01*
X386478D01*
X385856Y263287D01*
X385144D01*
X384488Y263015D01*
X383985Y262512D01*
X383713Y261856D01*
Y261144D01*
X383985Y260488D01*
X384488Y259985D01*
X385144Y259713D01*
X385856D01*
X386478Y259971D01*
X400000D01*
X400585Y260087D01*
X401081Y260419D01*
X407656Y266993D01*
X407988Y267490D01*
X408104Y268075D01*
Y279526D01*
X408604Y279733D01*
X411227Y277110D01*
X411485Y276487D01*
X411987Y275985D01*
X412644Y275713D01*
X413355D01*
X414012Y275985D01*
X414515Y276487D01*
X414787Y277145D01*
Y277855D01*
X414515Y278513D01*
X414012Y279015D01*
X413390Y279273D01*
X411029Y281633D01*
Y288367D01*
X414081Y291419D01*
X414413Y291915D01*
X414529Y292500D01*
Y293500D01*
X417539D01*
X417817Y293084D01*
X417789Y293017D01*
X421629D01*
X421761Y293076D01*
X423015Y291822D01*
Y289134D01*
X421547D01*
Y281228D01*
X423471D01*
Y263953D01*
X421547D01*
Y256047D01*
X428971D01*
Y254134D01*
X426367Y251529D01*
X388633D01*
X385029Y255134D01*
Y256022D01*
X385287Y256645D01*
Y257355D01*
X385015Y258013D01*
X384512Y258515D01*
X383856Y258787D01*
X383144D01*
X382488Y258515D01*
X381985Y258013D01*
X381713Y257355D01*
Y256645D01*
X381971Y256022D01*
Y254500D01*
X382087Y253915D01*
X382419Y253419D01*
X386919Y248919D01*
X387415Y248587D01*
X388000Y248471D01*
X427000D01*
X427585Y248587D01*
X428081Y248919D01*
X431581Y252419D01*
X431913Y252915D01*
X432029Y253500D01*
Y289367D01*
X436466Y293803D01*
X436468Y293802D01*
X437477Y293531D01*
X438522D01*
X439532Y293802D01*
X440437Y294324D01*
X441176Y295063D01*
X441698Y295968D01*
X441968Y296977D01*
Y298023D01*
X441698Y299032D01*
X441176Y299937D01*
X441011Y300101D01*
X441174Y300646D01*
X441581Y300919D01*
X444971Y304308D01*
X445408Y304171D01*
D02*
G37*
G36*
X434551Y299463D02*
X434302Y299032D01*
X434031Y298023D01*
Y296977D01*
X434302Y295968D01*
X434303Y295966D01*
X429419Y291081D01*
X429087Y290585D01*
X428971Y290000D01*
Y289134D01*
X426074D01*
Y292455D01*
X425958Y293040D01*
X425626Y293537D01*
X423692Y295471D01*
X423899Y295971D01*
X429000D01*
X429585Y296087D01*
X430082Y296419D01*
X433559Y299896D01*
X434301D01*
X434551Y299463D01*
D02*
G37*
G36*
X428971Y263953D02*
X426529D01*
Y281228D01*
X428971D01*
Y263953D01*
D02*
G37*
%LPC*%
G36*
X366500Y394728D02*
Y393500D01*
X367728D01*
X367515Y394012D01*
X367013Y394515D01*
X366500Y394728D01*
D02*
G37*
G36*
X365500D02*
X364987Y394515D01*
X364485Y394012D01*
X364272Y393500D01*
X365500D01*
Y394728D01*
D02*
G37*
G36*
X367728Y392500D02*
X366500D01*
Y391272D01*
X367013Y391485D01*
X367515Y391987D01*
X367728Y392500D01*
D02*
G37*
G36*
X365500D02*
X364272D01*
X364485Y391987D01*
X364987Y391485D01*
X365500Y391272D01*
Y392500D01*
D02*
G37*
G36*
X440500Y392228D02*
Y391000D01*
X441728D01*
X441515Y391512D01*
X441012Y392015D01*
X440500Y392228D01*
D02*
G37*
G36*
X439500D02*
X438987Y392015D01*
X438485Y391512D01*
X438272Y391000D01*
X439500D01*
Y392228D01*
D02*
G37*
G36*
X441728Y390000D02*
X440500D01*
Y388772D01*
X441012Y388985D01*
X441515Y389488D01*
X441728Y390000D01*
D02*
G37*
G36*
X439500D02*
X438272D01*
X438485Y389488D01*
X438987Y388985D01*
X439500Y388772D01*
Y390000D01*
D02*
G37*
G36*
X429500Y389228D02*
Y388000D01*
X430728D01*
X430515Y388512D01*
X430013Y389015D01*
X429500Y389228D01*
D02*
G37*
G36*
X428500D02*
X427987Y389015D01*
X427485Y388512D01*
X427272Y388000D01*
X428500D01*
Y389228D01*
D02*
G37*
G36*
X408280Y390874D02*
X403842D01*
Y387618D01*
X408280D01*
Y390874D01*
D02*
G37*
G36*
X386157D02*
X381720D01*
Y387618D01*
X386157D01*
Y390874D01*
D02*
G37*
G36*
X380720D02*
X376283D01*
Y387618D01*
X380720D01*
Y390874D01*
D02*
G37*
G36*
X430728Y387000D02*
X429500D01*
Y385772D01*
X430013Y385985D01*
X430515Y386488D01*
X430728Y387000D01*
D02*
G37*
G36*
X428500D02*
X427272D01*
X427485Y386488D01*
X427987Y385985D01*
X428500Y385772D01*
Y387000D01*
D02*
G37*
G36*
X440000Y385228D02*
Y384000D01*
X441228D01*
X441015Y384512D01*
X440513Y385015D01*
X440000Y385228D01*
D02*
G37*
G36*
X439000D02*
X438487Y385015D01*
X437985Y384512D01*
X437772Y384000D01*
X439000D01*
Y385228D01*
D02*
G37*
G36*
X441228Y383000D02*
X440000D01*
Y381772D01*
X440513Y381985D01*
X441015Y382488D01*
X441228Y383000D01*
D02*
G37*
G36*
X439000D02*
X437772D01*
X437985Y382488D01*
X438487Y381985D01*
X439000Y381772D01*
Y383000D01*
D02*
G37*
G36*
X421961Y375425D02*
X419000D01*
Y373350D01*
X421961D01*
Y375425D01*
D02*
G37*
G36*
X418000D02*
X415039D01*
Y373350D01*
X418000D01*
Y375425D01*
D02*
G37*
G36*
X421961Y372350D02*
X419000D01*
Y370276D01*
X421961D01*
Y372350D01*
D02*
G37*
G36*
X418000D02*
X415039D01*
Y370276D01*
X418000D01*
Y372350D01*
D02*
G37*
G36*
X412500Y371228D02*
Y370000D01*
X413728D01*
X413515Y370513D01*
X413013Y371015D01*
X412500Y371228D01*
D02*
G37*
G36*
X411500D02*
X410988Y371015D01*
X410485Y370513D01*
X410272Y370000D01*
X411500D01*
Y371228D01*
D02*
G37*
G36*
X413728Y369000D02*
X412500D01*
Y367772D01*
X413013Y367985D01*
X413515Y368488D01*
X413728Y369000D01*
D02*
G37*
G36*
X411500D02*
X410272D01*
X410485Y368488D01*
X410988Y367985D01*
X411500Y367772D01*
Y369000D01*
D02*
G37*
G36*
X412467Y359195D02*
Y357967D01*
X413695D01*
X413482Y358480D01*
X412980Y358982D01*
X412467Y359195D01*
D02*
G37*
G36*
X411467D02*
X410955Y358982D01*
X410452Y358480D01*
X410240Y357967D01*
X411467D01*
Y359195D01*
D02*
G37*
G36*
X438938Y369545D02*
X437772D01*
X436628Y369317D01*
X435550Y368871D01*
X434580Y368222D01*
X433755Y367398D01*
X433107Y366428D01*
X432661Y365350D01*
X432434Y364206D01*
Y363040D01*
X432661Y361896D01*
X433107Y360818D01*
X433755Y359848D01*
X434580Y359023D01*
X435550Y358375D01*
X436628Y357929D01*
X437772Y357701D01*
X438938D01*
X440082Y357929D01*
X441160Y358375D01*
X442130Y359023D01*
X442954Y359848D01*
X443603Y360818D01*
X444049Y361896D01*
X444277Y363040D01*
Y364206D01*
X444049Y365350D01*
X443603Y366428D01*
X442954Y367398D01*
X442130Y368222D01*
X441160Y368871D01*
X440082Y369317D01*
X438938Y369545D01*
D02*
G37*
G36*
X372566Y350228D02*
X372053Y350015D01*
X371550Y349513D01*
X371338Y349000D01*
X372566D01*
Y350228D01*
D02*
G37*
G36*
X375000Y305728D02*
Y304500D01*
X376228D01*
X376015Y305012D01*
X375513Y305515D01*
X375000Y305728D01*
D02*
G37*
G36*
X374000D02*
X373487Y305515D01*
X372985Y305012D01*
X372772Y304500D01*
X374000D01*
Y305728D01*
D02*
G37*
G36*
X376228Y303500D02*
X375000D01*
Y302272D01*
X375513Y302485D01*
X376015Y302988D01*
X376228Y303500D01*
D02*
G37*
G36*
X374000D02*
X372772D01*
X372985Y302988D01*
X373487Y302485D01*
X374000Y302272D01*
Y303500D01*
D02*
G37*
G36*
X397425Y281728D02*
Y280500D01*
X398653D01*
X398441Y281013D01*
X397938Y281515D01*
X397425Y281728D01*
D02*
G37*
G36*
X396425D02*
X395913Y281515D01*
X395410Y281013D01*
X395198Y280500D01*
X396425D01*
Y281728D01*
D02*
G37*
G36*
X405000Y351728D02*
Y350500D01*
X406228D01*
X406015Y351012D01*
X405513Y351515D01*
X405000Y351728D01*
D02*
G37*
G36*
X404000D02*
X403487Y351515D01*
X402985Y351012D01*
X402772Y350500D01*
X404000D01*
Y351728D01*
D02*
G37*
G36*
X406228Y349500D02*
X405000D01*
Y348272D01*
X405513Y348485D01*
X406015Y348988D01*
X406228Y349500D01*
D02*
G37*
G36*
X404000D02*
X402772D01*
X402985Y348988D01*
X403487Y348485D01*
X404000Y348272D01*
Y349500D01*
D02*
G37*
G36*
X400717Y338445D02*
Y337217D01*
X401945D01*
X401732Y337730D01*
X401230Y338232D01*
X400717Y338445D01*
D02*
G37*
G36*
X438522Y341469D02*
X437477D01*
X436468Y341198D01*
X435563Y340676D01*
X434824Y339937D01*
X434302Y339032D01*
X434031Y338022D01*
Y336978D01*
X434302Y335968D01*
X434824Y335063D01*
X435563Y334324D01*
X436468Y333802D01*
X437477Y333531D01*
X438522D01*
X439532Y333802D01*
X440437Y334324D01*
X441176Y335063D01*
X441698Y335968D01*
X441968Y336978D01*
Y338022D01*
X441698Y339032D01*
X441176Y339937D01*
X440437Y340676D01*
X439532Y341198D01*
X438522Y341469D01*
D02*
G37*
G36*
X422500Y316500D02*
X421272D01*
X421485Y315987D01*
X421987Y315485D01*
X422500Y315272D01*
Y316500D01*
D02*
G37*
G36*
X399500Y316224D02*
Y314996D01*
X400728D01*
X400515Y315509D01*
X400012Y316012D01*
X399500Y316224D01*
D02*
G37*
G36*
X398500D02*
X397988Y316012D01*
X397485Y315509D01*
X397272Y314996D01*
X398500D01*
Y316224D01*
D02*
G37*
G36*
X401823Y313905D02*
Y312677D01*
X403050D01*
X402838Y313190D01*
X402335Y313692D01*
X401823Y313905D01*
D02*
G37*
G36*
X396130Y313857D02*
X395617Y313645D01*
X395114Y313142D01*
X394902Y312630D01*
X396130D01*
Y313857D01*
D02*
G37*
G36*
X403050Y311677D02*
X401823D01*
Y310450D01*
X402335Y310662D01*
X402838Y311165D01*
X403050Y311677D01*
D02*
G37*
G36*
X396130Y311630D02*
X394902D01*
X395114Y311117D01*
X395617Y310614D01*
X396130Y310402D01*
Y311630D01*
D02*
G37*
G36*
X400823Y313996D02*
X397130D01*
Y312130D01*
Y310303D01*
X400823D01*
Y312177D01*
Y313996D01*
D02*
G37*
G36*
X421244Y292017D02*
X420017D01*
Y290789D01*
X420529Y291002D01*
X421032Y291504D01*
X421244Y292017D01*
D02*
G37*
G36*
X419017D02*
X417789D01*
X418002Y291504D01*
X418504Y291002D01*
X419017Y290789D01*
Y292017D01*
D02*
G37*
G36*
X416020Y289134D02*
X416000D01*
Y285681D01*
X419453D01*
Y285701D01*
X419183Y286707D01*
X418663Y287608D01*
X417927Y288344D01*
X417026Y288864D01*
X416020Y289134D01*
D02*
G37*
G36*
X415000D02*
X414980D01*
X413974Y288864D01*
X413073Y288344D01*
X412337Y287608D01*
X411817Y286707D01*
X411547Y285701D01*
Y285681D01*
X415000D01*
Y289134D01*
D02*
G37*
G36*
X438522Y291469D02*
X437477D01*
X436468Y291198D01*
X435563Y290676D01*
X434824Y289937D01*
X434302Y289032D01*
X434031Y288022D01*
Y286978D01*
X434302Y285968D01*
X434824Y285063D01*
X435563Y284324D01*
X436468Y283802D01*
X437477Y283531D01*
X438522D01*
X439532Y283802D01*
X440437Y284324D01*
X441176Y285063D01*
X441698Y285968D01*
X441968Y286978D01*
Y288022D01*
X441698Y289032D01*
X441176Y289937D01*
X440437Y290676D01*
X439532Y291198D01*
X438522Y291469D01*
D02*
G37*
G36*
X419453Y284681D02*
X416000D01*
Y281228D01*
X416020D01*
X417026Y281498D01*
X417927Y282018D01*
X418663Y282754D01*
X419183Y283655D01*
X419453Y284661D01*
Y284681D01*
D02*
G37*
G36*
X415000D02*
X411547D01*
Y284661D01*
X411817Y283655D01*
X412337Y282754D01*
X413073Y282018D01*
X413974Y281498D01*
X414980Y281228D01*
X415000D01*
Y284681D01*
D02*
G37*
G36*
X438522Y281469D02*
X437477D01*
X436468Y281198D01*
X435563Y280676D01*
X434824Y279937D01*
X434302Y279032D01*
X434031Y278023D01*
Y276977D01*
X434302Y275968D01*
X434824Y275063D01*
X435563Y274324D01*
X436468Y273802D01*
X437477Y273532D01*
X438522D01*
X439532Y273802D01*
X440437Y274324D01*
X441176Y275063D01*
X441698Y275968D01*
X441968Y276977D01*
Y278023D01*
X441698Y279032D01*
X441176Y279937D01*
X440437Y280676D01*
X439532Y281198D01*
X438522Y281469D01*
D02*
G37*
G36*
X358523D02*
X357477D01*
X356468Y281198D01*
X355563Y280676D01*
X354824Y279937D01*
X354302Y279032D01*
X354031Y278023D01*
Y276977D01*
X354302Y275968D01*
X354824Y275063D01*
X355563Y274324D01*
X356468Y273802D01*
X357477Y273532D01*
X358523D01*
X359532Y273802D01*
X360437Y274324D01*
X361176Y275063D01*
X361698Y275968D01*
X361968Y276977D01*
Y278023D01*
X361698Y279032D01*
X361176Y279937D01*
X360437Y280676D01*
X359532Y281198D01*
X358523Y281469D01*
D02*
G37*
G36*
X386500Y271302D02*
Y270075D01*
X387728D01*
X387515Y270587D01*
X387013Y271090D01*
X386500Y271302D01*
D02*
G37*
G36*
X385500D02*
X384987Y271090D01*
X384485Y270587D01*
X384272Y270075D01*
X385500D01*
Y271302D01*
D02*
G37*
G36*
X387728Y269075D02*
X386500D01*
Y267847D01*
X387013Y268059D01*
X387515Y268562D01*
X387728Y269075D01*
D02*
G37*
G36*
X385500D02*
X384272D01*
X384485Y268562D01*
X384987Y268059D01*
X385500Y267847D01*
Y269075D01*
D02*
G37*
G36*
X438522Y271468D02*
X437477D01*
X436468Y271198D01*
X435563Y270676D01*
X434824Y269937D01*
X434302Y269032D01*
X434031Y268022D01*
Y266978D01*
X434302Y265968D01*
X434824Y265063D01*
X435563Y264324D01*
X436468Y263802D01*
X437477Y263531D01*
X438522D01*
X439532Y263802D01*
X440437Y264324D01*
X441176Y265063D01*
X441698Y265968D01*
X441968Y266978D01*
Y268022D01*
X441698Y269032D01*
X441176Y269937D01*
X440437Y270676D01*
X439532Y271198D01*
X438522Y271468D01*
D02*
G37*
G36*
X358523D02*
X357477D01*
X356468Y271198D01*
X355563Y270676D01*
X354824Y269937D01*
X354302Y269032D01*
X354031Y268022D01*
Y266978D01*
X354302Y265968D01*
X354824Y265063D01*
X355563Y264324D01*
X356468Y263802D01*
X357477Y263531D01*
X358523D01*
X359532Y263802D01*
X360437Y264324D01*
X361176Y265063D01*
X361698Y265968D01*
X361968Y266978D01*
Y268022D01*
X361698Y269032D01*
X361176Y269937D01*
X360437Y270676D01*
X359532Y271198D01*
X358523Y271468D01*
D02*
G37*
G36*
X416020Y263953D02*
X416000D01*
Y260500D01*
X419453D01*
Y260520D01*
X419183Y261526D01*
X418663Y262427D01*
X417927Y263163D01*
X417026Y263683D01*
X416020Y263953D01*
D02*
G37*
G36*
X415000D02*
X414980D01*
X413974Y263683D01*
X413073Y263163D01*
X412337Y262427D01*
X411817Y261526D01*
X411547Y260520D01*
Y260500D01*
X415000D01*
Y263953D01*
D02*
G37*
G36*
X419453Y259500D02*
X416000D01*
Y256047D01*
X416020D01*
X417026Y256317D01*
X417927Y256837D01*
X418663Y257573D01*
X419183Y258474D01*
X419453Y259480D01*
Y259500D01*
D02*
G37*
G36*
X415000D02*
X411547D01*
Y259480D01*
X411817Y258474D01*
X412337Y257573D01*
X413073Y256837D01*
X413974Y256317D01*
X414980Y256047D01*
X415000D01*
Y259500D01*
D02*
G37*
G36*
X438522Y261469D02*
X437477D01*
X436468Y261198D01*
X435563Y260676D01*
X434824Y259937D01*
X434302Y259032D01*
X434031Y258022D01*
Y256978D01*
X434302Y255968D01*
X434824Y255063D01*
X435563Y254324D01*
X436468Y253802D01*
X437477Y253532D01*
X438522D01*
X439532Y253802D01*
X440437Y254324D01*
X441176Y255063D01*
X441698Y255968D01*
X441968Y256978D01*
Y258022D01*
X441698Y259032D01*
X441176Y259937D01*
X440437Y260676D01*
X439532Y261198D01*
X438522Y261469D01*
D02*
G37*
G36*
X358523D02*
X357477D01*
X356468Y261198D01*
X355563Y260676D01*
X354824Y259937D01*
X354302Y259032D01*
X354031Y258022D01*
Y256978D01*
X354302Y255968D01*
X354824Y255063D01*
X355563Y254324D01*
X356468Y253802D01*
X357477Y253532D01*
X358523D01*
X359532Y253802D01*
X360437Y254324D01*
X361176Y255063D01*
X361698Y255968D01*
X361968Y256978D01*
Y258022D01*
X361698Y259032D01*
X361176Y259937D01*
X360437Y260676D01*
X359532Y261198D01*
X358523Y261469D01*
D02*
G37*
G36*
X438522Y251468D02*
X437477D01*
X436468Y251198D01*
X435563Y250676D01*
X434824Y249937D01*
X434302Y249032D01*
X434031Y248023D01*
Y246977D01*
X434302Y245968D01*
X434824Y245063D01*
X435563Y244324D01*
X436468Y243802D01*
X437477Y243531D01*
X438522D01*
X439532Y243802D01*
X440437Y244324D01*
X441176Y245063D01*
X441698Y245968D01*
X441968Y246977D01*
Y248023D01*
X441698Y249032D01*
X441176Y249937D01*
X440437Y250676D01*
X439532Y251198D01*
X438522Y251468D01*
D02*
G37*
G36*
Y241469D02*
X437477D01*
X436468Y241198D01*
X435563Y240676D01*
X434824Y239937D01*
X434302Y239032D01*
X434031Y238022D01*
Y236978D01*
X434302Y235968D01*
X434824Y235063D01*
X435563Y234324D01*
X436468Y233802D01*
X437477Y233531D01*
X438522D01*
X439532Y233802D01*
X440437Y234324D01*
X441176Y235063D01*
X441698Y235968D01*
X441968Y236978D01*
Y238022D01*
X441698Y239032D01*
X441176Y239937D01*
X440437Y240676D01*
X439532Y241198D01*
X438522Y241469D01*
D02*
G37*
G36*
X402520Y233272D02*
X402500D01*
Y229819D01*
X405953D01*
Y229839D01*
X405683Y230845D01*
X405163Y231746D01*
X404427Y232482D01*
X403526Y233002D01*
X402520Y233272D01*
D02*
G37*
G36*
X401500D02*
X401480D01*
X400474Y233002D01*
X399573Y232482D01*
X398837Y231746D01*
X398317Y230845D01*
X398047Y229839D01*
Y229819D01*
X401500D01*
Y233272D01*
D02*
G37*
G36*
X426020Y234272D02*
X424980D01*
X423974Y234002D01*
X423073Y233482D01*
X422337Y232746D01*
X421817Y231845D01*
X421547Y230839D01*
Y229799D01*
X421817Y228793D01*
X422337Y227892D01*
X423073Y227156D01*
X423974Y226636D01*
X424980Y226366D01*
X426020D01*
X427026Y226636D01*
X427927Y227156D01*
X428663Y227892D01*
X429183Y228793D01*
X429453Y229799D01*
Y230839D01*
X429183Y231845D01*
X428663Y232746D01*
X427927Y233482D01*
X427026Y234002D01*
X426020Y234272D01*
D02*
G37*
G36*
X419453D02*
X411547D01*
Y226366D01*
X419453D01*
Y234272D01*
D02*
G37*
G36*
X405953Y228819D02*
X402500D01*
Y225366D01*
X402520D01*
X403526Y225636D01*
X404427Y226156D01*
X405163Y226892D01*
X405683Y227793D01*
X405953Y228799D01*
Y228819D01*
D02*
G37*
G36*
X401500D02*
X398047D01*
Y228799D01*
X398317Y227793D01*
X398837Y226892D01*
X399573Y226156D01*
X400474Y225636D01*
X401480Y225366D01*
X401500D01*
Y228819D01*
D02*
G37*
G36*
X392520Y233272D02*
X391480D01*
X390474Y233002D01*
X389573Y232482D01*
X388837Y231746D01*
X388317Y230845D01*
X388047Y229839D01*
Y228799D01*
X388317Y227793D01*
X388837Y226892D01*
X389573Y226156D01*
X390474Y225636D01*
X391480Y225366D01*
X392520D01*
X393526Y225636D01*
X394427Y226156D01*
X395163Y226892D01*
X395683Y227793D01*
X395953Y228799D01*
Y229839D01*
X395683Y230845D01*
X395163Y231746D01*
X394427Y232482D01*
X393526Y233002D01*
X392520Y233272D01*
D02*
G37*
G36*
X382520D02*
X381480D01*
X380474Y233002D01*
X379573Y232482D01*
X378837Y231746D01*
X378317Y230845D01*
X378047Y229839D01*
Y228799D01*
X378317Y227793D01*
X378837Y226892D01*
X379573Y226156D01*
X380474Y225636D01*
X381480Y225366D01*
X382520D01*
X383526Y225636D01*
X384427Y226156D01*
X385163Y226892D01*
X385683Y227793D01*
X385953Y228799D01*
Y229839D01*
X385683Y230845D01*
X385163Y231746D01*
X384427Y232482D01*
X383526Y233002D01*
X382520Y233272D01*
D02*
G37*
G36*
X358523Y241469D02*
X357477D01*
X356468Y241198D01*
X355563Y240676D01*
X354824Y239937D01*
X354302Y239032D01*
X354031Y238022D01*
Y236978D01*
X354302Y235968D01*
X354824Y235063D01*
X355563Y234324D01*
X356468Y233802D01*
X357477Y233531D01*
X358523D01*
X359532Y233802D01*
X359534Y233803D01*
X365100Y228237D01*
X365596Y227906D01*
X366181Y227789D01*
X368047D01*
Y225366D01*
X375953D01*
Y233272D01*
X368047D01*
Y230848D01*
X366815D01*
X361697Y235966D01*
X361698Y235968D01*
X361968Y236978D01*
Y238022D01*
X361698Y239032D01*
X361176Y239937D01*
X360437Y240676D01*
X359532Y241198D01*
X358523Y241469D01*
D02*
G37*
G36*
X438522Y231469D02*
X437477D01*
X436468Y231198D01*
X435563Y230676D01*
X434824Y229937D01*
X434302Y229032D01*
X434031Y228023D01*
Y226977D01*
X434302Y225968D01*
X434824Y225063D01*
X435563Y224324D01*
X436468Y223802D01*
X437477Y223532D01*
X438522D01*
X439532Y223802D01*
X440437Y224324D01*
X441176Y225063D01*
X441698Y225968D01*
X441968Y226977D01*
Y228023D01*
X441698Y229032D01*
X441176Y229937D01*
X440437Y230676D01*
X439532Y231198D01*
X438522Y231469D01*
D02*
G37*
G36*
X358523D02*
X357477D01*
X356468Y231198D01*
X355563Y230676D01*
X354824Y229937D01*
X354302Y229032D01*
X354031Y228023D01*
Y226977D01*
X354302Y225968D01*
X354824Y225063D01*
X355563Y224324D01*
X356468Y223802D01*
X357477Y223532D01*
X358523D01*
X359532Y223802D01*
X360437Y224324D01*
X361176Y225063D01*
X361698Y225968D01*
X361968Y226977D01*
Y228023D01*
X361698Y229032D01*
X361176Y229937D01*
X360437Y230676D01*
X359532Y231198D01*
X358523Y231469D01*
D02*
G37*
G36*
X438522Y221468D02*
X437477D01*
X436468Y221198D01*
X435563Y220676D01*
X434824Y219937D01*
X434302Y219032D01*
X434031Y218022D01*
Y216978D01*
X434302Y215968D01*
X434824Y215063D01*
X435563Y214324D01*
X436468Y213802D01*
X437477Y213531D01*
X438522D01*
X439532Y213802D01*
X440437Y214324D01*
X441176Y215063D01*
X441698Y215968D01*
X441968Y216978D01*
Y218022D01*
X441698Y219032D01*
X441176Y219937D01*
X440437Y220676D01*
X439532Y221198D01*
X438522Y221468D01*
D02*
G37*
G36*
X358523D02*
X357477D01*
X356468Y221198D01*
X355563Y220676D01*
X354824Y219937D01*
X354302Y219032D01*
X354031Y218022D01*
Y216978D01*
X354302Y215968D01*
X354824Y215063D01*
X355563Y214324D01*
X356468Y213802D01*
X357477Y213531D01*
X358523D01*
X359532Y213802D01*
X360437Y214324D01*
X361176Y215063D01*
X361698Y215968D01*
X361968Y216978D01*
Y218022D01*
X361698Y219032D01*
X361176Y219937D01*
X360437Y220676D01*
X359532Y221198D01*
X358523Y221468D01*
D02*
G37*
G36*
X430453Y208953D02*
X422547D01*
Y201047D01*
X430453D01*
Y208953D01*
D02*
G37*
G36*
X396020Y179453D02*
X396000D01*
Y176000D01*
X399453D01*
Y176020D01*
X399183Y177026D01*
X398663Y177927D01*
X397927Y178663D01*
X397026Y179183D01*
X396020Y179453D01*
D02*
G37*
G36*
X395000D02*
X394980D01*
X393974Y179183D01*
X393073Y178663D01*
X392337Y177927D01*
X391817Y177026D01*
X391547Y176020D01*
Y176000D01*
X395000D01*
Y179453D01*
D02*
G37*
G36*
X427020Y178953D02*
X427000D01*
Y175500D01*
X430453D01*
Y175520D01*
X430183Y176526D01*
X429663Y177427D01*
X428927Y178163D01*
X428026Y178683D01*
X427020Y178953D01*
D02*
G37*
G36*
X426000D02*
X425980D01*
X424974Y178683D01*
X424073Y178163D01*
X423337Y177427D01*
X422817Y176526D01*
X422547Y175520D01*
Y175500D01*
X426000D01*
Y178953D01*
D02*
G37*
G36*
X417500Y173228D02*
Y172000D01*
X418728D01*
X418515Y172512D01*
X418013Y173015D01*
X417500Y173228D01*
D02*
G37*
G36*
X416500D02*
X415987Y173015D01*
X415485Y172512D01*
X415272Y172000D01*
X416500D01*
Y173228D01*
D02*
G37*
G36*
X399453Y175000D02*
X396000D01*
Y171547D01*
X396020D01*
X397026Y171817D01*
X397927Y172337D01*
X398663Y173073D01*
X399183Y173974D01*
X399453Y174980D01*
Y175000D01*
D02*
G37*
G36*
X395000D02*
X391547D01*
Y174980D01*
X391817Y173974D01*
X392337Y173073D01*
X393073Y172337D01*
X393974Y171817D01*
X394980Y171547D01*
X395000D01*
Y175000D01*
D02*
G37*
G36*
X366020Y179453D02*
X364980D01*
X363974Y179183D01*
X363073Y178663D01*
X362337Y177927D01*
X361817Y177026D01*
X361547Y176020D01*
Y174980D01*
X361817Y173974D01*
X362337Y173073D01*
X363073Y172337D01*
X363974Y171817D01*
X364980Y171547D01*
X366020D01*
X367026Y171817D01*
X367927Y172337D01*
X368663Y173073D01*
X369183Y173974D01*
X369453Y174980D01*
Y176020D01*
X369183Y177026D01*
X368663Y177927D01*
X367927Y178663D01*
X367026Y179183D01*
X366020Y179453D01*
D02*
G37*
G36*
X430453Y174500D02*
X427000D01*
Y171047D01*
X427020D01*
X428026Y171317D01*
X428927Y171837D01*
X429663Y172573D01*
X430183Y173474D01*
X430453Y174480D01*
Y174500D01*
D02*
G37*
G36*
X426000D02*
X422547D01*
Y174480D01*
X422817Y173474D01*
X423337Y172573D01*
X424073Y171837D01*
X424974Y171317D01*
X425980Y171047D01*
X426000D01*
Y174500D01*
D02*
G37*
G36*
X418728Y171000D02*
X417500D01*
Y169772D01*
X418013Y169985D01*
X418515Y170487D01*
X418728Y171000D01*
D02*
G37*
G36*
X416500D02*
X415272D01*
X415485Y170487D01*
X415987Y169985D01*
X416500Y169772D01*
Y171000D01*
D02*
G37*
G36*
X386000Y159728D02*
Y158500D01*
X387228D01*
X387015Y159012D01*
X386512Y159515D01*
X386000Y159728D01*
D02*
G37*
G36*
X385000D02*
X384488Y159515D01*
X383985Y159012D01*
X383772Y158500D01*
X385000D01*
Y159728D01*
D02*
G37*
G36*
X387228Y157500D02*
X386000D01*
Y156272D01*
X386512Y156485D01*
X387015Y156988D01*
X387228Y157500D01*
D02*
G37*
G36*
X385000D02*
X383772D01*
X383985Y156988D01*
X384488Y156485D01*
X385000Y156272D01*
Y157500D01*
D02*
G37*
G36*
X443500Y157228D02*
X442987Y157015D01*
X442485Y156512D01*
X442272Y156000D01*
X443500D01*
Y157228D01*
D02*
G37*
G36*
Y155000D02*
X442272D01*
X442485Y154488D01*
X442987Y153985D01*
X443500Y153772D01*
Y155000D01*
D02*
G37*
G36*
X361500Y154728D02*
Y153500D01*
X362728D01*
X362515Y154013D01*
X362013Y154515D01*
X361500Y154728D01*
D02*
G37*
G36*
X360500D02*
X359987Y154515D01*
X359485Y154013D01*
X359272Y153500D01*
X360500D01*
Y154728D01*
D02*
G37*
G36*
X362728Y152500D02*
X361500D01*
Y151272D01*
X362013Y151485D01*
X362515Y151988D01*
X362728Y152500D01*
D02*
G37*
G36*
X360500D02*
X359272D01*
X359485Y151988D01*
X359987Y151485D01*
X360500Y151272D01*
Y152500D01*
D02*
G37*
G36*
X428500Y145728D02*
Y144500D01*
X429728D01*
X429515Y145012D01*
X429012Y145515D01*
X428500Y145728D01*
D02*
G37*
G36*
X427500D02*
X426988Y145515D01*
X426485Y145012D01*
X426272Y144500D01*
X427500D01*
Y145728D01*
D02*
G37*
G36*
X399356Y148787D02*
X398644D01*
X397988Y148515D01*
X397485Y148012D01*
X397213Y147355D01*
Y146644D01*
X397485Y145987D01*
X397988Y145485D01*
X398644Y145213D01*
X399356D01*
X399978Y145471D01*
X420984D01*
Y145441D01*
X421100Y144856D01*
X421431Y144360D01*
X421543Y144249D01*
Y144113D01*
X421815Y143456D01*
X422318Y142954D01*
X422974Y142681D01*
X423686D01*
X424342Y142954D01*
X424845Y143456D01*
X425117Y144113D01*
Y144824D01*
X424845Y145481D01*
X424342Y145984D01*
X424042Y146108D01*
Y146332D01*
X423926Y146917D01*
X423594Y147413D01*
X422926Y148081D01*
X422430Y148413D01*
X421844Y148529D01*
X399978D01*
X399356Y148787D01*
D02*
G37*
G36*
X429728Y143500D02*
X428500D01*
Y142272D01*
X429012Y142485D01*
X429515Y142988D01*
X429728Y143500D01*
D02*
G37*
G36*
X427500D02*
X426272D01*
X426485Y142988D01*
X426988Y142485D01*
X427500Y142272D01*
Y143500D01*
D02*
G37*
G36*
X438938Y145134D02*
X437772D01*
X436628Y144907D01*
X435550Y144461D01*
X434580Y143813D01*
X433755Y142988D01*
X433107Y142018D01*
X432661Y140940D01*
X432434Y139796D01*
Y138630D01*
X432661Y137486D01*
X433107Y136408D01*
X433755Y135438D01*
X434580Y134614D01*
X435550Y133965D01*
X436628Y133519D01*
X437772Y133291D01*
X438938D01*
X440082Y133519D01*
X441160Y133965D01*
X442130Y134614D01*
X442954Y135438D01*
X443603Y136408D01*
X444049Y137486D01*
X444277Y138630D01*
Y139796D01*
X444049Y140940D01*
X443603Y142018D01*
X442954Y142988D01*
X442130Y143813D01*
X441160Y144461D01*
X440082Y144907D01*
X438938Y145134D01*
D02*
G37*
G36*
X358229D02*
X357063D01*
X355919Y144907D01*
X354841Y144461D01*
X353871Y143813D01*
X353046Y142988D01*
X352398Y142018D01*
X351952Y140940D01*
X351725Y139796D01*
Y138630D01*
X351952Y137486D01*
X352398Y136408D01*
X353046Y135438D01*
X353871Y134614D01*
X354841Y133965D01*
X355919Y133519D01*
X357063Y133291D01*
X358229D01*
X359373Y133519D01*
X360451Y133965D01*
X361421Y134614D01*
X362245Y135438D01*
X362894Y136408D01*
X363340Y137486D01*
X363567Y138630D01*
Y139796D01*
X363340Y140940D01*
X362894Y142018D01*
X362245Y142988D01*
X361421Y143813D01*
X360451Y144461D01*
X359373Y144907D01*
X358229Y145134D01*
D02*
G37*
%LPD*%
D12*
X423330Y144469D02*
Y144624D01*
X422513Y145441D02*
Y146332D01*
X421844Y147000D02*
X422513Y146332D01*
Y145441D02*
X423330Y144624D01*
X399000Y147000D02*
X421844D01*
X418500Y379086D02*
Y379150D01*
Y386047D02*
X422953Y390500D01*
X418500Y379150D02*
Y386047D01*
X398500Y331000D02*
X402500Y327000D01*
X390086Y331000D02*
X398500D01*
X409000Y325000D02*
X413500D01*
X391000Y343000D02*
X409000Y325000D01*
X388066Y343000D02*
X391000D01*
X385500Y337500D02*
X388925Y340925D01*
X399108Y355392D02*
X403392D01*
X391000Y343000D02*
X403392Y355392D01*
X411108D01*
X386086Y346586D02*
X395533Y356033D01*
X387967Y345533D02*
X387967D01*
X378586Y346586D02*
X386086D01*
X385990Y343556D02*
X387967Y345533D01*
X382056Y343556D02*
X385990D01*
X384056Y342056D02*
X387122D01*
X364222Y332222D02*
X378586Y346586D01*
X392500Y362000D02*
X399108Y355392D01*
X411108D02*
X423000Y343500D01*
X395500Y372594D02*
X398532Y375626D01*
X408780D01*
X387000Y380500D02*
X392500Y375000D01*
X362000Y380500D02*
X387000D01*
X392500Y362000D02*
Y375000D01*
X423000Y343500D02*
X432000Y352500D01*
X381000Y367500D02*
Y367655D01*
X367397Y353898D02*
X381000Y367500D01*
Y367655D02*
X381220Y367876D01*
Y375626D01*
X367397Y346898D02*
Y353898D01*
X361000Y384000D02*
X410547D01*
X417047Y390500D01*
X358000Y327500D02*
Y328536D01*
X384390Y355390D02*
X384500Y355500D01*
X358000Y328536D02*
X384390Y354926D01*
X364222Y323722D02*
Y332222D01*
X384390Y354926D02*
Y355390D01*
X366500Y328000D02*
X382056Y343556D01*
X366500Y316000D02*
Y328000D01*
X353064Y370064D02*
X354500Y371500D01*
X353189Y369110D02*
X353299Y369000D01*
X353189Y369110D02*
Y369938D01*
X353064Y370064D02*
X353189Y369938D01*
X354500Y371500D02*
X364500D01*
X367500Y361000D02*
Y368500D01*
X364500Y371500D02*
X367500Y368500D01*
X363500Y353218D02*
Y357000D01*
X367500Y361000D01*
X372500Y330500D02*
X384056Y342056D01*
X387122D02*
X388066Y343000D01*
X413000Y297500D02*
X415500Y300000D01*
Y300914D01*
X416086Y301500D01*
X422914D01*
X350500Y355000D02*
X358000Y347500D01*
X350500Y355000D02*
Y373500D01*
X361000Y384000D01*
X358000Y337500D02*
X367397Y346898D01*
X432879Y303500D02*
X433000D01*
X430379Y301000D02*
X432879Y303500D01*
X426000Y301000D02*
X430379D01*
X432925Y301425D02*
X435606D01*
X429000Y297500D02*
X432925Y301425D01*
X435606D02*
X436181Y302000D01*
X440500D01*
X419500Y297500D02*
X429000D01*
X409399Y303500D02*
X427000D01*
X431000Y307500D01*
X438000D01*
X406575Y268075D02*
Y284226D01*
X406425Y284375D02*
X406575Y284226D01*
X406425Y284375D02*
Y300526D01*
X409399Y303500D01*
X400000Y261500D02*
X406575Y268075D01*
X423000Y307000D02*
X429707Y313707D01*
X395510Y307000D02*
X423000D01*
X426000Y305500D02*
X438000Y317500D01*
X393931Y305500D02*
X426000D01*
X429707Y313707D02*
Y319207D01*
X422914Y301500D02*
X423414Y301000D01*
X429707Y319207D02*
X438000Y327500D01*
X423414Y301000D02*
X426000D01*
X425000Y318000D02*
X426500D01*
X421914Y321086D02*
X425000Y318000D01*
X413000Y292500D02*
Y297500D01*
X409500Y281000D02*
Y289000D01*
X413000Y292500D01*
X409500Y281000D02*
X413000Y277500D01*
X350500Y202879D02*
Y290000D01*
X358000Y297500D01*
X350500Y202879D02*
X356439Y196939D01*
X357061D02*
X363000Y191000D01*
X356439Y196939D02*
X357061D01*
X352000Y281500D02*
X358000Y287500D01*
X352000Y203500D02*
X355281Y200219D01*
X352000Y203500D02*
Y281500D01*
X355281Y200219D02*
X390781D01*
X395500Y195500D01*
X363000Y191000D02*
X375836D01*
X381336Y185500D02*
X395500D01*
X375836Y191000D02*
X381336Y185500D01*
X395500D02*
X395750Y185250D01*
X426250D02*
X426500Y185000D01*
X395750Y185250D02*
X426250D01*
X395500Y195500D02*
X395750Y195250D01*
X426250D01*
X426500Y195000D01*
X358000Y297500D02*
X371000Y284500D01*
X399000D01*
X385500Y261500D02*
X400000D01*
X369000Y276500D02*
X404500D01*
X358000Y287500D02*
X369000Y276500D01*
X383500Y254500D02*
Y257000D01*
Y254500D02*
X388000Y250000D01*
X427000D01*
X430500Y253500D01*
Y290000D01*
X438000Y297500D01*
X440500Y302000D02*
X444000Y305500D01*
X390431Y309000D02*
X393931Y305500D01*
X391435Y311075D02*
X395510Y307000D01*
X387952Y311075D02*
X391435D01*
X358000Y237500D02*
X366181Y229319D01*
X372000D01*
X358000Y307500D02*
X366500Y316000D01*
X358000Y317500D02*
X364222Y323722D01*
X385500Y326000D02*
Y337500D01*
X372500Y326000D02*
Y330500D01*
X424545Y285588D02*
X425000Y285132D01*
Y260181D02*
Y285132D01*
X424545Y285588D02*
Y292455D01*
X419500Y297500D02*
X424545Y292455D01*
X444000Y305500D02*
Y350000D01*
X441500Y352500D02*
X444000Y350000D01*
X432000Y352500D02*
X441500D01*
X392000Y319293D02*
Y327886D01*
X388500Y315793D02*
X392000Y319293D01*
X388500Y315740D02*
Y315793D01*
X426500Y325000D02*
Y340000D01*
X372182Y316974D02*
Y317682D01*
X370575Y315368D02*
X372182Y316974D01*
X370575Y315347D02*
Y315368D01*
X372182Y317682D02*
X376500Y322000D01*
Y323500D01*
X389500Y330414D02*
X390086Y331000D01*
X389500Y322586D02*
Y330414D01*
X388914Y322000D02*
X389500Y322586D01*
X388661Y322000D02*
X388914D01*
X388075Y321414D02*
X388661Y322000D01*
X388075Y319150D02*
Y321414D01*
X386425Y317501D02*
X388075Y319150D01*
X386425Y316581D02*
Y317501D01*
X385500Y315655D02*
X386425Y316581D01*
X385500Y315500D02*
Y315655D01*
X376500Y323500D02*
X379000Y326000D01*
X382301Y305719D02*
Y316311D01*
X386000Y320010D01*
X382301Y305719D02*
X387519Y300500D01*
X421914Y321086D02*
Y323086D01*
X420000Y325000D02*
X421914Y323086D01*
X387500Y289000D02*
X393075Y294575D01*
X387519Y300500D02*
X391000D01*
X393075Y294575D02*
Y301359D01*
X383801Y309857D02*
X387334Y313391D01*
X389541D02*
X396651Y320500D01*
X383801Y306340D02*
X386523Y303617D01*
X390817D02*
X393075Y301359D01*
X386523Y303617D02*
X390817D01*
X387334Y313391D02*
X389541D01*
X383801Y306340D02*
Y309857D01*
X396651Y320500D02*
X399881D01*
X400124Y320257D02*
X402668D01*
X399881Y320500D02*
X400124Y320257D01*
X386575Y306500D02*
Y306575D01*
X389000Y309000D01*
X385876Y308998D02*
X387952Y311075D01*
X389000Y309000D02*
X390431D01*
X411500Y312000D02*
X421500D01*
D59*
X438000Y277500D02*
D03*
Y347500D02*
D03*
Y337500D02*
D03*
Y327500D02*
D03*
Y317500D02*
D03*
Y307500D02*
D03*
Y297500D02*
D03*
Y287500D02*
D03*
Y267500D02*
D03*
Y257500D02*
D03*
Y247500D02*
D03*
Y237500D02*
D03*
Y227500D02*
D03*
Y217500D02*
D03*
X358000D02*
D03*
Y227500D02*
D03*
Y237500D02*
D03*
Y247500D02*
D03*
Y257500D02*
D03*
Y267500D02*
D03*
Y277500D02*
D03*
Y287500D02*
D03*
Y297500D02*
D03*
Y307500D02*
D03*
Y317500D02*
D03*
Y327500D02*
D03*
Y337500D02*
D03*
Y347500D02*
D03*
D60*
X438355Y363623D02*
D03*
X357646D02*
D03*
Y139213D02*
D03*
X438355D02*
D03*
D61*
X365500Y175500D02*
D03*
Y185500D02*
D03*
Y195500D02*
D03*
X415500Y285181D02*
D03*
X402000Y229319D02*
D03*
X392000D02*
D03*
X382000D02*
D03*
X415500Y260000D02*
D03*
X425500Y230319D02*
D03*
X426500Y195000D02*
D03*
Y185000D02*
D03*
Y175000D02*
D03*
X395500Y195500D02*
D03*
Y185500D02*
D03*
Y175500D02*
D03*
D62*
X365500Y205500D02*
D03*
X426500Y205000D02*
D03*
X395500Y205500D02*
D03*
D63*
X425500Y285181D02*
D03*
X372000Y229319D02*
D03*
X425500Y260000D02*
D03*
X415500Y230319D02*
D03*
D64*
X428000Y144000D02*
D03*
X423330Y144469D02*
D03*
X400217Y336717D02*
D03*
X388925Y340925D02*
D03*
X387967Y345533D02*
D03*
X395533Y356033D02*
D03*
X404500Y350000D02*
D03*
X395500Y372594D02*
D03*
X411967Y357467D02*
D03*
X381000Y367500D02*
D03*
X412000Y369500D02*
D03*
X366000Y393000D02*
D03*
X429000Y387500D02*
D03*
X373066Y348500D02*
D03*
X353299Y369000D02*
D03*
X363500Y353218D02*
D03*
X362000Y380500D02*
D03*
X361000Y153000D02*
D03*
X417000Y171500D02*
D03*
X399000Y147000D02*
D03*
X433000Y303500D02*
D03*
X402500Y327000D02*
D03*
X396925Y280000D02*
D03*
X386000Y269575D02*
D03*
X419517Y292517D02*
D03*
X426000Y301000D02*
D03*
X426500Y318000D02*
D03*
X374500Y304000D02*
D03*
X399004Y309803D02*
D03*
X399000Y314496D02*
D03*
X401323Y312177D02*
D03*
X398976Y312150D02*
D03*
X396630Y312130D02*
D03*
X413000Y277500D02*
D03*
X399000Y284500D02*
D03*
X404500Y276500D02*
D03*
X383500Y257000D02*
D03*
X405965Y303000D02*
D03*
X385500Y261500D02*
D03*
X384500Y355500D02*
D03*
X439500Y383500D02*
D03*
X440000Y390500D02*
D03*
X392000Y327886D02*
D03*
X426500Y340000D02*
D03*
X385500Y158000D02*
D03*
X444000Y155500D02*
D03*
X370575Y315347D02*
D03*
X385500Y315500D02*
D03*
X391000Y300500D02*
D03*
X394434Y302934D02*
D03*
X388500Y315740D02*
D03*
X386000Y320010D02*
D03*
X402668Y320257D02*
D03*
X387500Y289000D02*
D03*
X386575Y306500D02*
D03*
X385876Y308998D02*
D03*
X423000Y317000D02*
D03*
X421500Y312000D02*
D03*
D65*
X408780Y391374D02*
D03*
X381220D02*
D03*
X408780Y375626D02*
D03*
X381220D02*
D03*
D66*
X417048Y390500D02*
D03*
X422953D02*
D03*
D67*
X418500Y379150D02*
D03*
Y372850D02*
D03*
D68*
X385500Y326000D02*
D03*
X379000D02*
D03*
X372500D02*
D03*
X413500Y325000D02*
D03*
X420000D02*
D03*
X426500D02*
D03*
X413000Y297500D02*
D03*
X419500D02*
D03*
D69*
X411500Y312000D02*
D03*
M02*
