G04*
G04 #@! TF.GenerationSoftware,Altium Limited,Altium Designer,22.2.1 (43)*
G04*
G04 Layer_Color=65535*
%FSLAX25Y25*%
%MOIN*%
G70*
G04*
G04 #@! TF.SameCoordinates,CD814A8D-D071-417D-A89B-8C602C1B7E42*
G04*
G04*
G04 #@! TF.FilePolarity,Positive*
G04*
G01*
G75*
%ADD10C,0.00787*%
%ADD11C,0.00600*%
D10*
X350229Y275691D02*
X350890Y274963D01*
X351612Y274295D01*
X352388Y273692D01*
X353214Y273158D01*
X354082Y272696D01*
X354987Y272311D01*
X355921Y272006D01*
X356878Y271781D01*
X357852Y271641D01*
X358833Y271584D01*
X359816Y271612D01*
X360793Y271724D01*
X361756Y271920D01*
X362699Y272199D01*
X363615Y272557D01*
X364496Y272993D01*
X365337Y273503D01*
X366131Y274083D01*
X366871Y274730D01*
X367554Y275438D01*
X368173Y276202D01*
X368724Y277016D01*
X368328Y276416D02*
X368868Y277257D01*
X369333Y278143D01*
X369718Y279066D01*
X370021Y280019D01*
X370240Y280996D01*
X370372Y281987D01*
X370417Y282986D01*
X370375Y283986D01*
X370245Y284978D01*
X370028Y285954D01*
X369728Y286908D01*
X369344Y287832D01*
X368882Y288719D01*
X368343Y289562D01*
X367733Y290354D01*
X367056Y291091D01*
X366317Y291765D01*
X365522Y292371D01*
X364676Y292906D01*
X363788Y293365D01*
X362862Y293744D01*
X361907Y294041D01*
X360929Y294253D01*
X359937Y294379D01*
X358937Y294417D01*
X357938Y294368D01*
X356947Y294231D01*
X355972Y294008D01*
X355020Y293701D01*
X354099Y293312D01*
X353215Y292843D01*
X352376Y292299D01*
X351587Y291684D01*
X350856Y291002D01*
X350187Y290258D01*
X350000Y276000D02*
Y290000D01*
D11*
X347000Y281501D02*
Y284500D01*
Y283500D01*
X345001Y281501D01*
X346500Y283000D01*
X345001Y284500D01*
M02*
