M48
;Layer_Color=9474304
;FILE_FORMAT=2:4
INCH,TZ
;TYPE=PLATED
T1F00S00C0.0079
T2F00S00C0.0394
;TYPE=NON_PLATED
T3F00S00C0.0984
%
T01
X36100Y15300
X39900Y14700
X42333Y14447
X42800Y14400
X44400Y15550
X41700Y17150
X38550Y15800
X38350Y25700
X38550Y26150
X38600Y26957
X38750Y28900
X39100Y30050
X39443Y30293
X39663Y31213
X39898Y31215
X40132Y31218
X39900Y30980
X40597Y30300
X42600Y30100
X43300Y30350
X42150Y31200
X41952Y29252
X41300Y27750
X40450Y27650
X39693Y28000
X39900Y28450
X38657Y30650
X38588Y30900
X37450Y30400
X37057Y31535
X38550Y31550
X38850Y31574
X38600Y32001
X39200Y32789
X40250Y32700
X40267Y32026
X39900Y31450
X40022Y33672
X38893Y34093
X38797Y34553
X38450Y35550
X39553Y35603
X40450Y35000
X41197Y35747
X41200Y36950
X39550Y37259
X38100Y36750
X37307Y34850
X36350Y35322
X35330Y36900
X36200Y38050
X36600Y39300
X42900Y38750
X44000Y39050
X43950Y38350
X42650Y34000
Y31800
X42300Y31700
T02
X36550Y17550
Y18550
Y19550
Y20550
X35800Y21750
Y22750
Y23750
Y24750
Y25750
Y26750
Y27750
Y28750
Y29750
Y30750
X41550Y28518
X42550
X43800Y28750
Y27750
Y26750
Y25750
Y24750
Y23750
Y22750
Y21750
X42650Y20500
Y19500
Y18500
Y17500
X39550Y17550
Y18550
Y19550
Y20550
X39200Y22932
X40200
X41550Y23032
X42550
Y26000
X41550
X43800Y29750
Y30750
X38200Y22932
X37200
X35800Y31750
Y32750
Y33750
Y34750
X43800
Y33750
Y32750
Y31750
T03
X35765Y13921
X43836
Y36362
X35765
M30
