<?xml version="1.0" encoding="UTF-8" standalone="no"?>
<svg
   version="1.1"
   width="29.700220cm"
   height="21.000720cm"
   viewBox="0 0 297002200 210007200"
   id="svg1855"
   sodipodi:docname="MainPCB-F_Paste.svg"
   inkscape:version="1.2 (dc2aedaf03, 2022-05-15)"
   xmlns:inkscape="http://www.inkscape.org/namespaces/inkscape"
   xmlns:sodipodi="http://sodipodi.sourceforge.net/DTD/sodipodi-0.dtd"
   xmlns="http://www.w3.org/2000/svg"
   xmlns:svg="http://www.w3.org/2000/svg">
  <defs
     id="defs1859" />
  <sodipodi:namedview
     id="namedview1857"
     pagecolor="#ffffff"
     bordercolor="#000000"
     borderopacity="0.25"
     inkscape:showpageshadow="2"
     inkscape:pageopacity="0.0"
     inkscape:pagecheckerboard="0"
     inkscape:deskcolor="#d1d1d1"
     inkscape:document-units="cm"
     showgrid="false"
     inkscape:zoom="1.8708226"
     inkscape:cx="572.20817"
     inkscape:cy="390.7372"
     inkscape:window-width="1366"
     inkscape:window-height="705"
     inkscape:window-x="-8"
     inkscape:window-y="-8"
     inkscape:window-maximized="1"
     inkscape:current-layer="g1743" />
  <title
     id="title1379">SVG Picture created as MainPCB-F_Paste.svg date 2022/06/23 14:22:29 </title>
  <desc
     id="desc1381">Picture generated by PCBNEW </desc>
  <g
     style="fill:#000000; fill-opacity:1.000000;stroke:#000000; stroke-opacity:1.000000; stroke-linecap:round; stroke-linejoin:round;"
     transform="translate(0 0) scale(1 1)"
     id="g1383" />
  <g
     style="fill:#000000; fill-opacity:0.0;  stroke:#000000; stroke-width:0.000000; stroke-opacity:1;  stroke-linecap:round; stroke-linejoin:round;"
     id="g1385" />
  <g
     style="fill:#000000; fill-opacity:0.0;  stroke:#000000; stroke-width:1.000000; stroke-opacity:1;  stroke-linecap:round; stroke-linejoin:round;"
     id="g1387" />
  <g
     style="fill:#000000; fill-opacity:1.0;  stroke:#000000; stroke-width:1.000000; stroke-opacity:1;  stroke-linecap:round; stroke-linejoin:round;"
     id="g1743">
    <path
       style="fill:none;fill-opacity:1;stroke:#ff0000;stroke-width:100000.00525011;stroke-opacity:1;stroke-linecap:round;stroke-linejoin:round;fill-rule:evenodd;stroke-dasharray:none"
       d="M 149318276.000000,93279308.000000 148179859.000000,93279308.000000 148179859.000000,92140890.000000 149318276.000000,92140890.000000 Z"
       id="path1389" />
    <g
       id="g1391" />
    <g
       id="g1393" />
    <g
       id="g1395" />
    <g
       id="g1397" />
    <g
       style="fill:none;fill-opacity:1;stroke:#ff0000;stroke-width:100000.00525011;stroke-opacity:1;stroke-linecap:round;stroke-linejoin:round;stroke-dasharray:none"
       id="g1403">
      <path
         style="fill:none;fill-opacity:1;stroke:#ff0000;stroke-width:100000.00525011;stroke-opacity:1;stroke-linecap:round;stroke-linejoin:round;fill-rule:evenodd;stroke-dasharray:none"
         d="M 158504099.000000,76151099.000000 157504101.000000,76151099.000000 157504101.000000,74801101.000000 158504099.000000,74801101.000000 Z"
         id="path1399" />
      <path
         style="fill:none;fill-opacity:1;stroke:#ff0000;stroke-width:100000.00525011;stroke-opacity:1;stroke-linecap:round;stroke-linejoin:round;fill-rule:evenodd;stroke-dasharray:none"
         d="M 160304099.000000,76151099.000000 159304101.000000,76151099.000000 159304101.000000,74801101.000000 160304099.000000,74801101.000000 Z"
         id="path1401" />
    </g>
    <g
       id="g1405" />
    <g
       style="fill:none;fill-opacity:1;stroke:#ff0000;stroke-width:100000.00525011;stroke-opacity:1;stroke-linecap:round;stroke-linejoin:round;stroke-dasharray:none"
       id="g1411">
      <path
         style="fill:none;fill-opacity:1;stroke:#ff0000;stroke-width:100000.00525011;stroke-opacity:1;stroke-linecap:round;stroke-linejoin:round;fill-rule:evenodd;stroke-dasharray:none"
         d="M 159165101.000000,76656101.000000 160365099.000000,76656101.000000 160365099.000000,78106099.000000 159165101.000000,78106099.000000 Z"
         id="path1407" />
      <path
         style="fill:none;fill-opacity:1;stroke:#ff0000;stroke-width:100000.00525011;stroke-opacity:1;stroke-linecap:round;stroke-linejoin:round;fill-rule:evenodd;stroke-dasharray:none"
         d="M 157465103.000000,76656101.000000 158665101.000000,76656101.000000 158665101.000000,78106099.000000 157465103.000000,78106099.000000 Z"
         id="path1409" />
    </g>
    <g
       id="g1413" />
    <g
       style="fill:none;fill-opacity:1;stroke:#ff0000;stroke-width:100000.00525011;stroke-opacity:1;stroke-linecap:round;stroke-linejoin:round;stroke-dasharray:none"
       id="g1419">
      <path
         style="fill:none;fill-opacity:1;stroke:#ff0000;stroke-width:100000.00525011;stroke-opacity:1;stroke-linecap:round;stroke-linejoin:round;fill-rule:evenodd;stroke-dasharray:none"
         d="M 139952101.000000,83585099.000000 139952101.000000,82585101.000000 141302099.000000,82585101.000000 141302099.000000,83585099.000000 Z"
         id="path1415" />
      <path
         style="fill:none;fill-opacity:1;stroke:#ff0000;stroke-width:100000.00525011;stroke-opacity:1;stroke-linecap:round;stroke-linejoin:round;fill-rule:evenodd;stroke-dasharray:none"
         d="M 139952101.000000,85385097.000000 139952101.000000,84385099.000000 141302099.000000,84385099.000000 141302099.000000,85385097.000000 Z"
         id="path1417" />
    </g>
    <g
       id="g1421" />
    <g
       style="fill:none;fill-opacity:1;stroke:#ff0000;stroke-width:100000.00525011;stroke-opacity:1;stroke-linecap:round;stroke-linejoin:round;stroke-dasharray:none"
       id="g1427">
      <path
         style="fill:none;fill-opacity:1;stroke:#ff0000;stroke-width:100000.00525011;stroke-opacity:1;stroke-linecap:round;stroke-linejoin:round;fill-rule:evenodd;stroke-dasharray:none"
         d="M 138218099.000000,77852099.000000 137018101.000000,77852099.000000 137018101.000000,76402101.000000 138218099.000000,76402101.000000 Z"
         id="path1423" />
      <path
         style="fill:none;fill-opacity:1;stroke:#ff0000;stroke-width:100000.00525011;stroke-opacity:1;stroke-linecap:round;stroke-linejoin:round;fill-rule:evenodd;stroke-dasharray:none"
         d="M 139918097.000000,77852099.000000 138718099.000000,77852099.000000 138718099.000000,76402101.000000 139918097.000000,76402101.000000 Z"
         id="path1425" />
    </g>
    <g
       id="g1429" />
    <g
       style="fill:none;fill-opacity:1;stroke:#ff0000;stroke-width:100000.00525011;stroke-opacity:1;stroke-linecap:round;stroke-linejoin:round;stroke-dasharray:none"
       id="g1437">
      <path
         style="fill:none;fill-opacity:1;stroke:#ff0000;stroke-width:100000.00525011;stroke-opacity:1;stroke-linecap:round;stroke-linejoin:round;fill-rule:evenodd;stroke-dasharray:none"
         d="M 158553099.000000,73502101.000000 158553099.000000,74402099.000000 157753101.000000,74402099.000000 157753101.000000,73502101.000000 Z"
         id="path1431" />
      <path
         style="fill:none;fill-opacity:1;stroke:#ff0000;stroke-width:100000.00525011;stroke-opacity:1;stroke-linecap:round;stroke-linejoin:round;fill-rule:evenodd;stroke-dasharray:none"
         d="M 160453099.000000,73502101.000000 160453099.000000,74402099.000000 159653101.000000,74402099.000000 159653101.000000,73502101.000000 Z"
         id="path1433" />
      <path
         style="fill:none;fill-opacity:1;stroke:#ff0000;stroke-width:100000.00525011;stroke-opacity:1;stroke-linecap:round;stroke-linejoin:round;fill-rule:evenodd;stroke-dasharray:none"
         d="M 159503099.000000,71502101.000000 159503099.000000,72402099.000000 158703101.000000,72402099.000000 158703101.000000,71502101.000000 Z"
         id="path1435" />
    </g>
    <g
       id="g1439" />
    <g
       style="fill:none;fill-opacity:1;stroke:#ff0000;stroke-width:100000.00525011;stroke-opacity:1;stroke-linecap:round;stroke-linejoin:round;stroke-dasharray:none"
       id="g1445">
      <path
         style="fill:none;fill-opacity:1;stroke:#ff0000;stroke-width:100000.00525011;stroke-opacity:1;stroke-linecap:round;stroke-linejoin:round;fill-rule:evenodd;stroke-dasharray:none"
         d="M 142768103.000000,109627099.000000 142768103.000000,108127101.000000 143818101.000000,108127101.000000 143818101.000000,109627099.000000 Z"
         id="path1441" />
      <path
         style="fill:none;fill-opacity:1;stroke:#ff0000;stroke-width:100000.00525011;stroke-opacity:1;stroke-linecap:round;stroke-linejoin:round;fill-rule:evenodd;stroke-dasharray:none"
         d="M 145818101.000000,109627099.000000 145818101.000000,108127101.000000 146868099.000000,108127101.000000 146868099.000000,109627099.000000 Z"
         id="path1443" />
    </g>
    <g
       id="g1447" />
    <g
       style="fill:none;fill-opacity:1;stroke:#ff0000;stroke-width:100000.00525011;stroke-opacity:1;stroke-linecap:round;stroke-linejoin:round;stroke-dasharray:none"
       id="g1453">
      <path
         style="fill:none;fill-opacity:1;stroke:#ff0000;stroke-width:100000.00525011;stroke-opacity:1;stroke-linecap:round;stroke-linejoin:round;fill-rule:evenodd;stroke-dasharray:none"
         d="M 144942103.000000,100074101.000000 145942101.000000,100074101.000000 145942101.000000,101424099.000000 144942103.000000,101424099.000000 Z"
         id="path1449" />
      <path
         style="fill:none;fill-opacity:1;stroke:#ff0000;stroke-width:100000.00525011;stroke-opacity:1;stroke-linecap:round;stroke-linejoin:round;fill-rule:evenodd;stroke-dasharray:none"
         d="M 146742101.000000,100074101.000000 147742099.000000,100074101.000000 147742099.000000,101424099.000000 146742101.000000,101424099.000000 Z"
         id="path1451" />
    </g>
    <g
       id="g1455" />
    <g
       style="fill:none;fill-opacity:1;stroke:#ff0000;stroke-width:100000.00525011;stroke-opacity:1;stroke-linecap:round;stroke-linejoin:round;stroke-dasharray:none"
       id="g1461">
      <path
         style="fill:none;fill-opacity:1;stroke:#ff0000;stroke-width:100000.00525011;stroke-opacity:1;stroke-linecap:round;stroke-linejoin:round;fill-rule:evenodd;stroke-dasharray:none"
         d="M 144402099.000000,101474099.000000 143202101.000000,101474099.000000 143202101.000000,100024101.000000 144402099.000000,100024101.000000 Z"
         id="path1457" />
      <path
         style="fill:none;fill-opacity:1;stroke:#ff0000;stroke-width:100000.00525011;stroke-opacity:1;stroke-linecap:round;stroke-linejoin:round;fill-rule:evenodd;stroke-dasharray:none"
         d="M 142702099.000000,101474099.000000 141502101.000000,101474099.000000 141502101.000000,100024101.000000 142702099.000000,100024101.000000 Z"
         id="path1459" />
    </g>
    <g
       id="g1463" />
    <g
       id="g1465" />
    <g
       id="g1467" />
    <g
       id="g1469" />
    <g
       id="g1471" />
    <g
       style="fill:none;fill-opacity:1;stroke:#ff0000;stroke-width:100000.00525011;stroke-opacity:1;stroke-linecap:round;stroke-linejoin:round;stroke-dasharray:none"
       id="g1477">
      <path
         style="fill:none;fill-opacity:1;stroke:#ff0000;stroke-width:100000.00525011;stroke-opacity:1;stroke-linecap:round;stroke-linejoin:round;fill-rule:evenodd;stroke-dasharray:none"
         d="M 157480101.000000,132491099.000000 157480101.000000,131491101.000000 157980099.000000,131491101.000000 157980099.000000,132491099.000000 Z"
         id="path1473" />
      <path
         style="fill:none;fill-opacity:1;stroke:#ff0000;stroke-width:100000.00525011;stroke-opacity:1;stroke-linecap:round;stroke-linejoin:round;fill-rule:evenodd;stroke-dasharray:none"
         d="M 158580101.000000,132491099.000000 158580101.000000,131491101.000000 159080099.000000,131491101.000000 159080099.000000,132491099.000000 Z"
         id="path1475" />
    </g>
    <g
       id="g1479" />
    <g
       style="fill:none;fill-opacity:1;stroke:#ff0000;stroke-width:100000.00525011;stroke-opacity:1;stroke-linecap:round;stroke-linejoin:round;stroke-dasharray:none"
       id="g1497">
      <path
         style="fill:none;fill-opacity:1;stroke:#ff0000;stroke-width:100000.00525011;stroke-opacity:1;stroke-linecap:round;stroke-linejoin:round;fill-rule:evenodd;stroke-dasharray:none"
         d="M 153622100.000000,133487237.000000 153526429.000000,133468207.000000 153445323.000000,133414014.000000 153391130.000000,133332908.000000 153372100.000000,133237237.000000 153372100.000000,132132001.000000 153391130.000000,132036330.000000 153445323.000000,131955224.000000 153526429.000000,131901031.000000 153622100.000000,131882001.000000 153717771.000000,131901031.000000 153798877.000000,131955224.000000 153853070.000000,132036330.000000 153872100.000000,132132001.000000 153872100.000000,133237237.000000 153853070.000000,133332908.000000 153798877.000000,133414014.000000 153717771.000000,133468207.000000 153622100.000000,133487237.000000 Z"
         id="path1481" />
      <path
         style="fill:none;fill-opacity:1;stroke:#ff0000;stroke-width:100000.00525011;stroke-opacity:1;stroke-linecap:round;stroke-linejoin:round;fill-rule:evenodd;stroke-dasharray:none"
         d="M 154272100.000000,133487237.000000 154176429.000000,133468207.000000 154095323.000000,133414014.000000 154041130.000000,133332908.000000 154022100.000000,133237237.000000 154022100.000000,132132001.000000 154041130.000000,132036330.000000 154095323.000000,131955224.000000 154176429.000000,131901031.000000 154272100.000000,131882001.000000 154367771.000000,131901031.000000 154448877.000000,131955224.000000 154503070.000000,132036330.000000 154522100.000000,132132001.000000 154522100.000000,133237237.000000 154503070.000000,133332908.000000 154448877.000000,133414014.000000 154367771.000000,133468207.000000 154272100.000000,133487237.000000 Z"
         id="path1483" />
      <path
         style="fill:none;fill-opacity:1;stroke:#ff0000;stroke-width:100000.00525011;stroke-opacity:1;stroke-linecap:round;stroke-linejoin:round;fill-rule:evenodd;stroke-dasharray:none"
         d="M 154922100.000000,133487237.000000 154826429.000000,133468207.000000 154745323.000000,133414014.000000 154691130.000000,133332908.000000 154672100.000000,133237237.000000 154672100.000000,132132001.000000 154691130.000000,132036330.000000 154745323.000000,131955224.000000 154826429.000000,131901031.000000 154922100.000000,131882001.000000 155017771.000000,131901031.000000 155098877.000000,131955224.000000 155153070.000000,132036330.000000 155172100.000000,132132001.000000 155172100.000000,133237237.000000 155153070.000000,133332908.000000 155098877.000000,133414014.000000 155017771.000000,133468207.000000 154922100.000000,133487237.000000 Z"
         id="path1485" />
      <path
         style="fill:none;fill-opacity:1;stroke:#ff0000;stroke-width:100000.00525011;stroke-opacity:1;stroke-linecap:round;stroke-linejoin:round;fill-rule:evenodd;stroke-dasharray:none"
         d="M 155572100.000000,133487237.000000 155476429.000000,133468207.000000 155395323.000000,133414014.000000 155341130.000000,133332908.000000 155322100.000000,133237237.000000 155322100.000000,132132001.000000 155341130.000000,132036330.000000 155395323.000000,131955224.000000 155476429.000000,131901031.000000 155572100.000000,131882001.000000 155667771.000000,131901031.000000 155748877.000000,131955224.000000 155803070.000000,132036330.000000 155822100.000000,132132001.000000 155822100.000000,133237237.000000 155803070.000000,133332908.000000 155748877.000000,133414014.000000 155667771.000000,133468207.000000 155572100.000000,133487237.000000 Z"
         id="path1487" />
      <path
         style="fill:none;fill-opacity:1;stroke:#ff0000;stroke-width:100000.00525011;stroke-opacity:1;stroke-linecap:round;stroke-linejoin:round;fill-rule:evenodd;stroke-dasharray:none"
         d="M 155572100.000000,137688199.000000 155476429.000000,137669169.000000 155395323.000000,137614976.000000 155341130.000000,137533870.000000 155322100.000000,137438199.000000 155322100.000000,136332963.000000 155341130.000000,136237292.000000 155395323.000000,136156186.000000 155476429.000000,136101993.000000 155572100.000000,136082963.000000 155667771.000000,136101993.000000 155748877.000000,136156186.000000 155803070.000000,136237292.000000 155822100.000000,136332963.000000 155822100.000000,137438199.000000 155803070.000000,137533870.000000 155748877.000000,137614976.000000 155667771.000000,137669169.000000 155572100.000000,137688199.000000 Z"
         id="path1489" />
      <path
         style="fill:none;fill-opacity:1;stroke:#ff0000;stroke-width:100000.00525011;stroke-opacity:1;stroke-linecap:round;stroke-linejoin:round;fill-rule:evenodd;stroke-dasharray:none"
         d="M 154922100.000000,137688199.000000 154826429.000000,137669169.000000 154745323.000000,137614976.000000 154691130.000000,137533870.000000 154672100.000000,137438199.000000 154672100.000000,136332963.000000 154691130.000000,136237292.000000 154745323.000000,136156186.000000 154826429.000000,136101993.000000 154922100.000000,136082963.000000 155017771.000000,136101993.000000 155098877.000000,136156186.000000 155153070.000000,136237292.000000 155172100.000000,136332963.000000 155172100.000000,137438199.000000 155153070.000000,137533870.000000 155098877.000000,137614976.000000 155017771.000000,137669169.000000 154922100.000000,137688199.000000 Z"
         id="path1491" />
      <path
         style="fill:none;fill-opacity:1;stroke:#ff0000;stroke-width:100000.00525011;stroke-opacity:1;stroke-linecap:round;stroke-linejoin:round;fill-rule:evenodd;stroke-dasharray:none"
         d="M 154272100.000000,137688199.000000 154176429.000000,137669169.000000 154095323.000000,137614976.000000 154041130.000000,137533870.000000 154022100.000000,137438199.000000 154022100.000000,136332963.000000 154041130.000000,136237292.000000 154095323.000000,136156186.000000 154176429.000000,136101993.000000 154272100.000000,136082963.000000 154367771.000000,136101993.000000 154448877.000000,136156186.000000 154503070.000000,136237292.000000 154522100.000000,136332963.000000 154522100.000000,137438199.000000 154503070.000000,137533870.000000 154448877.000000,137614976.000000 154367771.000000,137669169.000000 154272100.000000,137688199.000000 Z"
         id="path1493" />
      <path
         style="fill:none;fill-opacity:1;stroke:#ff0000;stroke-width:100000.00525011;stroke-opacity:1;stroke-linecap:round;stroke-linejoin:round;fill-rule:evenodd;stroke-dasharray:none"
         d="M 153872099.000000,137688199.000000 153372101.000000,137688199.000000 153372101.000000,136082963.000000 153872099.000000,136082963.000000 Z"
         id="path1495" />
    </g>
    <g
       id="g1499" />
    <g
       style="fill:none;fill-opacity:1;stroke:#ff0000;stroke-width:100000.00525011;stroke-opacity:1;stroke-linecap:round;stroke-linejoin:round;stroke-dasharray:none"
       id="g1505">
      <path
         style="fill:none;fill-opacity:1;stroke:#ff0000;stroke-width:100000.00525011;stroke-opacity:1;stroke-linecap:round;stroke-linejoin:round;fill-rule:evenodd;stroke-dasharray:none"
         d="M 157694103.000000,133044101.000000 159044101.000000,133044101.000000 159044101.000000,134494099.000000 157694103.000000,134494099.000000 Z"
         id="path1501" />
      <path
         style="fill:none;fill-opacity:1;stroke:#ff0000;stroke-width:100000.00525011;stroke-opacity:1;stroke-linecap:round;stroke-linejoin:round;fill-rule:evenodd;stroke-dasharray:none"
         d="M 159294101.000000,133044101.000000 160644099.000000,133044101.000000 160644099.000000,134494099.000000 159294101.000000,134494099.000000 Z"
         id="path1503" />
    </g>
    <g
       id="g1507" />
    <g
       style="fill:none;fill-opacity:1;stroke:#ff0000;stroke-width:100000.00525011;stroke-opacity:1;stroke-linecap:round;stroke-linejoin:round;stroke-dasharray:none"
       id="g1513">
      <path
         style="fill:none;fill-opacity:1;stroke:#ff0000;stroke-width:100000.00525011;stroke-opacity:1;stroke-linecap:round;stroke-linejoin:round;fill-rule:evenodd;stroke-dasharray:none"
         d="M 157529101.000000,129488101.000000 158879099.000000,129488101.000000 158879099.000000,130938099.000000 157529101.000000,130938099.000000 Z"
         id="path1509" />
      <path
         style="fill:none;fill-opacity:1;stroke:#ff0000;stroke-width:100000.00525011;stroke-opacity:1;stroke-linecap:round;stroke-linejoin:round;fill-rule:evenodd;stroke-dasharray:none"
         d="M 159129101.000000,129488101.000000 160479099.000000,129488101.000000 160479099.000000,130938099.000000 159129101.000000,130938099.000000 Z"
         id="path1511" />
    </g>
    <g
       id="g1515" />
    <g
       style="fill:none;fill-opacity:1;stroke:#ff0000;stroke-width:100000.00525011;stroke-opacity:1;stroke-linecap:round;stroke-linejoin:round;stroke-dasharray:none"
       id="g1521">
      <path
         style="fill:none;fill-opacity:1;stroke:#ff0000;stroke-width:100000.00525011;stroke-opacity:1;stroke-linecap:round;stroke-linejoin:round;fill-rule:evenodd;stroke-dasharray:none"
         d="M 138558099.000000,130414103.000000 138558099.000000,131714101.000000 137108101.000000,131714101.000000 137108101.000000,130414103.000000 Z"
         id="path1517" />
      <path
         style="fill:none;fill-opacity:1;stroke:#ff0000;stroke-width:100000.00525011;stroke-opacity:1;stroke-linecap:round;stroke-linejoin:round;fill-rule:evenodd;stroke-dasharray:none"
         d="M 138558099.000000,132014101.000000 138558099.000000,133314099.000000 137108101.000000,133314099.000000 137108101.000000,132014101.000000 Z"
         id="path1519" />
    </g>
    <g
       id="g1523" />
    <g
       style="fill:none;fill-opacity:1;stroke:#ff0000;stroke-width:100000.00525011;stroke-opacity:1;stroke-linecap:round;stroke-linejoin:round;stroke-dasharray:none"
       id="g1529">
      <path
         style="fill:none;fill-opacity:1;stroke:#ff0000;stroke-width:100000.00525011;stroke-opacity:1;stroke-linecap:round;stroke-linejoin:round;fill-rule:evenodd;stroke-dasharray:none"
         d="M 151750103.000000,129361101.000000 153050101.000000,129361101.000000 153050101.000000,130811099.000000 151750103.000000,130811099.000000 Z"
         id="path1525" />
      <path
         style="fill:none;fill-opacity:1;stroke:#ff0000;stroke-width:100000.00525011;stroke-opacity:1;stroke-linecap:round;stroke-linejoin:round;fill-rule:evenodd;stroke-dasharray:none"
         d="M 153350101.000000,129361101.000000 154650099.000000,129361101.000000 154650099.000000,130811099.000000 153350101.000000,130811099.000000 Z"
         id="path1527" />
    </g>
    <g
       id="g1531" />
    <g
       style="fill:none;fill-opacity:1;stroke:#ff0000;stroke-width:100000.00525011;stroke-opacity:1;stroke-linecap:round;stroke-linejoin:round;stroke-dasharray:none"
       id="g1537">
      <path
         style="fill:none;fill-opacity:1;stroke:#ff0000;stroke-width:100000.00525011;stroke-opacity:1;stroke-linecap:round;stroke-linejoin:round;fill-rule:evenodd;stroke-dasharray:none"
         d="M 151295099.000000,131610101.000000 151295099.000000,136690099.000000 149517101.000000,136690099.000000 149517101.000000,131610101.000000 Z"
         id="path1533" />
      <path
         style="fill:none;fill-opacity:1;stroke:#ff0000;stroke-width:100000.00525011;stroke-opacity:1;stroke-linecap:round;stroke-linejoin:round;fill-rule:evenodd;stroke-dasharray:none"
         d="M 141897099.000000,131610101.000000 141897099.000000,136690099.000000 140119101.000000,136690099.000000 140119101.000000,131610101.000000 Z"
         id="path1535" />
    </g>
    <g
       id="g1539" />
    <g
       style="fill:none;fill-opacity:1;stroke:#ff0000;stroke-width:100000.00525011;stroke-opacity:1;stroke-linecap:round;stroke-linejoin:round;stroke-dasharray:none"
       id="g1567">
      <path
         style="fill:none;fill-opacity:1;stroke:#ff0000;stroke-width:100000.00525011;stroke-opacity:1;stroke-linecap:round;stroke-linejoin:round;fill-rule:evenodd;stroke-dasharray:none"
         d="M 146961099.000000,75003101.000000 146961099.000000,76503099.000000 146161101.000000,76503099.000000 146161101.000000,75003101.000000 Z"
         id="path1541" />
      <path
         style="fill:none;fill-opacity:1;stroke:#ff0000;stroke-width:100000.00525011;stroke-opacity:1;stroke-linecap:round;stroke-linejoin:round;fill-rule:evenodd;stroke-dasharray:none"
         d="M 148061099.000000,75403101.000000 148061099.000000,76903099.000000 147261101.000000,76903099.000000 147261101.000000,75403101.000000 Z"
         id="path1543" />
      <path
         style="fill:none;fill-opacity:1;stroke:#ff0000;stroke-width:100000.00525011;stroke-opacity:1;stroke-linecap:round;stroke-linejoin:round;fill-rule:evenodd;stroke-dasharray:none"
         d="M 149161099.000000,75003101.000000 149161099.000000,76503099.000000 148361101.000000,76503099.000000 148361101.000000,75003101.000000 Z"
         id="path1545" />
      <path
         style="fill:none;fill-opacity:1;stroke:#ff0000;stroke-width:100000.00525011;stroke-opacity:1;stroke-linecap:round;stroke-linejoin:round;fill-rule:evenodd;stroke-dasharray:none"
         d="M 150261099.000000,74803101.000000 150261099.000000,76303099.000000 149461101.000000,76303099.000000 149461101.000000,74803101.000000 Z"
         id="path1547" />
      <path
         style="fill:none;fill-opacity:1;stroke:#ff0000;stroke-width:100000.00525011;stroke-opacity:1;stroke-linecap:round;stroke-linejoin:round;fill-rule:evenodd;stroke-dasharray:none"
         d="M 151361099.000000,75003101.000000 151361099.000000,76503099.000000 150561101.000000,76503099.000000 150561101.000000,75003101.000000 Z"
         id="path1549" />
      <path
         style="fill:none;fill-opacity:1;stroke:#ff0000;stroke-width:100000.00525011;stroke-opacity:1;stroke-linecap:round;stroke-linejoin:round;fill-rule:evenodd;stroke-dasharray:none"
         d="M 152461099.000000,74803101.000000 152461099.000000,76303099.000000 151661101.000000,76303099.000000 151661101.000000,74803101.000000 Z"
         id="path1551" />
      <path
         style="fill:none;fill-opacity:1;stroke:#ff0000;stroke-width:100000.00525011;stroke-opacity:1;stroke-linecap:round;stroke-linejoin:round;fill-rule:evenodd;stroke-dasharray:none"
         d="M 153561099.000000,75003101.000000 153561099.000000,76503099.000000 152761101.000000,76503099.000000 152761101.000000,75003101.000000 Z"
         id="path1553" />
      <path
         style="fill:none;fill-opacity:1;stroke:#ff0000;stroke-width:100000.00525011;stroke-opacity:1;stroke-linecap:round;stroke-linejoin:round;fill-rule:evenodd;stroke-dasharray:none"
         d="M 142601097.000000,71513101.000000 142601097.000000,73413099.000000 141201099.000000,73413099.000000 141201099.000000,71513101.000000 Z"
         id="path1555" />
      <path
         style="fill:none;fill-opacity:1;stroke:#ff0000;stroke-width:100000.00525011;stroke-opacity:1;stroke-linecap:round;stroke-linejoin:round;fill-rule:evenodd;stroke-dasharray:none"
         d="M 155751099.000000,72513101.000000 155751099.000000,74413099.000000 154351101.000000,74413099.000000 154351101.000000,72513101.000000 Z"
         id="path1557" />
      <path
         style="fill:none;fill-opacity:1;stroke:#ff0000;stroke-width:100000.00525011;stroke-opacity:1;stroke-linecap:round;stroke-linejoin:round;fill-rule:evenodd;stroke-dasharray:none"
         d="M 148401099.000000,85913101.000000 148401099.000000,87313099.000000 147101101.000000,87313099.000000 147101101.000000,85913101.000000 Z"
         id="path1559" />
      <path
         style="fill:none;fill-opacity:1;stroke:#ff0000;stroke-width:100000.00525011;stroke-opacity:1;stroke-linecap:round;stroke-linejoin:round;fill-rule:evenodd;stroke-dasharray:none"
         d="M 152561099.000000,86363101.000000 152561099.000000,87313099.000000 151561101.000000,87313099.000000 151561101.000000,86363101.000000 Z"
         id="path1561" />
      <path
         style="fill:none;fill-opacity:1;stroke:#ff0000;stroke-width:100000.00525011;stroke-opacity:1;stroke-linecap:round;stroke-linejoin:round;fill-rule:evenodd;stroke-dasharray:none"
         d="M 154101099.000000,85913101.000000 154101099.000000,87313099.000000 152801101.000000,87313099.000000 152801101.000000,85913101.000000 Z"
         id="path1563" />
      <path
         style="fill:none;fill-opacity:1;stroke:#ff0000;stroke-width:100000.00525011;stroke-opacity:1;stroke-linecap:round;stroke-linejoin:round;fill-rule:evenodd;stroke-dasharray:none"
         d="M 154661099.000000,75003101.000000 154661099.000000,76503099.000000 153861101.000000,76503099.000000 153861101.000000,75003101.000000 Z"
         id="path1565" />
    </g>
    <g
       id="g1569" />
    <g
       id="g1571" />
    <g
       id="g1573" />
    <g
       id="g1575" />
    <g
       style="fill:none;fill-opacity:1;stroke:#ff0000;stroke-width:100000.00525011;stroke-opacity:1;stroke-linecap:round;stroke-linejoin:round;stroke-dasharray:none"
       id="g1617">
      <path
         style="fill:none;fill-opacity:1;stroke:#ff0000;stroke-width:100000.00525011;stroke-opacity:1;stroke-linecap:round;stroke-linejoin:round;fill-rule:evenodd;stroke-dasharray:none"
         d="M 146993002.000000,92006334.000000 146993002.000000,91813862.000000 147699068.000000,91813862.000000 147699068.000000,92006334.000000 Z"
         id="path1577" />
      <path
         style="fill:none;fill-opacity:1;stroke:#ff0000;stroke-width:100000.00525011;stroke-opacity:1;stroke-linecap:round;stroke-linejoin:round;fill-rule:evenodd;stroke-dasharray:none"
         d="M 146993002.000000,92310100.000000 147000328.000000,92273272.000000 147021189.000000,92242050.000000 147052411.000000,92221189.000000 147089240.000000,92213864.000000 147602831.000000,92213863.000000 147639659.000000,92221189.000000 147670881.000000,92242050.000000 147691742.000000,92273272.000000 147699067.000000,92310101.000000 147699068.000000,92310100.000000 147691742.000000,92346928.000000 147670881.000000,92378150.000000 147639659.000000,92399011.000000 147602830.000000,92406336.000000 147089239.000000,92406337.000000 147052411.000000,92399011.000000 147021189.000000,92378150.000000 147000328.000000,92346928.000000 146993003.000000,92310099.000000 Z"
         id="path1579" />
      <path
         style="fill:none;fill-opacity:1;stroke:#ff0000;stroke-width:100000.00525011;stroke-opacity:1;stroke-linecap:round;stroke-linejoin:round;fill-rule:evenodd;stroke-dasharray:none"
         d="M 146993002.000000,92710100.000000 147000328.000000,92673272.000000 147021189.000000,92642050.000000 147052411.000000,92621189.000000 147089240.000000,92613864.000000 147602831.000000,92613863.000000 147639659.000000,92621189.000000 147670881.000000,92642050.000000 147691742.000000,92673272.000000 147699067.000000,92710101.000000 147699068.000000,92710100.000000 147691742.000000,92746928.000000 147670881.000000,92778150.000000 147639659.000000,92799011.000000 147602830.000000,92806336.000000 147089239.000000,92806337.000000 147052411.000000,92799011.000000 147021189.000000,92778150.000000 147000328.000000,92746928.000000 146993003.000000,92710099.000000 Z"
         id="path1581" />
      <path
         style="fill:none;fill-opacity:1;stroke:#ff0000;stroke-width:100000.00525011;stroke-opacity:1;stroke-linecap:round;stroke-linejoin:round;fill-rule:evenodd;stroke-dasharray:none"
         d="M 146993002.000000,93110098.000000 147000328.000000,93073270.000000 147021189.000000,93042048.000000 147052411.000000,93021187.000000 147089240.000000,93013862.000000 147602831.000000,93013861.000000 147639659.000000,93021187.000000 147670881.000000,93042048.000000 147691742.000000,93073270.000000 147699067.000000,93110099.000000 147699068.000000,93110098.000000 147691742.000000,93146926.000000 147670881.000000,93178148.000000 147639659.000000,93199009.000000 147602830.000000,93206334.000000 147089239.000000,93206335.000000 147052411.000000,93199009.000000 147021189.000000,93178148.000000 147000328.000000,93146926.000000 146993003.000000,93110097.000000 Z"
         id="path1583" />
      <path
         style="fill:none;fill-opacity:1;stroke:#ff0000;stroke-width:100000.00525011;stroke-opacity:1;stroke-linecap:round;stroke-linejoin:round;fill-rule:evenodd;stroke-dasharray:none"
         d="M 146993002.000000,93510100.000000 147000328.000000,93473272.000000 147021189.000000,93442050.000000 147052411.000000,93421189.000000 147089240.000000,93413864.000000 147602831.000000,93413863.000000 147639659.000000,93421189.000000 147670881.000000,93442050.000000 147691742.000000,93473272.000000 147699067.000000,93510101.000000 147699068.000000,93510100.000000 147691742.000000,93546928.000000 147670881.000000,93578150.000000 147639659.000000,93599011.000000 147602830.000000,93606336.000000 147089239.000000,93606337.000000 147052411.000000,93599011.000000 147021189.000000,93578150.000000 147000328.000000,93546928.000000 146993003.000000,93510099.000000 Z"
         id="path1585" />
      <path
         style="fill:none;fill-opacity:1;stroke:#ff0000;stroke-width:100000.00525011;stroke-opacity:1;stroke-linecap:round;stroke-linejoin:round;fill-rule:evenodd;stroke-dasharray:none"
         d="M 149799067.000000,93510100.000000 149806393.000000,93473272.000000 149827254.000000,93442050.000000 149858476.000000,93421189.000000 149895305.000000,93413864.000000 150408896.000000,93413863.000000 150445724.000000,93421189.000000 150476946.000000,93442050.000000 150497807.000000,93473272.000000 150505132.000000,93510101.000000 150505133.000000,93510100.000000 150497807.000000,93546928.000000 150476946.000000,93578150.000000 150445724.000000,93599011.000000 150408895.000000,93606336.000000 149895304.000000,93606337.000000 149858476.000000,93599011.000000 149827254.000000,93578150.000000 149806393.000000,93546928.000000 149799068.000000,93510099.000000 Z"
         id="path1587" />
      <path
         style="fill:none;fill-opacity:1;stroke:#ff0000;stroke-width:100000.00525011;stroke-opacity:1;stroke-linecap:round;stroke-linejoin:round;fill-rule:evenodd;stroke-dasharray:none"
         d="M 149799067.000000,93110098.000000 149806393.000000,93073270.000000 149827254.000000,93042048.000000 149858476.000000,93021187.000000 149895305.000000,93013862.000000 150408896.000000,93013861.000000 150445724.000000,93021187.000000 150476946.000000,93042048.000000 150497807.000000,93073270.000000 150505132.000000,93110099.000000 150505133.000000,93110098.000000 150497807.000000,93146926.000000 150476946.000000,93178148.000000 150445724.000000,93199009.000000 150408895.000000,93206334.000000 149895304.000000,93206335.000000 149858476.000000,93199009.000000 149827254.000000,93178148.000000 149806393.000000,93146926.000000 149799068.000000,93110097.000000 Z"
         id="path1589" />
      <path
         style="fill:none;fill-opacity:1;stroke:#ff0000;stroke-width:100000.00525011;stroke-opacity:1;stroke-linecap:round;stroke-linejoin:round;fill-rule:evenodd;stroke-dasharray:none"
         d="M 149799067.000000,92710100.000000 149806393.000000,92673272.000000 149827254.000000,92642050.000000 149858476.000000,92621189.000000 149895305.000000,92613864.000000 150408896.000000,92613863.000000 150445724.000000,92621189.000000 150476946.000000,92642050.000000 150497807.000000,92673272.000000 150505132.000000,92710101.000000 150505133.000000,92710100.000000 150497807.000000,92746928.000000 150476946.000000,92778150.000000 150445724.000000,92799011.000000 150408895.000000,92806336.000000 149895304.000000,92806337.000000 149858476.000000,92799011.000000 149827254.000000,92778150.000000 149806393.000000,92746928.000000 149799068.000000,92710099.000000 Z"
         id="path1591" />
      <path
         style="fill:none;fill-opacity:1;stroke:#ff0000;stroke-width:100000.00525011;stroke-opacity:1;stroke-linecap:round;stroke-linejoin:round;fill-rule:evenodd;stroke-dasharray:none"
         d="M 149799067.000000,92310100.000000 149806393.000000,92273272.000000 149827254.000000,92242050.000000 149858476.000000,92221189.000000 149895305.000000,92213864.000000 150408896.000000,92213863.000000 150445724.000000,92221189.000000 150476946.000000,92242050.000000 150497807.000000,92273272.000000 150505132.000000,92310101.000000 150505133.000000,92310100.000000 150497807.000000,92346928.000000 150476946.000000,92378150.000000 150445724.000000,92399011.000000 150408895.000000,92406336.000000 149895304.000000,92406337.000000 149858476.000000,92399011.000000 149827254.000000,92378150.000000 149806393.000000,92346928.000000 149799068.000000,92310099.000000 Z"
         id="path1593" />
      <path
         style="fill:none;fill-opacity:1;stroke:#ff0000;stroke-width:100000.00525011;stroke-opacity:1;stroke-linecap:round;stroke-linejoin:round;fill-rule:evenodd;stroke-dasharray:none"
         d="M 149799067.000000,91910098.000000 149806393.000000,91873270.000000 149827254.000000,91842048.000000 149858476.000000,91821187.000000 149895305.000000,91813862.000000 150408896.000000,91813861.000000 150445724.000000,91821187.000000 150476946.000000,91842048.000000 150497807.000000,91873270.000000 150505132.000000,91910099.000000 150505133.000000,91910098.000000 150497807.000000,91946926.000000 150476946.000000,91978148.000000 150445724.000000,91999009.000000 150408895.000000,92006334.000000 149895304.000000,92006335.000000 149858476.000000,91999009.000000 149827254.000000,91978148.000000 149806393.000000,91946926.000000 149799068.000000,91910097.000000 Z"
         id="path1595" />
      <path
         style="fill:none;fill-opacity:1;stroke:#ff0000;stroke-width:100000.00525011;stroke-opacity:1;stroke-linecap:round;stroke-linejoin:round;fill-rule:evenodd;stroke-dasharray:none"
         d="M 147852830.000000,93856336.000000 147860156.000000,93819508.000000 147881017.000000,93788286.000000 147912239.000000,93767425.000000 147949068.000000,93760100.000000 147949067.000000,93760099.000000 147985895.000000,93767425.000000 148017117.000000,93788286.000000 148037978.000000,93819508.000000 148045303.000000,93856337.000000 148045304.000000,94369928.000000 148037978.000000,94406756.000000 148017117.000000,94437978.000000 147985895.000000,94458839.000000 147949066.000000,94466164.000000 147949067.000000,94466165.000000 147912239.000000,94458839.000000 147881017.000000,94437978.000000 147860156.000000,94406756.000000 147852831.000000,94369927.000000 Z"
         id="path1597" />
      <path
         style="fill:none;fill-opacity:1;stroke:#ff0000;stroke-width:100000.00525011;stroke-opacity:1;stroke-linecap:round;stroke-linejoin:round;fill-rule:evenodd;stroke-dasharray:none"
         d="M 148252831.000000,93856336.000000 148260157.000000,93819508.000000 148281018.000000,93788286.000000 148312240.000000,93767425.000000 148349069.000000,93760100.000000 148349068.000000,93760099.000000 148385896.000000,93767425.000000 148417118.000000,93788286.000000 148437979.000000,93819508.000000 148445304.000000,93856337.000000 148445305.000000,94369928.000000 148437979.000000,94406756.000000 148417118.000000,94437978.000000 148385896.000000,94458839.000000 148349067.000000,94466164.000000 148349068.000000,94466165.000000 148312240.000000,94458839.000000 148281018.000000,94437978.000000 148260157.000000,94406756.000000 148252832.000000,94369927.000000 Z"
         id="path1599" />
      <path
         style="fill:none;fill-opacity:1;stroke:#ff0000;stroke-width:100000.00525011;stroke-opacity:1;stroke-linecap:round;stroke-linejoin:round;fill-rule:evenodd;stroke-dasharray:none"
         d="M 148652831.000000,93856336.000000 148660157.000000,93819508.000000 148681018.000000,93788286.000000 148712240.000000,93767425.000000 148749069.000000,93760100.000000 148749068.000000,93760099.000000 148785896.000000,93767425.000000 148817118.000000,93788286.000000 148837979.000000,93819508.000000 148845304.000000,93856337.000000 148845305.000000,94369928.000000 148837979.000000,94406756.000000 148817118.000000,94437978.000000 148785896.000000,94458839.000000 148749067.000000,94466164.000000 148749068.000000,94466165.000000 148712240.000000,94458839.000000 148681018.000000,94437978.000000 148660157.000000,94406756.000000 148652832.000000,94369927.000000 Z"
         id="path1601" />
      <path
         style="fill:none;fill-opacity:1;stroke:#ff0000;stroke-width:100000.00525011;stroke-opacity:1;stroke-linecap:round;stroke-linejoin:round;fill-rule:evenodd;stroke-dasharray:none"
         d="M 149052830.000000,93856336.000000 149060156.000000,93819508.000000 149081017.000000,93788286.000000 149112239.000000,93767425.000000 149149068.000000,93760100.000000 149149067.000000,93760099.000000 149185895.000000,93767425.000000 149217117.000000,93788286.000000 149237978.000000,93819508.000000 149245303.000000,93856337.000000 149245304.000000,94369928.000000 149237978.000000,94406756.000000 149217117.000000,94437978.000000 149185895.000000,94458839.000000 149149066.000000,94466164.000000 149149067.000000,94466165.000000 149112239.000000,94458839.000000 149081017.000000,94437978.000000 149060156.000000,94406756.000000 149052831.000000,94369927.000000 Z"
         id="path1603" />
      <path
         style="fill:none;fill-opacity:1;stroke:#ff0000;stroke-width:100000.00525011;stroke-opacity:1;stroke-linecap:round;stroke-linejoin:round;fill-rule:evenodd;stroke-dasharray:none"
         d="M 149452831.000000,93856336.000000 149460157.000000,93819508.000000 149481018.000000,93788286.000000 149512240.000000,93767425.000000 149549069.000000,93760100.000000 149549068.000000,93760099.000000 149585896.000000,93767425.000000 149617118.000000,93788286.000000 149637979.000000,93819508.000000 149645304.000000,93856337.000000 149645305.000000,94369928.000000 149637979.000000,94406756.000000 149617118.000000,94437978.000000 149585896.000000,94458839.000000 149549067.000000,94466164.000000 149549068.000000,94466165.000000 149512240.000000,94458839.000000 149481018.000000,94437978.000000 149460157.000000,94406756.000000 149452832.000000,94369927.000000 Z"
         id="path1605" />
      <path
         style="fill:none;fill-opacity:1;stroke:#ff0000;stroke-width:100000.00525011;stroke-opacity:1;stroke-linecap:round;stroke-linejoin:round;fill-rule:evenodd;stroke-dasharray:none"
         d="M 149452831.000000,91050271.000000 149460157.000000,91013443.000000 149481018.000000,90982221.000000 149512240.000000,90961360.000000 149549069.000000,90954035.000000 149549068.000000,90954034.000000 149585896.000000,90961360.000000 149617118.000000,90982221.000000 149637979.000000,91013443.000000 149645304.000000,91050272.000000 149645305.000000,91563863.000000 149637979.000000,91600691.000000 149617118.000000,91631913.000000 149585896.000000,91652774.000000 149549067.000000,91660099.000000 149549068.000000,91660100.000000 149512240.000000,91652774.000000 149481018.000000,91631913.000000 149460157.000000,91600691.000000 149452832.000000,91563862.000000 Z"
         id="path1607" />
      <path
         style="fill:none;fill-opacity:1;stroke:#ff0000;stroke-width:100000.00525011;stroke-opacity:1;stroke-linecap:round;stroke-linejoin:round;fill-rule:evenodd;stroke-dasharray:none"
         d="M 149052830.000000,91050271.000000 149060156.000000,91013443.000000 149081017.000000,90982221.000000 149112239.000000,90961360.000000 149149068.000000,90954035.000000 149149067.000000,90954034.000000 149185895.000000,90961360.000000 149217117.000000,90982221.000000 149237978.000000,91013443.000000 149245303.000000,91050272.000000 149245304.000000,91563863.000000 149237978.000000,91600691.000000 149217117.000000,91631913.000000 149185895.000000,91652774.000000 149149066.000000,91660099.000000 149149067.000000,91660100.000000 149112239.000000,91652774.000000 149081017.000000,91631913.000000 149060156.000000,91600691.000000 149052831.000000,91563862.000000 Z"
         id="path1609" />
      <path
         style="fill:none;fill-opacity:1;stroke:#ff0000;stroke-width:100000.00525011;stroke-opacity:1;stroke-linecap:round;stroke-linejoin:round;fill-rule:evenodd;stroke-dasharray:none"
         d="M 148652831.000000,91050271.000000 148660157.000000,91013443.000000 148681018.000000,90982221.000000 148712240.000000,90961360.000000 148749069.000000,90954035.000000 148749068.000000,90954034.000000 148785896.000000,90961360.000000 148817118.000000,90982221.000000 148837979.000000,91013443.000000 148845304.000000,91050272.000000 148845305.000000,91563863.000000 148837979.000000,91600691.000000 148817118.000000,91631913.000000 148785896.000000,91652774.000000 148749067.000000,91660099.000000 148749068.000000,91660100.000000 148712240.000000,91652774.000000 148681018.000000,91631913.000000 148660157.000000,91600691.000000 148652832.000000,91563862.000000 Z"
         id="path1611" />
      <path
         style="fill:none;fill-opacity:1;stroke:#ff0000;stroke-width:100000.00525011;stroke-opacity:1;stroke-linecap:round;stroke-linejoin:round;fill-rule:evenodd;stroke-dasharray:none"
         d="M 148252831.000000,91050271.000000 148260157.000000,91013443.000000 148281018.000000,90982221.000000 148312240.000000,90961360.000000 148349069.000000,90954035.000000 148349068.000000,90954034.000000 148385896.000000,90961360.000000 148417118.000000,90982221.000000 148437979.000000,91013443.000000 148445304.000000,91050272.000000 148445305.000000,91563863.000000 148437979.000000,91600691.000000 148417118.000000,91631913.000000 148385896.000000,91652774.000000 148349067.000000,91660099.000000 148349068.000000,91660100.000000 148312240.000000,91652774.000000 148281018.000000,91631913.000000 148260157.000000,91600691.000000 148252832.000000,91563862.000000 Z"
         id="path1613" />
      <path
         style="fill:none;fill-opacity:1;stroke:#ff0000;stroke-width:100000.00525011;stroke-opacity:1;stroke-linecap:round;stroke-linejoin:round;fill-rule:evenodd;stroke-dasharray:none"
         d="M 147852830.000000,91050271.000000 147860156.000000,91013443.000000 147881017.000000,90982221.000000 147912239.000000,90961360.000000 147949068.000000,90954035.000000 147949067.000000,90954034.000000 147985895.000000,90961360.000000 148017117.000000,90982221.000000 148037978.000000,91013443.000000 148045303.000000,91050272.000000 148045304.000000,91563863.000000 148037978.000000,91600691.000000 148017117.000000,91631913.000000 147985895.000000,91652774.000000 147949066.000000,91660099.000000 147949067.000000,91660100.000000 147912239.000000,91652774.000000 147881017.000000,91631913.000000 147860156.000000,91600691.000000 147852831.000000,91563862.000000 Z"
         id="path1615" />
    </g>
    <g
       id="g1619" />
    <g
       style="fill:none;fill-opacity:1;stroke:#ff0000;stroke-width:100000.00525011;stroke-opacity:1;stroke-linecap:round;stroke-linejoin:round;stroke-dasharray:none"
       id="g1625">
      <path
         style="fill:none;fill-opacity:1;stroke:#ff0000;stroke-width:100000.00525011;stroke-opacity:1;stroke-linecap:round;stroke-linejoin:round;fill-rule:evenodd;stroke-dasharray:none"
         d="M 145245101.000000,96772101.000000 146195099.000000,96772101.000000 146195099.000000,98122099.000000 145245101.000000,98122099.000000 Z"
         id="path1621" />
      <path
         style="fill:none;fill-opacity:1;stroke:#ff0000;stroke-width:100000.00525011;stroke-opacity:1;stroke-linecap:round;stroke-linejoin:round;fill-rule:evenodd;stroke-dasharray:none"
         d="M 143695101.000000,96772101.000000 144645099.000000,96772101.000000 144645099.000000,98122099.000000 143695101.000000,98122099.000000 Z"
         id="path1623" />
    </g>
    <g
       id="g1627" />
    <g
       style="fill:none;fill-opacity:1;stroke:#ff0000;stroke-width:100000.00525011;stroke-opacity:1;stroke-linecap:round;stroke-linejoin:round;stroke-dasharray:none"
       id="g1633">
      <path
         style="fill:none;fill-opacity:1;stroke:#ff0000;stroke-width:100000.00525011;stroke-opacity:1;stroke-linecap:round;stroke-linejoin:round;fill-rule:evenodd;stroke-dasharray:none"
         d="M 145245101.000000,94994101.000000 146195099.000000,94994101.000000 146195099.000000,96344099.000000 145245101.000000,96344099.000000 Z"
         id="path1629" />
      <path
         style="fill:none;fill-opacity:1;stroke:#ff0000;stroke-width:100000.00525011;stroke-opacity:1;stroke-linecap:round;stroke-linejoin:round;fill-rule:evenodd;stroke-dasharray:none"
         d="M 143695101.000000,94994101.000000 144645099.000000,94994101.000000 144645099.000000,96344099.000000 143695101.000000,96344099.000000 Z"
         id="path1631" />
    </g>
    <g
       id="g1635" />
    <g
       style="fill:none;fill-opacity:1;stroke:#ff0000;stroke-width:100000.00525011;stroke-opacity:1;stroke-linecap:round;stroke-linejoin:round;stroke-dasharray:none"
       id="g1641">
      <path
         style="fill:none;fill-opacity:1;stroke:#ff0000;stroke-width:100000.00525011;stroke-opacity:1;stroke-linecap:round;stroke-linejoin:round;fill-rule:evenodd;stroke-dasharray:none"
         d="M 148080101.000000,103281099.000000 148080101.000000,102281101.000000 149430099.000000,102281101.000000 149430099.000000,103281099.000000 Z"
         id="path1637" />
      <path
         style="fill:none;fill-opacity:1;stroke:#ff0000;stroke-width:100000.00525011;stroke-opacity:1;stroke-linecap:round;stroke-linejoin:round;fill-rule:evenodd;stroke-dasharray:none"
         d="M 148080101.000000,105081099.000000 148080101.000000,104081101.000000 149430099.000000,104081101.000000 149430099.000000,105081099.000000 Z"
         id="path1639" />
    </g>
    <g
       id="g1643" />
    <g
       style="fill:none;fill-opacity:1;stroke:#ff0000;stroke-width:100000.00525011;stroke-opacity:1;stroke-linecap:round;stroke-linejoin:round;stroke-dasharray:none"
       id="g1649">
      <path
         style="fill:none;fill-opacity:1;stroke:#ff0000;stroke-width:100000.00525011;stroke-opacity:1;stroke-linecap:round;stroke-linejoin:round;fill-rule:evenodd;stroke-dasharray:none"
         d="M 149731101.000000,103270099.000000 149731101.000000,102270101.000000 151081099.000000,102270101.000000 151081099.000000,103270099.000000 Z"
         id="path1645" />
      <path
         style="fill:none;fill-opacity:1;stroke:#ff0000;stroke-width:100000.00525011;stroke-opacity:1;stroke-linecap:round;stroke-linejoin:round;fill-rule:evenodd;stroke-dasharray:none"
         d="M 149731101.000000,105070097.000000 149731101.000000,104070099.000000 151081099.000000,104070099.000000 151081099.000000,105070097.000000 Z"
         id="path1647" />
    </g>
    <g
       id="g1651" />
    <g
       style="fill:none;fill-opacity:1;stroke:#ff0000;stroke-width:100000.00525011;stroke-opacity:1;stroke-linecap:round;stroke-linejoin:round;stroke-dasharray:none"
       id="g1657">
      <path
         style="fill:none;fill-opacity:1;stroke:#ff0000;stroke-width:100000.00525011;stroke-opacity:1;stroke-linecap:round;stroke-linejoin:round;fill-rule:evenodd;stroke-dasharray:none"
         d="M 144477099.000000,104070101.000000 144477099.000000,105070099.000000 143127101.000000,105070099.000000 143127101.000000,104070101.000000 Z"
         id="path1653" />
      <path
         style="fill:none;fill-opacity:1;stroke:#ff0000;stroke-width:100000.00525011;stroke-opacity:1;stroke-linecap:round;stroke-linejoin:round;fill-rule:evenodd;stroke-dasharray:none"
         d="M 144477099.000000,102270103.000000 144477099.000000,103270101.000000 143127101.000000,103270101.000000 143127101.000000,102270103.000000 Z"
         id="path1655" />
    </g>
    <g
       id="g1659" />
    <g
       style="fill:none;fill-opacity:1;stroke:#ff0000;stroke-width:100000.00525011;stroke-opacity:1;stroke-linecap:round;stroke-linejoin:round;stroke-dasharray:none"
       id="g1665">
      <path
         style="fill:none;fill-opacity:1;stroke:#ff0000;stroke-width:100000.00525011;stroke-opacity:1;stroke-linecap:round;stroke-linejoin:round;fill-rule:evenodd;stroke-dasharray:none"
         d="M 142699099.000000,104070101.000000 142699099.000000,105070099.000000 141349101.000000,105070099.000000 141349101.000000,104070101.000000 Z"
         id="path1661" />
      <path
         style="fill:none;fill-opacity:1;stroke:#ff0000;stroke-width:100000.00525011;stroke-opacity:1;stroke-linecap:round;stroke-linejoin:round;fill-rule:evenodd;stroke-dasharray:none"
         d="M 142699099.000000,102270103.000000 142699099.000000,103270101.000000 141349101.000000,103270101.000000 141349101.000000,102270103.000000 Z"
         id="path1663" />
    </g>
    <g
       id="g1667" />
    <g
       style="fill:none;fill-opacity:1;stroke:#ff0000;stroke-width:100000.00525011;stroke-opacity:1;stroke-linecap:round;stroke-linejoin:round;stroke-dasharray:none"
       id="g1675">
      <path
         style="fill:none;fill-opacity:1;stroke:#ff0000;stroke-width:100000.00525011;stroke-opacity:1;stroke-linecap:round;stroke-linejoin:round;fill-rule:evenodd;stroke-dasharray:none"
         d="M 139889099.000000,74506099.000000 138839101.000000,74506099.000000 138839101.000000,73906101.000000 139889099.000000,73906101.000000 Z"
         id="path1669" />
      <path
         style="fill:none;fill-opacity:1;stroke:#ff0000;stroke-width:100000.00525011;stroke-opacity:1;stroke-linecap:round;stroke-linejoin:round;fill-rule:evenodd;stroke-dasharray:none"
         d="M 137589099.000000,75456097.000000 136539101.000000,75456097.000000 136539101.000000,74856099.000000 137589099.000000,74856099.000000 Z"
         id="path1671" />
      <path
         style="fill:none;fill-opacity:1;stroke:#ff0000;stroke-width:100000.00525011;stroke-opacity:1;stroke-linecap:round;stroke-linejoin:round;fill-rule:evenodd;stroke-dasharray:none"
         d="M 137589099.000000,73556099.000000 136539101.000000,73556099.000000 136539101.000000,72956101.000000 137589099.000000,72956101.000000 Z"
         id="path1673" />
    </g>
    <g
       id="g1677" />
    <g
       style="fill:none;fill-opacity:1;stroke:#ff0000;stroke-width:100000.00525011;stroke-opacity:1;stroke-linecap:round;stroke-linejoin:round;stroke-dasharray:none"
       id="g1685">
      <path
         style="fill:none;fill-opacity:1;stroke:#ff0000;stroke-width:100000.00525011;stroke-opacity:1;stroke-linecap:round;stroke-linejoin:round;fill-rule:evenodd;stroke-dasharray:none"
         d="M 146892101.000000,103247099.000000 146892101.000000,102347101.000000 147692099.000000,102347101.000000 147692099.000000,103247099.000000 Z"
         id="path1679" />
      <path
         style="fill:none;fill-opacity:1;stroke:#ff0000;stroke-width:100000.00525011;stroke-opacity:1;stroke-linecap:round;stroke-linejoin:round;fill-rule:evenodd;stroke-dasharray:none"
         d="M 144992103.000000,103247099.000000 144992103.000000,102347101.000000 145792101.000000,102347101.000000 145792101.000000,103247099.000000 Z"
         id="path1681" />
      <path
         style="fill:none;fill-opacity:1;stroke:#ff0000;stroke-width:100000.00525011;stroke-opacity:1;stroke-linecap:round;stroke-linejoin:round;fill-rule:evenodd;stroke-dasharray:none"
         d="M 145942101.000000,105247099.000000 145942101.000000,104347101.000000 146742099.000000,104347101.000000 146742099.000000,105247099.000000 Z"
         id="path1683" />
    </g>
    <g
       id="g1687" />
    <g
       id="g1689" />
    <g
       id="g1691" />
    <g
       id="g1693" />
    <g
       id="g1695" />
    <g
       id="g1697" />
    <g
       style="fill:none;fill-opacity:1;stroke:#ff0000;stroke-width:100000.00525011;stroke-opacity:1;stroke-linecap:round;stroke-linejoin:round;stroke-dasharray:none"
       id="g1703">
      <path
         style="fill:none;fill-opacity:1;stroke:#ff0000;stroke-width:100000.00525011;stroke-opacity:1;stroke-linecap:round;stroke-linejoin:round;fill-rule:evenodd;stroke-dasharray:none"
         d="M 146289103.000000,88594101.000000 147589101.000000,88594101.000000 147589101.000000,90044099.000000 146289103.000000,90044099.000000 Z"
         id="path1699" />
      <path
         style="fill:none;fill-opacity:1;stroke:#ff0000;stroke-width:100000.00525011;stroke-opacity:1;stroke-linecap:round;stroke-linejoin:round;fill-rule:evenodd;stroke-dasharray:none"
         d="M 147889101.000000,88594101.000000 149189099.000000,88594101.000000 149189099.000000,90044099.000000 147889101.000000,90044099.000000 Z"
         id="path1701" />
    </g>
    <g
       id="g1705" />
    <g
       style="fill:none;fill-opacity:1;stroke:#ff0000;stroke-width:100000.00525011;stroke-opacity:1;stroke-linecap:round;stroke-linejoin:round;stroke-dasharray:none"
       id="g1711">
      <path
         style="fill:none;fill-opacity:1;stroke:#ff0000;stroke-width:100000.00525011;stroke-opacity:1;stroke-linecap:round;stroke-linejoin:round;fill-rule:evenodd;stroke-dasharray:none"
         d="M 144908099.000000,91273103.000000 144908099.000000,92523101.000000 143458101.000000,92523101.000000 143458101.000000,91273103.000000 Z"
         id="path1707" />
      <path
         style="fill:none;fill-opacity:1;stroke:#ff0000;stroke-width:100000.00525011;stroke-opacity:1;stroke-linecap:round;stroke-linejoin:round;fill-rule:evenodd;stroke-dasharray:none"
         d="M 144908099.000000,92973101.000000 144908099.000000,94223099.000000 143458101.000000,94223099.000000 143458101.000000,92973101.000000 Z"
         id="path1709" />
    </g>
    <g
       id="g1713" />
    <g
       style="fill:none;fill-opacity:1;stroke:#ff0000;stroke-width:100000.00525011;stroke-opacity:1;stroke-linecap:round;stroke-linejoin:round;stroke-dasharray:none"
       id="g1719">
      <path
         style="fill:none;fill-opacity:1;stroke:#ff0000;stroke-width:100000.00525011;stroke-opacity:1;stroke-linecap:round;stroke-linejoin:round;fill-rule:evenodd;stroke-dasharray:none"
         d="M 141426101.000000,94198097.000000 141426101.000000,92898099.000000 142876099.000000,92898099.000000 142876099.000000,94198097.000000 Z"
         id="path1715" />
      <path
         style="fill:none;fill-opacity:1;stroke:#ff0000;stroke-width:100000.00525011;stroke-opacity:1;stroke-linecap:round;stroke-linejoin:round;fill-rule:evenodd;stroke-dasharray:none"
         d="M 141426101.000000,92598099.000000 141426101.000000,91298101.000000 142876099.000000,91298101.000000 142876099.000000,92598099.000000 Z"
         id="path1717" />
    </g>
    <g
       id="g1721" />
    <g
       style="fill:none;fill-opacity:1;stroke:#ff0000;stroke-width:100000.00525011;stroke-opacity:1;stroke-linecap:round;stroke-linejoin:round;stroke-dasharray:none"
       id="g1727">
      <path
         style="fill:none;fill-opacity:1;stroke:#ff0000;stroke-width:100000.00525011;stroke-opacity:1;stroke-linecap:round;stroke-linejoin:round;fill-rule:evenodd;stroke-dasharray:none"
         d="M 151115103.000000,93166101.000000 152415101.000000,93166101.000000 152415101.000000,94616099.000000 151115103.000000,94616099.000000 Z"
         id="path1723" />
      <path
         style="fill:none;fill-opacity:1;stroke:#ff0000;stroke-width:100000.00525011;stroke-opacity:1;stroke-linecap:round;stroke-linejoin:round;fill-rule:evenodd;stroke-dasharray:none"
         d="M 152715101.000000,93166101.000000 154015099.000000,93166101.000000 154015099.000000,94616099.000000 152715101.000000,94616099.000000 Z"
         id="path1725" />
    </g>
    <g
       id="g1729" />
    <g
       style="fill:none;fill-opacity:1;stroke:#ff0000;stroke-width:100000.00525011;stroke-opacity:1;stroke-linecap:round;stroke-linejoin:round;stroke-dasharray:none"
       id="g1735">
      <path
         style="fill:none;fill-opacity:1;stroke:#ff0000;stroke-width:100000.00525011;stroke-opacity:1;stroke-linecap:round;stroke-linejoin:round;fill-rule:evenodd;stroke-dasharray:none"
         d="M 151115103.000000,90753101.000000 152415101.000000,90753101.000000 152415101.000000,92203099.000000 151115103.000000,92203099.000000 Z"
         id="path1731" />
      <path
         style="fill:none;fill-opacity:1;stroke:#ff0000;stroke-width:100000.00525011;stroke-opacity:1;stroke-linecap:round;stroke-linejoin:round;fill-rule:evenodd;stroke-dasharray:none"
         d="M 152715101.000000,90753101.000000 154015099.000000,90753101.000000 154015099.000000,92203099.000000 152715101.000000,92203099.000000 Z"
         id="path1733" />
    </g>
    <g
       id="g1737" />
    <g
       id="g1739" />
    <g
       id="g1741" />
  </g>
  <g
     style="fill:#000000; fill-opacity:1.0;  stroke:#000000; stroke-width:1.000000; stroke-opacity:1;  stroke-linecap:round; stroke-linejoin:round;"
     id="g1745" />
  <g
     style="fill:#000000; fill-opacity:1.0;  stroke:#000000; stroke-width:50000.000000; stroke-opacity:1;  stroke-linecap:round; stroke-linejoin:round;"
     id="g1747" />
</svg>
